<?xml version="1.0" encoding="utf-8"?>
<!-- Generator: Adobe Illustrator 22.0.1, SVG Export Plug-In . SVG Version: 6.00 Build 0)  -->
<svg version="1.1" xmlns="http://www.w3.org/2000/svg" xmlns:xlink="http://www.w3.org/1999/xlink" x="0px" y="0px"
	 viewBox="0 0 323.7 314" style="enable-background:new 0 0 323.7 314;" xml:space="preserve">
<style type="text/css">
	.st0{fill:#685C2A;}
	.st1{fill:#EFD558;}
	.st2{fill:#BBA546;}
	.st3{fill:#F2DE8B;}
	.st4{fill:#565656;}
	.st5{fill:#F6E187;}
	.st6{fill:#D9C25E;}
	.st7{fill:#E9DFB4;}
	.st8{fill:#B5A874;}
	.st9{fill:#161413;}
	.st10{fill:#BEBDB7;}
	.st11{fill:#838281;}
	.st12{fill:#CD7F45;}
	.st13{fill:#727370;}
	.st14{fill:#B19D4A;}
	.st15{fill:#3F3F3B;}
	.st16{fill:#1E1E1D;}
	.st17{fill:#BFA846;}
	.st18{fill:#5F5F5E;}
	.st19{fill:#897B3E;}
	.st20{fill:#2B2B29;}
	.st21{fill:#EF9851;}
	.st22{fill:#818281;}
	.st23{fill:#888885;}
	.st24{fill:#D38449;}
	.st25{fill:#B2B1B1;}
	.st26{fill:#70706D;}
	.st27{fill:#565654;}
	.st28{fill:#B2B0B0;}
	.st29{fill:#EFD557;}
	.st30{fill:#AF9C49;}
	.st31{fill:#444445;}
	.st32{fill:#BFA845;}
	.st33{fill:#999695;}
	.st34{fill:#887B3D;}
	.st35{fill:#F8A872;}
	.st36{fill:#E08C53;}
</style>
<g id="Layer_1">
</g>
<g id="oil_x5F_drum">
	<g>
		<g>
			<g>
				<path class="st0" d="M177.1,21.7h-8.2c-2.6,0-4.8-2.2-4.8-4.8v-6.1c0-2.6,2.2-4.8,4.8-4.8h8.2c2.6,0,4.8,2.2,4.8,4.8v6.1
					C181.9,19.6,179.7,21.7,177.1,21.7z"/>
				<rect x="18.4" y="13.9" class="st1" width="182.3" height="296.2"/>
				<path class="st2" d="M202.8,18.8H15.3c-1.3,0-2.3-1-2.3-2.3v-0.3c0-1.3,1.1-2.3,2.3-2.3h187.4c1.3,0,2.3,1.1,2.3,2.3v0.3
					C205.1,17.7,204.1,18.8,202.8,18.8z"/>
				<path class="st2" d="M203.7,313H16.2c-1.3,0-2.3-1-2.3-2.3v-0.3c0-1.3,1.1-2.3,2.3-2.3h187.4c1.3,0,2.3,1,2.3,2.3v0.3
					C206,312,204.9,313,203.7,313z"/>
				<g>
					<g>
						<path class="st3" d="M198.3,70.9H20.7c-3.2,0-5.9-2.7-5.9-5.9v0c0-3.2,2.7-5.9,5.9-5.9h177.6c3.2,0,5.9,2.7,5.9,5.9v0
							C204.2,68.3,201.6,70.9,198.3,70.9z"/>
						<path class="st2" d="M14.8,65c0,3.2,2.4,5.9,5.4,5.9h178.7c2.9,0,5.4-2.7,5.4-5.9H14.8z"/>
					</g>
					<g>
						<path class="st3" d="M196.8,109.3H22.2c-4.1,0-7.4-3.3-7.4-7.4v0c0-4.1,3.3-7.4,7.4-7.4h174.7c4.1,0,7.4,3.3,7.4,7.4v0
							C204.2,106,200.9,109.3,196.8,109.3z"/>
						<path class="st2" d="M16.3,101.9c-0.8,0-1.5,0.9-1.3,1.8c0.6,3.2,2.7,5.6,5.2,5.6h178.7c2.5,0,4.6-2.4,5.2-5.6
							c0.2-0.9-0.5-1.8-1.3-1.8H16.3z"/>
					</g>
					<g>
						<path class="st3" d="M198.3,94.6H20.7c-3.2,0-5.9-2.7-5.9-5.9v0c0-3.2,2.7-5.9,5.9-5.9h177.6c3.2,0,5.9,2.7,5.9,5.9v0
							C204.2,91.9,201.6,94.6,198.3,94.6z"/>
						<path class="st2" d="M14.8,88.7c0,3.2,2.4,5.9,5.4,5.9h178.7c2.9,0,5.4-2.7,5.4-5.9H14.8z"/>
					</g>
					<g>
						<path class="st3" d="M198.3,82.8H20.7c-3.2,0-5.9-2.7-5.9-5.9v0c0-3.2,2.7-5.9,5.9-5.9h177.6c3.2,0,5.9,2.7,5.9,5.9v0
							C204.2,80.1,201.6,82.8,198.3,82.8z"/>
						<path class="st2" d="M14.8,76.8c0,3.2,2.4,5.9,5.4,5.9h178.7c2.9,0,5.4-2.7,5.4-5.9H14.8z"/>
					</g>
				</g>
				<g>
					<g>
						<path class="st3" d="M198.3,218.5H20.7c-3.2,0-5.9-2.7-5.9-5.9l0,0c0-3.2,2.7-5.9,5.9-5.9h177.6c3.2,0,5.9,2.7,5.9,5.9l0,0
							C204.2,215.9,201.6,218.5,198.3,218.5z"/>
						<path class="st2" d="M14.8,212.6c0,3.2,2.4,5.9,5.4,5.9h178.7c2.9,0,5.4-2.7,5.4-5.9H14.8z"/>
					</g>
					<g>
						<path class="st3" d="M196.8,256.9H22.2c-4.1,0-7.4-3.3-7.4-7.4v0c0-4.1,3.3-7.4,7.4-7.4h174.7c4.1,0,7.4,3.3,7.4,7.4v0
							C204.2,253.6,200.9,256.9,196.8,256.9z"/>
						<path class="st2" d="M16.3,249.5c-0.8,0-1.5,0.9-1.3,1.8c0.6,3.2,2.7,5.6,5.2,5.6h178.7c2.5,0,4.6-2.4,5.2-5.6
							c0.2-0.9-0.5-1.8-1.3-1.8H16.3z"/>
					</g>
					<g>
						<path class="st3" d="M198.3,242.2H20.7c-3.2,0-5.9-2.7-5.9-5.9v0c0-3.2,2.7-5.9,5.9-5.9h177.6c3.2,0,5.9,2.7,5.9,5.9v0
							C204.2,239.5,201.6,242.2,198.3,242.2z"/>
						<path class="st2" d="M14.8,236.3c0,3.2,2.4,5.9,5.4,5.9h178.7c2.9,0,5.4-2.7,5.4-5.9H14.8z"/>
					</g>
					<g>
						<path class="st3" d="M198.3,230.3H20.7c-3.2,0-5.9-2.7-5.9-5.9v0c0-3.2,2.7-5.9,5.9-5.9h177.6c3.2,0,5.9,2.7,5.9,5.9v0
							C204.2,227.7,201.6,230.3,198.3,230.3z"/>
						<path class="st2" d="M14.8,224.4c0,3.2,2.4,5.9,5.4,5.9h178.7c2.9,0,5.4-2.7,5.4-5.9H14.8z"/>
					</g>
				</g>
			</g>
			<g>
				<circle class="st4" cx="110" cy="154" r="41"/>
				<g>
					<path class="st1" d="M122.7,151.1L109.8,130l-12.9,21.1c-3.7,6.1-3,15.2,0.4,20.1c2.2,4.6,7,7.8,12.5,7.8s10.3-3.2,12.5-7.8
						C125.6,166.3,126.4,157.2,122.7,151.1z"/>
					<path class="st0" d="M109.6,174.1c-5.4-0.8-9.6-4.1-11-8.1c0.3,1.8,0.8,3.5,1.7,4.8c1.4,3.1,4.6,5.3,8.3,5.3
						c2.2,0,4.2-0.7,5.7-1.9C112.8,174.3,111.2,174.3,109.6,174.1z"/>
				</g>
			</g>
		</g>
		<g>
			<polygon class="st5" points="61.4,256.9 35,256.9 35,308.1 62,308.1 			"/>
			<polygon class="st5" points="60,109.3 35,109.3 35,206.7 60.9,206.7 			"/>
			<polygon class="st5" points="59.1,18.8 35,18.8 35,59.1 59.5,59.1 			"/>
			<polygon class="st6" points="59.1,18.8 59,13.9 35,13.9 35,18.8 			"/>
			<polygon class="st6" points="35,310 35,313 62,313 62,310 			"/>
			<polygon class="st6" points="35,308.1 35,310 62,310 62,308.1 			"/>
			<polygon class="st7" points="59.5,59.1 35,59.1 35,65 59.5,65 			"/>
			<polygon class="st8" points="59.6,70.9 59.5,65 35,65 35,70.9 			"/>
			<polygon class="st7" points="59.8,94.6 35,94.6 35,101.9 59.9,101.9 			"/>
			<rect x="35" y="109.3" class="st2" width="25" height="0"/>
			<polygon class="st8" points="59.9,101.9 35,101.9 35,109.3 60,109.3 			"/>
			<polygon class="st7" points="59.7,82.8 35,82.8 35,88.7 59.8,88.7 			"/>
			<polygon class="st8" points="59.8,88.7 35,88.7 35,94.6 59.8,94.6 			"/>
			<polygon class="st7" points="59.6,70.9 35,70.9 35,76.8 59.6,76.8 			"/>
			<rect x="35" y="70.9" class="st3" width="24.6" height="0"/>
			<polygon class="st8" points="59.6,76.8 35,76.8 35,82.8 59.7,82.8 			"/>
			<polygon class="st7" points="60.9,206.7 35,206.7 35,212.6 61,212.6 			"/>
			<polygon class="st8" points="61,212.6 35,212.6 35,218.5 61.1,218.5 			"/>
			<polygon class="st7" points="61.3,242.2 35,242.2 35,249.5 61.4,249.5 			"/>
			<polygon class="st8" points="61.4,249.5 35,249.5 35,256.9 61.4,256.9 			"/>
			<polygon class="st7" points="61.2,230.3 35,230.3 35,236.3 61.2,236.3 			"/>
			<polygon class="st8" points="61.2,236.3 35,236.3 35,242.2 61.3,242.2 			"/>
			<polygon class="st7" points="61.1,218.5 35,218.5 35,224.4 61.1,224.4 			"/>
			<polygon class="st8" points="61.1,224.4 35,224.4 35,230.3 61.2,230.3 			"/>
		</g>
	</g>
	<path class="st9" d="M119.1,44.4c0,2.5,2,4.6,4.6,4.6s4.5-2.1,4.5-4.6c0-2.5,2-4.6,4.6-4.6s4.6,2.1,4.6,4.6v9.1
		c0,2.5,2,4.6,4.6,4.6c2.5,0,4.5-2.1,4.5-4.6V40.9c0-2.5,2-4.6,4.6-4.6c2.5,0,4.6,2.1,4.6,4.6v3.5c0,2.5,2,4.6,4.6,4.6
		c2.5,0,4.6-2.1,4.6-4.6c0-2.5,2-4.6,4.5-4.6c2.5,0,4.6,2.1,4.6,4.6v14c0,2.5,2,4.6,4.6,4.6s4.6-2.1,4.6-4.6V40.9
		c0-2.5,2-4.6,4.6-4.6c2.5,0,4.5,2.1,4.5,4.6v3.5c0,2.5,2,4.6,4.6,4.6c2.5,0,4.6-2.1,4.6-4.6V13.9h-81.9V44.4z"/>
	<g>
		<g>
			<g>
				<rect x="185.8" y="243.9" class="st10" width="117.2" height="3"/>
				<rect x="185.8" y="246.9" class="st11" width="117.2" height="3"/>
			</g>
			<path class="st12" d="M311.5,314.5H178c-2.1,0-3.8-1.7-3.8-3.8v-1.5c0-2.1,1.7-3.8,3.8-3.8h133.5c2.1,0,3.8,1.7,3.8,3.8v1.5
				C315.3,312.8,313.6,314.5,311.5,314.5z"/>
			<path class="st12" d="M186.3,305.5h-9V241c0-2.5,2-4.5,4.5-4.5l0,0c2.5,0,4.5,2,4.5,4.5V305.5z"/>
			<path class="st12" d="M311.3,305.5h-9V241c0-2.5,2-4.5,4.5-4.5h0c2.5,0,4.5,2,4.5,4.5V305.5z"/>
			<g>
				<path class="st1" d="M256,305.7l-6.4-0.9c-1.1-0.2-1.9-1.2-1.8-2.3l3.9-28.6c0.2-1.1,1.2-1.9,2.3-1.8l6.4,0.9
					c1.1,0.2,1.9,1.2,1.8,2.3l-3.9,28.6C258.2,305,257.1,305.8,256,305.7z"/>
				
					<rect x="256.9" y="226.1" transform="matrix(0.9909 0.1344 -0.1344 0.9909 35.8403 -32.7311)" class="st13" width="7.1" height="46"/>
				<path class="st14" d="M263,276.1l-12.2-1.7c-1-0.1-1.7-1-1.5-2l0-0.3c0.1-1,1-1.7,2-1.5l12.2,1.7c1,0.1,1.7,1,1.5,2l0,0.3
					C264.9,275.5,264,276.2,263,276.1z"/>
				<path class="st14" d="M253.8,301.4l-0.9-0.1c-0.8-0.1-1.4-0.9-1.3-1.7l3-21.8c0.1-0.8,0.9-1.4,1.7-1.3l0.9,0.1
					c0.8,0.1,1.4,0.9,1.3,1.7l-3,21.8C255.4,300.9,254.6,301.5,253.8,301.4z"/>
				<path class="st14" d="M259.8,278.3l-2.8,20.9c-0.1,1.1,0.6,2.1,1.7,2.2l3.4-24.8C260.9,276.5,259.9,277.2,259.8,278.3z"/>
				<path class="st14" d="M251.6,275.2l-3.4,24.8c1.1,0.1,2.1-0.6,2.2-1.7l2.8-20.9C253.4,276.4,252.6,275.4,251.6,275.2z"/>
				
					<rect x="259.6" y="226.3" transform="matrix(0.9909 0.1344 -0.1344 0.9909 33.173 -33.2777)" class="st15" width="7.1" height="5.6"/>
				<path class="st16" d="M255.4,219l-5.4,1.8c-1.7,0.5-2,2.8-0.5,3.8l4.8,3.2c0.3,0.2,0.5,0.3,0.9,0.3l18.6,2.5
					c1.1,0.2,2.2-0.7,2.3-1.8l0.7-5c0.2-1.2-0.6-2.2-1.8-2.4l-18.6-2.5C256,218.9,255.7,218.9,255.4,219z"/>
				<g>
					<path class="st17" d="M256.7,276.5c1.1,0.1,1.8,1.1,1.7,2.2l-2.8,20.9c-0.1,1.1-1.1,1.8-2.2,1.7l-0.5,3.9l3.3,0.4
						c1.1,0.1,2.1-0.6,2.2-1.7l0.3-2.6c-1.1-0.1-1.8-1.1-1.7-2.2l2.8-20.9c0.1-1.1,1.1-1.8,2.2-1.7l0.1-0.7l-5.2-0.7L256.7,276.5z"
						/>
					
						<rect x="241.9" y="250.1" transform="matrix(0.1344 -0.9909 0.9909 0.1344 -22.9101 477.4689)" class="st18" width="39.8" height="3.5"/>
					<path class="st19" d="M257.3,272l-0.1,0.7l3.3,0.4c1.1,0.1,1.8,1.1,1.7,2.2l-0.1,0.7l0.9,0.1c1,0.1,1.9-0.6,2-1.5l0-0.4
						c0.1-1-0.6-1.9-1.5-2l-2.6-0.4l-0.1,0.7L257.3,272z"/>
					<path class="st19" d="M260.5,273.1l-3.3-0.4l-0.4,2.6l5.2,0.7l0.1-0.7C262.3,274.2,261.6,273.2,260.5,273.1z"/>
					
						<rect x="258.8" y="270.1" transform="matrix(0.1344 -0.9909 0.9909 0.1344 -45.1143 492.1194)" class="st19" width="0.7" height="3.5"/>
					<path class="st19" d="M255.6,299.6l2.8-20.9c0.1-1.1-0.6-2.1-1.7-2.2l-3.4,24.8C254.4,301.5,255.4,300.7,255.6,299.6z"/>
					<path class="st19" d="M259.8,278.3l-2.8,20.9c-0.1,1.1,0.6,2.1,1.7,2.2l3.4-24.8C260.9,276.5,259.9,277.2,259.8,278.3z"/>
					
						<rect x="263.3" y="229" transform="matrix(0.1344 -0.9909 0.9909 0.1344 0.4691 462.0431)" class="st20" width="2.8" height="3.5"/>
					<path class="st16" d="M274.9,221.4l-10.6-1.4l-0.9,6.4l3.5,0.5l-0.4,2.8l7,1c1.1,0.2,2.2-0.7,2.3-1.8l0.7-5
						C276.8,222.6,276.1,221.6,274.9,221.4z"/>
					
						<rect x="263.7" y="226.2" transform="matrix(0.1344 -0.9909 0.9909 0.1344 3.5421 460.0155)" class="st16" width="2.8" height="3.5"/>
				</g>
			</g>
			<circle class="st10" cx="181.8" cy="310" r="2.7"/>
			<circle class="st10" cx="306.8" cy="310" r="2.7"/>
			<g>
				<g>
					<path class="st21" d="M229.6,270.8l2-6.2c0.5-1.7-0.3-3.5-1.8-4l-3.2-1l-2.2,7L229.6,270.8z"/>
					<g>
						<path class="st1" d="M219.3,230.7l0.6-1.9c-1.5,0.1-2.9,1.2-3.4,2.9l-14.9,46.9c-0.7,2.1,0.3,4.4,2.2,5l11,3.5
							c1.9,0.6,4-0.6,4.7-2.8l0.4-1.4l23.8,18.9l4.6,1.5l4.8-15.2l0,0l0,0l1.9-6l-3.6-1.1c-0.6-0.2-1.2,0.2-1.4,0.8l-1,3.1
							L225.3,266l9.1-28.6c0.7-2-0.2-4.2-2-4.9l-0.7,2.1L219.3,230.7z"/>
						<path class="st1" d="M220.4,227.3l-0.5,1.5c0.4,0,0.8,0,1.3,0.1l11,3.5c0.1,0,0.2,0.1,0.2,0.1l0.4-1.3L220.4,227.3z"/>
						<path class="st1" d="M221.2,228.9c-0.4-0.1-0.8-0.2-1.3-0.1l-0.6,1.9l12.4,4l0.7-2.1c-0.1,0-0.2-0.1-0.2-0.1L221.2,228.9z"/>
					</g>
					<path class="st13" d="M235.6,222.7l-2.7,8.6l-12.4-4l2.7-8.6c0.4-1.4,1.9-2.2,3.3-1.7l7.4,2.3
						C235.2,219.8,236,221.3,235.6,222.7z"/>
					<path class="st10" d="M234.5,216.2l-0.1,0.4l-6.7-2.1l0.1-0.4c0.5-1.5,2.1-2.3,3.6-1.8l1.3,0.4
						C234.1,213.2,234.9,214.7,234.5,216.2z"/>
					
						<rect x="229" y="212.9" transform="matrix(0.3027 -0.9531 0.9531 0.3027 -46.0076 370.6793)" class="st22" width="2.7" height="7.9"/>
					
						<ellipse transform="matrix(0.3027 -0.9531 0.9531 0.3027 -45.9066 370.98)" class="st13" cx="230.6" cy="216.9" rx="1.2" ry="1.1"/>
					<g>
						<path class="st13" d="M248.2,165.5l-15.1,47.4l-2.4-0.8l15.1-47.4c0.2-0.6,0.8-0.9,1.4-0.7l0.3,0.1
							C248.1,164.3,248.4,164.9,248.2,165.5z"/>
						<g>
							<polygon class="st23" points="230.8,212.1 233.6,211.5 234.4,208.9 231.6,209.4 							"/>
							<polygon class="st23" points="234,201.8 236.8,201.2 237.7,198.6 234.9,199.1 							"/>
							<polygon class="st23" points="232.4,206.8 235.2,206.3 236.1,203.6 233.3,204.2 							"/>
							<polygon class="st23" points="235.8,196.4 238.5,195.9 239.4,193.2 236.6,193.7 							"/>
							<polygon class="st23" points="239,186.1 241.8,185.6 242.7,182.9 239.9,183.5 							"/>
							<polygon class="st23" points="237.4,191.2 240.2,190.6 241.1,187.9 238.3,188.5 							"/>
							<polygon class="st23" points="240.6,181.1 243.4,180.6 244.2,177.9 241.5,178.5 							"/>
							<polygon class="st23" points="243.9,170.9 246.7,170.3 247.5,167.6 244.7,168.2 							"/>
							<polygon class="st23" points="242.3,175.9 245.1,175.3 245.9,172.6 243.1,173.2 							"/>
						</g>
					</g>
					
						<rect x="239.7" y="291.5" transform="matrix(0.3027 -0.9531 0.9531 0.3027 -103.842 442.9512)" class="st21" width="22.2" height="1.8"/>
					<path class="st21" d="M228.7,276c-1.5-1.2-3.8-0.7-5,1.1l-3.9,5.7l23.6,18.6l3.5-11.1L228.7,276z"/>
					<path class="st13" d="M207.1,267c1,0.3,2.2-0.3,2.6-1.5l6-18.8c0.4-1.2-0.2-2.4-1.2-2.7l-1.7-0.5l-7.3,23L207.1,267z"/>
					<path class="st21" d="M226.8,254.4l-3.4,10.7c-0.2,0.6-0.8,0.9-1.4,0.7l-0.3-0.1c-0.6-0.2-0.9-0.8-0.7-1.4l3.4-10.7
						c0.2-0.6,0.8-0.9,1.4-0.7l0.3,0.1C226.7,253.2,227,253.8,226.8,254.4z"/>
				</g>
				<g>
					<path class="st24" d="M229.9,269.7l1.6-5.1c0.5-1.7-0.3-3.5-1.8-4l-2.5-0.8l-2,6.2L229.9,269.7z"/>
					<polygon class="st1" points="253.1,288.1 253.1,288.1 253.1,288.1 					"/>
					<path class="st17" d="M225.5,232.7l-16.7,52.5l6,1.9c1.9,0.6,4-0.6,4.7-2.8l0.4-1.4l23.8,18.9l2.8,0.9l6.7-21.2l-1.8-0.6
						c-0.6-0.2-1.2,0.2-1.4,0.8l-1,3.1l-19.2-15.2l-0.3,1.1l-5.2-4.1l2.2-7l0.7,0.2l7.1-22.4c0.7-2-0.2-4.2-2-4.9l-0.7,2.1
						L225.5,232.7z M228.7,276l18.2,14.4l-3.5,11.1l-23.6-18.6l3.9-5.7C224.9,275.3,227.2,274.8,228.7,276z M226.7,254.7l-3.2,10.1
						c-0.2,0.7-1,1.2-1.6,1c-0.7-0.2-1-1-0.8-1.7l3.2-10.1c0.2-0.7,1-1.2,1.6-1C226.6,253.1,227,253.9,226.7,254.7z"/>
					<polygon class="st17" points="224.4,266.6 229.6,270.8 229.9,269.7 225.3,266 227.3,259.8 226.6,259.6 					"/>
					<path class="st17" d="M226.2,230.5l6,1.9c0.1,0,0.2,0.1,0.2,0.1l0.4-1.3l-6.2-2L226.2,230.5z"/>
					<path class="st17" d="M226.2,230.5l-0.7,2.2l6.2,2l0.7-2.1c-0.1,0-0.2-0.1-0.2-0.1L226.2,230.5z"/>
					<path class="st18" d="M226.6,229.3l6.2,2l2.8-8.8c0.4-1.3-0.2-2.6-1.3-3l-0.7-0.2l-3.5-1.1L226.6,229.3z"/>
					<path class="st25" d="M231,215.6l3.4,1.1l0.1-0.5c0.5-1.5-0.2-3-1.5-3.4l-1-0.3L231,215.6z"/>
					<path class="st26" d="M230.9,215.7c0.6,0.2,0.8,0.8,0.6,1.5c-0.2,0.6-0.8,1-1.4,0.8l-0.1,0.2l3.5,1.1l0.8-2.6l-0.1,0l-3.4-1.1
						L230.9,215.7z"/>
					<path class="st18" d="M231.6,217.2c0.2-0.6-0.1-1.3-0.6-1.5l-0.7,2.3C230.8,218.2,231.4,217.8,231.6,217.2z"/>
					<polygon class="st24" points="248.3,303.3 253.1,288.1 253.1,288.1 255,282.1 253.3,281.6 246.5,302.7 					"/>
					<path class="st24" d="M223.7,277.1l-3.9,5.7l23.6,18.6l3.5-11.1L228.7,276C227.2,274.8,224.9,275.3,223.7,277.1z"/>
					<path class="st24" d="M224.3,253.9l-3.2,10.1c-0.2,0.7,0.1,1.5,0.8,1.7c0.7,0.2,1.4-0.2,1.6-1l3.2-10.1
						c0.2-0.7-0.1-1.5-0.8-1.7C225.3,252.7,224.6,253.2,224.3,253.9z"/>
				</g>
			</g>
			<g>
				<g>
					<g>
						<path class="st27" d="M280.5,233.9c0-0.4,0-0.9,0.1-1.3l0,0c0,0,0,0,0,0c0,0,0,0,0,0l0,0c0.3,0.1,0.7-0.1,0.8-0.4
							c0.1-0.3,0-0.7-0.3-0.9l0-0.1c0.3,0.1,0.7-0.1,0.8-0.4s0-0.7-0.3-0.9l0-0.1c0.3,0.1,0.7-0.1,0.8-0.4s0-0.7-0.3-0.9l0-0.1
							c0.3,0.1,0.7-0.1,0.8-0.4s0-0.7-0.3-0.9l0-0.1c0.3,0.1,0.7-0.1,0.8-0.4s0-0.7-0.3-0.9l0-0.1c0.3,0.1,0.7-0.1,0.8-0.4
							s0-0.7-0.3-0.9l0-0.1c0.3,0.1,0.7-0.1,0.8-0.4s0-0.7-0.3-0.9l0-0.1c0.3,0.1,0.7-0.1,0.8-0.4c0.1-0.3,0-0.7-0.3-0.9l0-0.1
							c0.3,0.1,0.7-0.1,0.8-0.4s0-0.7-0.3-0.9l0-0.1c0.3,0.1,0.7-0.1,0.8-0.4s0-0.7-0.3-0.9l0-0.1c0.3,0.1,0.7-0.1,0.8-0.4
							s0-0.7-0.3-0.9l0-0.1c0.3,0.1,0.7-0.1,0.8-0.4s0-0.7-0.3-0.9l0-0.1c0.3,0.1,0.7-0.1,0.8-0.4s0-0.7-0.3-0.9l0-0.1
							c0.3,0.1,0.7-0.1,0.8-0.4c0.1-0.3,0-0.7-0.3-0.9l0-0.1c0.3,0.1,0.7-0.1,0.8-0.4c0.1-0.3,0-0.7-0.3-0.9l0-0.1
							c0.3,0.1,0.7-0.1,0.8-0.4c0.1-0.3,0-0.7-0.3-0.9l0-0.1c0.3,0.1,0.7-0.1,0.8-0.4c0.1-0.3,0-0.7-0.3-0.9l0-0.1
							c0.3,0.1,0.7-0.1,0.8-0.4c0.1-0.3,0-0.6-0.2-0.8c0,0,0.1-0.1,0.1-0.1l-0.2-0.1l0.6-1.4l3.3-7.4l0.3-0.6l1.2-2.6
							c0-0.1,0.1-0.2,0.1-0.2l0,0c1.3-2.9,6.5-3.4,11.7-1.1c5.2,2.3,8.4,6.5,7.1,9.4l0,0c0,0.1,0,0.2-0.1,0.2l-1.4,3.2
							c-0.3,0.7-1.2,1-1.9,0.7l-10.9-4.8c0,0,0,0,0,0l-14,31.6c-0.5,1.2-1.6,2.1-2.9,2.3l-3.5-1.5
							C280.8,235.2,280.6,234.6,280.5,233.9z"/>
						<g>
							<path class="st28" d="M280.4,233.9c0-0.4,0-0.9,0.2-1.3c0,0,0,0,0,0l0,0c0.3,0.1,0.7-0.1,0.8-0.4c0.1-0.3,0-0.7-0.3-0.9
								l0-0.1c0.3,0.1,0.7-0.1,0.8-0.4s0-0.7-0.3-0.9l0-0.1c0.3,0.1,0.7-0.1,0.8-0.4s0-0.7-0.3-0.9l0-0.1c0.3,0.1,0.7-0.1,0.8-0.4
								s0-0.7-0.3-0.9l0-0.1c0.3,0.1,0.7-0.1,0.8-0.4s0-0.7-0.3-0.9l0-0.1c0.3,0.1,0.7-0.1,0.8-0.4s0-0.7-0.3-0.9l0-0.1
								c0.3,0.1,0.7-0.1,0.8-0.4c0.1-0.3,0-0.7-0.3-0.9l0-0.1c0.3,0.1,0.7-0.1,0.8-0.4c0.1-0.3,0-0.7-0.3-0.9l0-0.1
								c0.3,0.1,0.7-0.1,0.8-0.4s0-0.7-0.3-0.9l0-0.1c0.3,0.1,0.7-0.1,0.8-0.4s0-0.7-0.3-0.9l0-0.1c0.3,0.1,0.7-0.1,0.8-0.4
								s0-0.7-0.3-0.9l0-0.1c0.3,0.1,0.7-0.1,0.8-0.4s0-0.7-0.3-0.9l0-0.1c0.3,0.1,0.7-0.1,0.8-0.4s0-0.7-0.3-0.9l0-0.1
								c0.3,0.1,0.7-0.1,0.8-0.4c0.1-0.3,0-0.7-0.3-0.9l0-0.1c0.3,0.1,0.7-0.1,0.8-0.4s0-0.7-0.3-0.9l0-0.1c0.3,0.1,0.7-0.1,0.8-0.4
								s0-0.7-0.3-0.9l0-0.1c0.3,0.1,0.7-0.1,0.8-0.4s0-0.7-0.3-0.9l0-0.1c0.3,0.1,0.7-0.1,0.8-0.4c0.1-0.3,0-0.6-0.2-0.8
								c0.8-1,2.2-1.4,3.4-0.8l1.2,0.5c1.5,0.6,2.1,2.4,1.5,3.8l-10.6,23.9c-0.6,1.5-2.4,2.1-3.8,1.5l-1.2-0.5
								C281.1,236,280.5,235,280.4,233.9z M283.9,235.7c1.1,0.5,2.4,0,2.9-1.1l9.9-22.5c0.5-1.1,0-2.4-1.1-2.9l-0.9-0.4
								c-1.1-0.5-2.4,0-2.9,1.1l-9.9,22.5c-0.5,1.1,0,2.4,1.1,2.9L283.9,235.7z"/>
						</g>
					</g>
					<path class="st29" d="M261.2,297.4l38.2-86.6l0.2-0.4l1.7-3.8l9.8,4.3c0.8,0.3,1.1,1.3,0.8,2l-0.6,1.4c-0.3,0.8-1.3,1.1-2,0.8
						l-2.3-1l-38.2,86.6c-0.7,1.7-2.7,2.4-4.3,1.7l-1.5-0.7C261.2,301,260.5,299.1,261.2,297.4z M267.3,298.9c0.5-1.1,0-2.4-1.1-2.9
						c-1.1-0.5-2.4,0-2.9,1.1s0,2.4,1.1,2.9C265.5,300.5,266.8,300,267.3,298.9z"/>
					<path class="st28" d="M288,254.6l13.4-30.3c0.4-1,0-2.1-1-2.6l-2.4-1.1c-1-0.4-2.1,0-2.6,1L282,252c-0.4,1,0,2.1,1,2.6l2.4,1.1
						C286.4,256.1,287.6,255.6,288,254.6z"/>
					<path class="st30" d="M284.7,214.8c2.1-4.8,4.7-8.3,5.8-7.8l11.3,5l2.5,1.1c0.1,0.1,0.2,0.2,0.2,0.3c0.2,0.3,1,1.2,1,2.4
						c0,0.5-0.1,0.9-0.5,2.1c-0.9,2.3-1.3,2.4-1.5,3.3c-0.4,1.6,0.1,3,0.5,4.2c0.2,0.7,0.8,2.1,2,3.3l-2.2,5l0,0l0,0l-2.2-1
						l-18.8-8.3C281.8,223.9,282.6,219.6,284.7,214.8z"/>
					<circle class="st28" cx="301.5" cy="216" r="2.6"/>
					<path class="st28" d="M301.5,206.2L301.5,206.2c0,0.3,0.2,0.5,0.5,0.6c0.3,0.1,0.6,0.1,0.7-0.1l0.1,0c0,0.2,0.2,0.5,0.4,0.6
						c0.3,0.1,0.6,0.1,0.7-0.1l0.1,0c0,0.2,0.2,0.5,0.4,0.6c0.3,0.1,0.6,0.1,0.7-0.1l0.1,0c0,0.2,0.2,0.5,0.4,0.6s0.6,0.1,0.7-0.1
						l0.1,0c0,0.2,0.2,0.5,0.4,0.6c0.3,0.1,0.6,0.1,0.7-0.1l0.1,0c0,0.2,0.2,0.5,0.4,0.6c0.3,0.1,0.6,0.1,0.7-0.1l0.1,0
						c0,0.2,0.2,0.5,0.4,0.6s0.6,0.1,0.7-0.1l0.1,0c0,0.2,0.2,0.5,0.4,0.6c0.3,0.1,0.6,0.1,0.7-0.1l0,0l-1.1,2.4
						c-0.2,0.3-0.5,0.5-0.9,0.3l-8.9-3.9c-0.3-0.2-0.5-0.5-0.3-0.9L301.5,206.2z"/>
					<path class="st28" d="M312.4,209L312.4,209c0-0.3-0.2-0.5-0.5-0.6c-0.3-0.1-0.6-0.1-0.7,0.1l-0.1,0c0-0.2-0.2-0.5-0.4-0.6
						s-0.6-0.1-0.7,0.1l-0.1,0c0-0.2-0.2-0.5-0.4-0.6c-0.3-0.1-0.6-0.1-0.7,0.1l-0.1,0c0-0.2-0.2-0.5-0.4-0.6
						c-0.3-0.1-0.6-0.1-0.7,0.1l-0.1,0c0-0.2-0.2-0.5-0.4-0.6c-0.3-0.1-0.6-0.1-0.7,0.1l-0.1,0c0-0.2-0.2-0.5-0.4-0.6
						c-0.3-0.1-0.6-0.1-0.7,0.1l-0.1,0c0-0.2-0.2-0.5-0.4-0.6c-0.3-0.1-0.6-0.1-0.7,0.1l-0.1,0c0-0.2-0.2-0.5-0.4-0.6
						s-0.6-0.1-0.7,0.1l0,0l1-2.4c0.1-0.3,0.5-0.5,0.9-0.4l8.9,3.8c0.3,0.1,0.5,0.5,0.4,0.9L312.4,209z"/>
					<path class="st27" d="M294.6,222.9l1.3-2.9c0.4-0.8,0-1.7-0.8-2.1l-6.7-3c-0.8-0.4-1.7,0-2.1,0.8l-1.3,2.9
						c-0.4,0.8,0,1.7,0.8,2.1l6.7,3C293.3,224.1,294.3,223.7,294.6,222.9z"/>
				</g>
				<g>
					<path class="st31" d="M313,205.8l-5.9-2.5l3.5-7.8c4.1,2.4,6.4,6,5.3,8.5l0,0c0,0.1,0,0.2-0.1,0.2l-1.4,3.2
						c-0.3,0.6-0.9,0.9-1.6,0.8l0.7-1.5C313.6,206.3,313.4,205.9,313,205.8z"/>
					<path class="st32" d="M305,217.8c0.5-1.1,0.6-1.6,0.5-2.1c-0.1-1.2-0.8-2.1-1-2.4c-0.1-0.1-0.2-0.2-0.2-0.3l-1.3-0.6l0.8-1.7
						l5.9,2.6c0.3,0.2,0.7,0,0.9-0.3l0.8-1.9c0.6,0.4,0.8,1.2,0.5,1.9l-0.6,1.4c-0.3,0.8-1.3,1.1-2,0.8l-2.3-1l-3.7,8.3
						c0-0.4,0-0.8,0.2-1.3C303.7,220.2,304.1,220.1,305,217.8z"/>
					<path class="st32" d="M267.3,298.9c0.5-1.1,0-2.4-1.1-2.9l18.1-40.9l1.2,0.5c1,0.4,2.1,0,2.6-1l10.3-23.4l0.9,0.4l-30.5,69.1
						c-0.7,1.7-2.7,2.4-4.3,1.7l-0.9-0.4l0.9-2C265.5,300.5,266.8,300,267.3,298.9z"/>
					<path class="st33" d="M298.4,231.2L288,254.6c-0.4,1-1.6,1.4-2.6,1l-1.2-0.5l11.1-25.2L298.4,231.2z"/>
					<path class="st34" d="M304,225.3c0.2,0.7,0.8,2.1,2,3.3l-2.2,5l0,0l0,0l-2.2-1l-2.4-1l4.1-9.2
						C303.3,223.5,303.7,224.5,304,225.3z"/>
					<path class="st34" d="M301.4,224.3c0.4-1,0-2.1-1-2.6l-1.2-0.5l1.3-2.9c1.3,0.6,2.8,0,3.4-1.3c0.6-1.3,0-2.8-1.3-3.4l0.5-1.1
						l1.3,0.6c0.1,0.1,0.2,0.2,0.2,0.3c0.2,0.3,1,1.2,1,2.4c0,0.5-0.1,0.9-0.5,2.1c-0.9,2.3-1.3,2.4-1.5,3.3
						c-0.1,0.4-0.2,0.9-0.2,1.3l-4.1,9.2l-0.9-0.4L301.4,224.3z"/>
					<path class="st34" d="M299.2,221.2l1.2,0.5c1,0.4,1.4,1.6,1,2.6l-3,6.9l-3-1.3L299.2,221.2z"/>
					<path class="st33" d="M303.9,217c-0.6,1.3-2.1,1.9-3.4,1.3l2.1-4.7C303.8,214.2,304.4,215.7,303.9,217z"/>
					<path class="st33" d="M304.9,208.2l0.1-0.3c0.1,0,0.2-0.1,0.2-0.1l0.1,0c0,0.2,0.2,0.5,0.4,0.6c0.3,0.1,0.6,0.1,0.7-0.1l0.1,0
						c0,0.2,0.2,0.5,0.4,0.6s0.6,0.1,0.7-0.1l0.1,0c0,0.2,0.2,0.5,0.4,0.6c0.3,0.1,0.6,0.1,0.7-0.1l0.1,0c0,0.2,0.2,0.5,0.4,0.6
						c0.3,0.1,0.6,0.1,0.7-0.1l0.1,0c0,0.2,0.2,0.5,0.4,0.6c0.3,0.1,0.6,0.1,0.7-0.1l0,0l-0.2,0.5c-0.1-0.1-0.2-0.1-0.3-0.2
						L304.9,208.2z"/>
					<path class="st33" d="M309.7,213.4l-5.9-2.6l1.1-2.5l6.2,2.7c0.1,0,0.2,0.1,0.3,0.2l-0.8,1.9
						C310.5,213.4,310.1,213.5,309.7,213.4z"/>
					<path class="st33" d="M312.4,208.1c0.1,0,0.2,0.1,0.3,0.1l-0.4,0.9l0,0c0-0.2-0.2-0.5-0.4-0.6c-0.3-0.1-0.6-0.1-0.7,0.1l-0.1,0
						c0-0.2-0.2-0.5-0.4-0.6c-0.3-0.1-0.6-0.1-0.7,0.1l-0.1,0c0-0.2-0.2-0.5-0.4-0.6c-0.3-0.1-0.6-0.1-0.7,0.1l-0.1,0
						c0-0.2-0.2-0.5-0.4-0.6c-0.3-0.1-0.6-0.1-0.7,0.1l-0.1,0c0-0.2-0.2-0.5-0.4-0.6c-0.3-0.1-0.6-0.1-0.7,0.1l-0.1,0
						c0-0.1,0-0.2-0.1-0.3l0.3-0.7L312.4,208.1z"/>
					<path class="st33" d="M306.2,205.3l0.9-2.1l5.9,2.5c0.3,0.1,0.5,0.5,0.4,0.9l-0.7,1.5c-0.1,0-0.2,0-0.3-0.1L306.2,205.3z"/>
				</g>
			</g>
			<rect x="186.2" y="280.7" class="st21" width="116" height="25"/>
		</g>
		<rect x="195.7" y="280.7" class="st35" width="9.7" height="25"/>
		<rect x="195.7" y="305.7" class="st36" width="9.7" height="8.8"/>
	</g>
</g>
<g id="Layer_3">
</g>
</svg>
