<?xml version="1.0" encoding="utf-8"?>
<!-- Generator: Adobe Illustrator 22.0.1, SVG Export Plug-In . SVG Version: 6.00 Build 0)  -->
<svg version="1.1" id="Layer_1" xmlns="http://www.w3.org/2000/svg" xmlns:xlink="http://www.w3.org/1999/xlink" x="0px" y="0px"
	 viewBox="0 0 467.2 816.9" style="enable-background:new 0 0 467.2 816.9;" xml:space="preserve">
<style type="text/css">
	.st0{fill:#797979;}
</style>
<path class="st0" d="M12.7,762l68.1-229.5c8-27,46-41.8,60.2-23.6l66.6,85.5c4.6-4.8,9.3-9.6,14-14.5c0.6-0.6,1.5-1.5,2.5-2.7
	c3.6-3.9,9.7-10.6,17.3-19.9c54.6-66.8,186.6-264,23.3-450.1c-3-3.4-8.6-9.8-16.2-18c-4.8-5.2-10.4-11.1-16.7-17.4
	C209.6,49.5,179.1,21.6,146.1,0h127.6c51.9,36.9,95.6,86.7,106.5,99.1c192.6,219.5-25.8,454.6-43.1,472.7
	c-29.9,31.1-58,60.1-85.1,79.7l60.1,77.2c14.2,18.3-9.5,51.4-37.6,52.6L35.2,791C17.8,791.7,7.7,778.7,12.7,762z"/>
</svg>
