<?xml version="1.0" encoding="utf-8"?>
<!-- Generator: Adobe Illustrator 22.0.1, SVG Export Plug-In . SVG Version: 6.00 Build 0)  -->
<svg version="1.1" id="Layer_1" xmlns="http://www.w3.org/2000/svg" xmlns:xlink="http://www.w3.org/1999/xlink" x="0px" y="0px"
	 viewBox="0 0 467.2 816.9" style="enable-background:new 0 0 467.2 816.9;" xml:space="preserve">
<style type="text/css">
	.st0{fill:#797979;}
</style>
<path class="st0" d="M457.3,762l-68.1-229.5c-8-27-46-41.8-60.2-23.6l-66.6,85.5c-4.6-4.8-9.3-9.6-14-14.5c-0.6-0.6-1.5-1.5-2.5-2.7
	c-3.6-3.9-9.7-10.6-17.3-19.9c-54.6-66.8-186.6-264-23.3-450.1c3-3.4,8.6-9.8,16.2-18c4.8-5.2,10.4-11.1,16.7-17.4
	c22.2-22.4,52.7-50.4,85.7-71.9H196.3c-51.9,36.9-95.6,86.7-106.5,99.1c-192.6,219.5,25.8,454.6,43.1,472.7
	c29.9,31.1,58,60.1,85.1,79.7l-60.1,77.2c-14.2,18.3,9.5,51.4,37.6,52.6l239.2,9.7C452.2,791.7,462.3,778.7,457.3,762z"/>
</svg>
