<?xml version="1.0" encoding="utf-8"?>
<!-- Generator: Adobe Illustrator 22.1.0, SVG Export Plug-In . SVG Version: 6.00 Build 0)  -->
<svg version="1.1" id="Layer_1" xmlns="http://www.w3.org/2000/svg" xmlns:xlink="http://www.w3.org/1999/xlink" x="0px" y="0px"
	 viewBox="0 0 1280 147.5" style="enable-background:new 0 0 1280 147.5;" xml:space="preserve">
<style type="text/css">
	.st0{fill:#703322;}
	.st1{fill:#B25538;}
	.st2{fill:#69716B;}
	.st3{fill:#C5CCC6;}
</style>
<rect y="78.8" class="st0" width="1280" height="68.7"/>
<path class="st1" d="M640,58H0v6.7v12.7v5v29c0,1.8,2.2,3.3,5,3.3c2.7,0,5-1.5,5-3.3V98.6c0-1.8,2.2-3.3,5-3.3c2.7,0,5,1.5,5,3.3
	v6.7c0,1.8,2.2,3.3,5,3.3c2.7,0,5-1.5,5-3.3v-9.7c0-1.8,2.2-3.3,5-3.3c2.7,0,5,1.5,5,3.3v6.7c0,1.8,2.2,3.3,5,3.3c2.7,0,5-1.5,5-3.3
	v-4.1c0-1.8,2.2-3.3,5-3.3c2.7,0,5,1.5,5,3.3v26c0,1.8,2.2,3.3,5,3.3c2.7,0,5-1.5,5-3.3V98.7c0-1.8,2.2-3.3,5-3.3c2.7,0,5,1.5,5,3.3
	v18c0,1.8,2.2,3.3,5,3.3c2.7,0,5-1.5,5-3.3V104c0-1.8,2.2-3.3,5-3.3c2.7,0,5,1.5,5,3.3v6.7c0,1.8,2.2,3.3,5,3.3c2.7,0,5-1.5,5-3.3
	V101c0-1.8,2.2-3.3,5-3.3c2.7,0,5,1.5,5,3.3v6.7c0,1.8,2.2,3.3,5,3.3c2.7,0,5-1.5,5-3.3v-4.1c0-1.8,2.2-3.3,5-3.3c2.7,0,5,1.5,5,3.3
	v26c0,1.8,2.2,3.3,5,3.3c2.7,0,5-1.5,5-3.3v-25.4c0-1.8,2.2-3.3,5-3.3c2.7,0,5,1.5,5,3.3v7.5c0,1.8,2.2,3.3,5,3.3c2.7,0,5-1.5,5-3.3
	V98.9c0-1.8,2.2-3.3,5-3.3c2.7,0,5,1.5,5,3.3v6.7c0,1.8,2.2,3.3,5,3.3c2.7,0,5-1.5,5-3.3v-9.7c0-1.8,2.2-3.3,5-3.3
	c2.7,0,5,1.5,5,3.3v6.7c0,1.8,2.2,3.3,5,3.3c2.7,0,5-1.5,5-3.3v-4.1c0-1.8,2.2-3.3,5-3.3c2.7,0,5,1.5,5,3.3v26c0,1.8,2.2,3.3,5,3.3
	c2.7,0,5-1.5,5-3.3V99c0-1.8,2.2-3.3,5-3.3c2.7,0,5,1.5,5,3.3v18c0,1.8,2.2,3.3,5,3.3c2.7,0,5-1.5,5-3.3v-12.7c0-1.8,2.2-3.3,5-3.3
	c2.7,0,5,1.5,5,3.3v6.7c0,1.8,2.2,3.3,5,3.3c2.7,0,5-1.5,5-3.3v-9.7c0-1.8,2.2-3.3,5-3.3c2.7,0,5,1.5,5,3.3v6.7c0,1.8,2.2,3.3,5,3.3
	c2.7,0,5-1.5,5-3.3v-4.1c0-1.8,2.2-3.3,5-3.3c2.7,0,5,1.5,5,3.3v26c0,1.8,2.2,3.3,5,3.3c2.7,0,5-1.5,5-3.3v-25.4
	c0-1.8,2.2-3.3,5-3.3c2.7,0,5,1.5,5,3.3v16.6c0,1.8,2.2,3.3,5,3.3c2.7,0,5-1.5,5-3.3v-12.7c0-1.8,2.2-3.3,5-3.3c2.7,0,5,1.5,5,3.3
	v6.7c0,1.8,2.2,3.3,5,3.3c2.7,0,5-1.5,5-3.3v-9.7c0-1.8,2.2-3.3,5-3.3c2.7,0,5,1.5,5,3.3v6.7c0,1.8,2.2,3.3,5,3.3c2.7,0,5-1.5,5-3.3
	V108c0-1.8,2.2-3.3,5-3.3c2.7,0,5,1.5,5,3.3v26c0,1.8,2.2,3.3,5,3.3c2.7,0,5-1.5,5-3.3v-25.4c0-1.8,2.2-3.3,5-3.3c2.7,0,5,1.5,5,3.3
	v18c0,1.8,2.2,3.3,5,3.3c2.7,0,5-1.5,5-3.3v-13.5c0-1.8,2.2-3.3,5-3.3c2.7,0,5,1.5,5,3.3v6.7c0,1.8,2.2,3.3,5,3.3c2.7,0,5-1.5,5-3.3
	v-9.9c0-1.8,2.2-3.3,5-3.3c2.7,0,5,1.5,5,3.3v6.7c0,1.8,2.2,3.3,5,3.3c2.7,0,5-1.5,5-3.3v-4.1c0-1.8,2.2-3.3,5-3.3
	c2.7,0,5,1.5,5,3.3v26c0,1.8,2.2,3.3,5,3.3c2.7,0,5-1.5,5-3.3v-25.4c0-1.8,2.2-3.3,5-3.3c2.7,0,5,1.5,5,3.3v7.5c0,1.8,2.2,3.3,5,3.3
	c2.7,0,5-1.5,5-3.3v-12.7c0-1.8,2.2-3.3,5-3.3c2.7,0,5,1.5,5,3.3v6.7c0,1.8,2.2,3.3,5,3.3c2.7,0,5-1.5,5-3.3v-9.7
	c0-1.8,2.2-3.3,5-3.3c2.7,0,5,1.5,5,3.3v6.7c0,1.8,2.2,3.3,5,3.3s5-1.5,5-3.3v-4.1c0-1.8,2.2-3.3,5-3.3c2.7,0,5,1.5,5,3.3v26
	c0,1.8,2.2,3.3,5,3.3s5-1.5,5-3.3v-25.4c0-1.8,2.2-3.3,5-3.3c2.7,0,5,1.5,5,3.3v18c0,1.8,2.2,3.3,5,3.3s5-1.5,5-3.3v-13
	c0-1.8,2.2-3.3,5-3.3c2.7,0,5,1.5,5,3.3v6.7c0,1.8,2.2,3.3,5,3.3s5-1.5,5-3.3V110c0-1.8,2.2-3.3,5-3.3c2.7,0,5,1.5,5,3.3v6.7
	c0,1.8,2.2,3.3,5,3.3s5-1.5,5-3.3v-4.1c0-1.8,2.2-3.3,5-3.3c2.7,0,5,1.5,5,3.3v26c0,1.8,2.2,3.3,5,3.3s5-1.5,5-3.3v-25.4
	c0-1.8,2.2-3.3,5-3.3c2.7,0,5,1.5,5,3.3v-1.8c0,1.8,2.2,3.3,5,3.3c2.7,0,5-1.5,5-3.3V98.6c0-1.8,2.2-3.3,5-3.3c2.7,0,5,1.5,5,3.3
	v6.7c0,1.8,2.2,3.3,5,3.3c2.7,0,5-1.5,5-3.3v-9.7c0-1.8,2.2-3.3,5-3.3c2.7,0,5,1.5,5,3.3v6.7c0,1.8,2.2,3.3,5,3.3c2.7,0,5-1.5,5-3.3
	v-4.1c0-1.8,2.2-3.3,5-3.3c2.7,0,5,1.5,5,3.3v26c0,1.8,2.2,3.3,5,3.3c2.7,0,5-1.5,5-3.3V98.7c0-1.8,2.2-3.3,5-3.3c2.7,0,5,1.5,5,3.3
	v18c0,1.8,2.2,3.3,5,3.3c2.7,0,5-1.5,5-3.3V104c0-1.8,2.2-3.3,5-3.3c2.7,0,5,1.5,5,3.3v6.7c0,1.8,2.2,3.3,5,3.3c2.7,0,5-1.5,5-3.3
	V101c0-1.8,2.2-3.3,5-3.3c2.7,0,5,1.5,5,3.3v6.7c0,1.8,2.2,3.3,5,3.3c2.7,0,5-1.5,5-3.3v-4.1c0-1.8,2.2-3.3,5-3.3c2.7,0,5,1.5,5,3.3
	v26c0,1.8,2.2,3.3,5,3.3c2.7,0,5-1.5,5-3.3v-25.4c0-1.8,2.2-3.3,5-3.3c2.7,0,5,1.5,5,3.3v7.5c0,1.8,2.2,3.3,5,3.3c2.7,0,5-1.5,5-3.3
	V98.9c0-1.8,2.2-3.3,5-3.3c2.7,0,5,1.5,5,3.3v6.7c0,1.8,2.2,3.3,5,3.3c2.7,0,5-1.5,5-3.3v-9.7c0-1.8,2.2-3.3,5-3.3
	c2.7,0,5,1.5,5,3.3v6.7c0,1.8,2.2,3.3,5,3.3c2.7,0,5-1.5,5-3.3v-4.1c0-1.8,2.2-3.3,5-3.3c2.7,0,5,1.5,5,3.3v26c0,1.8,2.2,3.3,5,3.3
	c2.7,0,5-1.5,5-3.3V99c0-1.8,2.2-3.3,5-3.3c2.7,0,5,1.5,5,3.3v18c0,1.8,2.2,3.3,5,3.3c2.7,0,5-1.5,5-3.3v-12.7c0-1.8,2.2-3.3,5-3.3
	c2.7,0,5,1.5,5,3.3v6.7c0,1.8,2.2,3.3,5,3.3c2.7,0,5-1.5,5-3.3v-9.7c0-1.8,2.2-3.3,5-3.3c2.7,0,5,1.5,5,3.3v6.7c0,1.8,2.2,3.3,5,3.3
	c2.7,0,5-1.5,5-3.3v-4.1c0-1.8,2.2-3.3,5-3.3c2.7,0,5,1.5,5,3.3v26c0,1.8,2.2,3.3,5,3.3c2.7,0,5-1.5,5-3.3v-25.4
	c0-1.8,2.2-3.3,5-3.3c2.7,0,5,1.5,5,3.3v16.6c0,1.8,2.2,3.3,5,3.3c2.7,0,5-1.5,5-3.3v-12.7c0-1.8,2.2-3.3,5-3.3c2.7,0,5,1.5,5,3.3
	v6.7c0,1.8,2.2,3.3,5,3.3c2.7,0,5-1.5,5-3.3v-9.7c0-1.8,2.2-3.3,5-3.3c2.7,0,5,1.5,5,3.3v6.7c0,1.8,2.2,3.3,5,3.3c2.7,0,5-1.5,5-3.3
	V108c0-1.8,2.2-3.3,5-3.3c2.7,0,5,1.5,5,3.3v26c0,1.8,2.2,3.3,5,3.3c2.7,0,5-1.5,5-3.3v-25.4c0-1.8,2.2-3.3,5-3.3c2.7,0,5,1.5,5,3.3
	v18c0,1.8,2.2,3.3,5,3.3c2.7,0,5-1.5,5-3.3v-13.5c0-1.8,2.2-3.3,5-3.3c2.7,0,5,1.5,5,3.3v6.7c0,1.8,2.2,3.3,5,3.3c2.7,0,5-1.5,5-3.3
	v-9.9c0-1.8,2.2-3.3,5-3.3c2.7,0,5,1.5,5,3.3v6.7c0,1.8,2.2,3.3,5,3.3c2.7,0,5-1.5,5-3.3v-4.1c0-1.8,2.2-3.3,5-3.3
	c2.7,0,5,1.5,5,3.3v26c0,1.8,2.2,3.3,5,3.3c2.7,0,5-1.5,5-3.3v-25.4c0-1.8,2.2-3.3,5-3.3c2.7,0,5,1.5,5,3.3v7.5c0,1.8,2.2,3.3,5,3.3
	c2.7,0,5-1.5,5-3.3v-12.7c0-1.8,2.2-3.3,5-3.3c2.7,0,5,1.5,5,3.3v6.7c0,1.8,2.2,3.3,5,3.3c2.7,0,5-1.5,5-3.3v-9.7
	c0-1.8,2.2-3.3,5-3.3c2.7,0,5,1.5,5,3.3v6.7c0,1.8,2.2,3.3,5,3.3s5-1.5,5-3.3v-4.1c0-1.8,2.2-3.3,5-3.3c2.7,0,5,1.5,5,3.3v26
	c0,1.8,2.2,3.3,5,3.3s5-1.5,5-3.3v-25.4c0-1.8,2.2-3.3,5-3.3c2.7,0,5,1.5,5,3.3v18c0,1.8,2.2,3.3,5,3.3s5-1.5,5-3.3v-13
	c0-1.8,2.2-3.3,5-3.3c2.7,0,5,1.5,5,3.3v6.7c0,1.8,2.2,3.3,5,3.3s5-1.5,5-3.3V110c0-1.8,2.2-3.3,5-3.3c2.7,0,5,1.5,5,3.3v6.7
	c0,1.8,2.2,3.3,5,3.3s5-1.5,5-3.3v-4.1c0-1.8,2.2-3.3,5-3.3c2.7,0,5,1.5,5,3.3v26c0,1.8,2.2,3.3,5,3.3s5-1.5,5-3.3v-25.4
	c0-1.8,2.2-3.3,5-3.3c2.7,0,5,1.5,5,3.3v-18v-1.1v-2.2v-9.4v-3.3V58H640z"/>
<path class="st2" d="M640,19L640,19H0v36.5v22.1c0,2.1,2.2,3.9,5,3.9s5-1.7,5-3.9V76c0-2.1,2.2-3.9,5-3.9s5,1.7,5,3.9v14.9
	c0,2.1,2.2,3.9,5,3.9s5-1.7,5-3.9V72.4c0-2.1,2.2-3.9,5-3.9s5,1.7,5,3.9v7.9c0,2.1,2.2,3.9,5,3.9s5-1.7,5-3.9v-4.9
	c0-2.1,2.2-3.9,5-3.9s5,1.7,5,3.9v17c0,2.1,2.2,3.9,5,3.9c2.7,0,5-1.7,5-3.9V73.9c0-2.1,2.2-3.9,5-3.9s5,1.7,5,3.9v3.9
	c0,2.1,2.2,3.9,5,3.9s5-1.7,5-3.9v-1.7c0-2.1,2.2-3.9,5-3.9s5,1.7,5,3.9V91c0,2.1,2.2,3.9,5,3.9s5-1.7,5-3.9V72.5
	c0-2.1,2.2-3.9,5-3.9s5,1.7,5,3.9v7.9c0,2.1,2.2,3.9,5,3.9s5-1.7,5-3.9v-4.9c0-2.1,2.2-3.9,5-3.9c2.7,0,5,1.7,5,3.9v17
	c0,2.1,2.2,3.9,5,3.9c2.7,0,5-1.7,5-3.9V74c0-2.1,2.2-3.9,5-3.9c2.7,0,5,1.7,5,3.9v3.9c0,2.1,2.2,3.9,5,3.9c2.7,0,5-1.7,5-3.9v-1.7
	c0-2.1,2.2-3.9,5-3.9c2.7,0,5,1.7,5,3.9v14.9c0,2.1,2.2,3.9,5,3.9c2.7,0,5-1.7,5-3.9V72.6c0-2.1,2.2-3.9,5-3.9s5,1.7,5,3.9v7.9
	c0,2.1,2.2,3.9,5,3.9s5-1.7,5-3.9v-4.9c0-2.1,2.2-3.9,5-3.9c2.7,0,5,1.7,5,3.9v17c0,2.1,2.2,3.9,5,3.9c2.7,0,5-1.7,5-3.9V74.1
	c0-2.1,2.2-3.9,5-3.9c2.7,0,5,1.7,5,3.9V78c0,2.1,2.2,3.9,5,3.9c2.7,0,5-1.7,5-3.9v-1.7c0-2.1,2.2-3.9,5-3.9c2.7,0,5,1.7,5,3.9v14.9
	c0,2.1,2.2,3.9,5,3.9c2.7,0,5-1.7,5-3.9V72.7c0-2.1,2.2-3.9,5-3.9c2.7,0,5,1.7,5,3.9v7.9c0,2.1,2.2,3.9,5,3.9c2.7,0,5-1.7,5-3.9
	v-4.9c0-2.1,2.2-3.9,5-3.9c2.7,0,5,1.7,5,3.9v17c0,2.1,2.2,3.9,5,3.9c2.7,0,5-1.7,5-3.9V74.2c0-2.1,2.2-3.9,5-3.9c2.7,0,5,1.7,5,3.9
	v3.9c0,2.1,2.2,3.9,5,3.9c2.7,0,5-1.7,5-3.9v-1.7c0-2.1,2.2-3.9,5-3.9c2.7,0,5,1.7,5,3.9v14.9c0,2.1,2.2,3.9,5,3.9
	c2.7,0,5-1.7,5-3.9V72.8c0-2.1,2.2-3.9,5-3.9c2.7,0,5,1.7,5,3.9v7.9c0,2.1,2.2,3.9,5,3.9c2.7,0,5-1.7,5-3.9v-4.9
	c0-2.1,2.2-3.9,5-3.9c2.7,0,5,1.7,5,3.9v17c0,2.1,2.2,3.9,5,3.9c2.7,0,5-1.7,5-3.9V74.3c0-2.1,2.2-3.9,5-3.9c2.7,0,5,1.7,5,3.9v3.9
	c0,2.1,2.2,3.9,5,3.9c2.7,0,5-1.7,5-3.9v-1.7c0-2.1,2.2-3.9,5-3.9c2.7,0,5,1.7,5,3.9v14.9c0,2.1,2.2,3.9,5,3.9c2.7,0,5-1.7,5-3.9
	V72.9c0-2.1,2.2-3.9,5-3.9c2.7,0,5,1.7,5,3.9v7.9c0,2.1,2.2,3.9,5,3.9c2.7,0,5-1.7,5-3.9v-4.9c0-2.1,2.2-3.9,5-3.9
	c2.7,0,5,1.7,5,3.9v17c0,2.1,2.2,3.9,5,3.9c2.7,0,5-1.7,5-3.9V74.4c0-2.1,2.2-3.9,5-3.9c2.7,0,5,1.7,5,3.9v3.9c0,2.1,2.2,3.9,5,3.9
	c2.7,0,5-1.7,5-3.9v-1.7c0-2.1,2.2-3.9,5-3.9c2.7,0,5,1.7,5,3.9v14.9c0,2.1,2.2,3.9,5,3.9c2.7,0,5-1.7,5-3.9V73c0-2.1,2.2-3.9,5-3.9
	s5,1.7,5,3.9v7.9c0,2.1,2.2,3.9,5,3.9s5-1.7,5-3.9V76c0-2.1,2.2-3.9,5-3.9s5,1.7,5,3.9v17c0,2.1,2.2,3.9,5,3.9s5-1.7,5-3.9V74.5
	c0-2.1,2.2-3.9,5-3.9s5,1.7,5,3.9v3.9c0,2.1,2.2,3.9,5,3.9s5-1.7,5-3.9v-1.7c0-2.1,2.2-3.9,5-3.9s5,1.7,5,3.9v14.9
	c0,2.1,2.2,3.9,5,3.9s5-1.7,5-3.9V73.1c0-2.1,2.2-3.9,5-3.9s5,1.7,5,3.9V81c0,2.1,2.2,3.9,5,3.9s5-1.7,5-3.9v-4.9
	c0-2.1,2.2-3.9,5-3.9s5,1.7,5,3.9v17c0,2.1,2.2,3.9,5,3.9s5-1.7,5-3.9V74.6c0-2.1,2.2-3.9,5-3.9s5,1.7,5,3.9v3c0,2.1,2.2,3.9,5,3.9
	s5-1.7,5-3.9V76c0-2.1,2.2-3.9,5-3.9s5,1.7,5,3.9v14.9c0,2.1,2.2,3.9,5,3.9s5-1.7,5-3.9V72.4c0-2.1,2.2-3.9,5-3.9s5,1.7,5,3.9v7.9
	c0,2.1,2.2,3.9,5,3.9s5-1.7,5-3.9v-4.9c0-2.1,2.2-3.9,5-3.9s5,1.7,5,3.9v17c0,2.1,2.2,3.9,5,3.9c2.7,0,5-1.7,5-3.9V73.9
	c0-2.1,2.2-3.9,5-3.9s5,1.7,5,3.9v3.9c0,2.1,2.2,3.9,5,3.9s5-1.7,5-3.9v-1.7c0-2.1,2.2-3.9,5-3.9s5,1.7,5,3.9V91
	c0,2.1,2.2,3.9,5,3.9s5-1.7,5-3.9V72.5c0-2.1,2.2-3.9,5-3.9s5,1.7,5,3.9v7.9c0,2.1,2.2,3.9,5,3.9s5-1.7,5-3.9v-4.9
	c0-2.1,2.2-3.9,5-3.9c2.7,0,5,1.7,5,3.9v17c0,2.1,2.2,3.9,5,3.9c2.7,0,5-1.7,5-3.9V74c0-2.1,2.2-3.9,5-3.9c2.7,0,5,1.7,5,3.9v3.9
	c0,2.1,2.2,3.9,5,3.9c2.7,0,5-1.7,5-3.9v-1.7c0-2.1,2.2-3.9,5-3.9c2.7,0,5,1.7,5,3.9v14.9c0,2.1,2.2,3.9,5,3.9c2.7,0,5-1.7,5-3.9
	V72.6c0-2.1,2.2-3.9,5-3.9s5,1.7,5,3.9v7.9c0,2.1,2.2,3.9,5,3.9s5-1.7,5-3.9v-4.9c0-2.1,2.2-3.9,5-3.9c2.7,0,5,1.7,5,3.9v17
	c0,2.1,2.2,3.9,5,3.9c2.7,0,5-1.7,5-3.9V74.1c0-2.1,2.2-3.9,5-3.9c2.7,0,5,1.7,5,3.9V78c0,2.1,2.2,3.9,5,3.9c2.7,0,5-1.7,5-3.9v-1.7
	c0-2.1,2.2-3.9,5-3.9c2.7,0,5,1.7,5,3.9v14.9c0,2.1,2.2,3.9,5,3.9c2.7,0,5-1.7,5-3.9V72.7c0-2.1,2.2-3.9,5-3.9c2.7,0,5,1.7,5,3.9
	v7.9c0,2.1,2.2,3.9,5,3.9c2.7,0,5-1.7,5-3.9v-4.9c0-2.1,2.2-3.9,5-3.9c2.7,0,5,1.7,5,3.9v17c0,2.1,2.2,3.9,5,3.9c2.7,0,5-1.7,5-3.9
	V74.2c0-2.1,2.2-3.9,5-3.9c2.7,0,5,1.7,5,3.9v3.9c0,2.1,2.2,3.9,5,3.9c2.7,0,5-1.7,5-3.9v-1.7c0-2.1,2.2-3.9,5-3.9
	c2.7,0,5,1.7,5,3.9v14.9c0,2.1,2.2,3.9,5,3.9c2.7,0,5-1.7,5-3.9V72.8c0-2.1,2.2-3.9,5-3.9c2.7,0,5,1.7,5,3.9v7.9
	c0,2.1,2.2,3.9,5,3.9c2.7,0,5-1.7,5-3.9v-4.9c0-2.1,2.2-3.9,5-3.9c2.7,0,5,1.7,5,3.9v17c0,2.1,2.2,3.9,5,3.9c2.7,0,5-1.7,5-3.9V74.3
	c0-2.1,2.2-3.9,5-3.9c2.7,0,5,1.7,5,3.9v3.9c0,2.1,2.2,3.9,5,3.9c2.7,0,5-1.7,5-3.9v-1.7c0-2.1,2.2-3.9,5-3.9c2.7,0,5,1.7,5,3.9
	v14.9c0,2.1,2.2,3.9,5,3.9c2.7,0,5-1.7,5-3.9V72.9c0-2.1,2.2-3.9,5-3.9c2.7,0,5,1.7,5,3.9v7.9c0,2.1,2.2,3.9,5,3.9
	c2.7,0,5-1.7,5-3.9v-4.9c0-2.1,2.2-3.9,5-3.9c2.7,0,5,1.7,5,3.9v17c0,2.1,2.2,3.9,5,3.9c2.7,0,5-1.7,5-3.9V74.4c0-2.1,2.2-3.9,5-3.9
	c2.7,0,5,1.7,5,3.9v3.9c0,2.1,2.2,3.9,5,3.9c2.7,0,5-1.7,5-3.9v-1.7c0-2.1,2.2-3.9,5-3.9c2.7,0,5,1.7,5,3.9v14.9
	c0,2.1,2.2,3.9,5,3.9c2.7,0,5-1.7,5-3.9V73c0-2.1,2.2-3.9,5-3.9s5,1.7,5,3.9v7.9c0,2.1,2.2,3.9,5,3.9s5-1.7,5-3.9V76
	c0-2.1,2.2-3.9,5-3.9s5,1.7,5,3.9v17c0,2.1,2.2,3.9,5,3.9s5-1.7,5-3.9V74.5c0-2.1,2.2-3.9,5-3.9s5,1.7,5,3.9v3.9
	c0,2.1,2.2,3.9,5,3.9s5-1.7,5-3.9v-1.7c0-2.1,2.2-3.9,5-3.9s5,1.7,5,3.9v14.9c0,2.1,2.2,3.9,5,3.9s5-1.7,5-3.9V73.1
	c0-2.1,2.2-3.9,5-3.9s5,1.7,5,3.9V81c0,2.1,2.2,3.9,5,3.9s5-1.7,5-3.9v-4.9c0-2.1,2.2-3.9,5-3.9s5,1.7,5,3.9v17c0,2.1,2.2,3.9,5,3.9
	s5-1.7,5-3.9V74.6c0-2.1,2.2-3.9,5-3.9s5,1.7,5,3.9v-19V19.1L640,19z"/>
<path class="st3" d="M0,2.2v7.4v42.8c0,2.6,2.2,4.9,5,4.9c2.7,0,5-2.2,5-4.9V33.6c0-2.6,2.2-4.9,5-4.9c2.7,0,5,2.2,5,4.9v9.8
	c0,2.6,2.2,4.9,5,4.9c2.7,0,5-2.2,5-4.9V29.2c0-2.6,2.2-4.9,5-4.9c2.7,0,5,2.2,5,4.9V39c0,2.6,2.2,4.9,5,4.9c2.7,0,5-2.2,5-4.9v-6.1
	c0-2.6,2.2-4.9,5-4.9c2.7,0,5,2.2,5,4.9V71c0,2.6,2.2,4.9,5,4.9c2.7,0,5-2.2,5-4.9V33.4c0-2.6,2.2-4.9,5-4.9c2.7,0,5,2.2,5,4.9v26.5
	c0,2.6,2.2,4.9,5,4.9c2.7,0,5-2.2,5-4.9V41.2c0-2.6,2.2-4.9,5-4.9c2.7,0,5,2.2,5,4.9V51c0,2.6,2.2,4.9,5,4.9c2.7,0,5-2.2,5-4.9V36.8
	c0-2.6,2.2-4.9,5-4.9c2.7,0,5,2.2,5,4.9v9.8c0,2.6,2.2,4.9,5,4.9c2.7,0,5-2.2,5-4.9v-6.1c0-2.6,2.2-4.9,5-4.9c2.7,0,5,2.2,5,4.9
	v38.2c0,2.6,2.2,4.9,5,4.9c2.7,0,5-2.2,5-4.9V41.2c0-2.6,2.2-4.9,5-4.9c2.7,0,5,2.2,5,4.9v11c0,2.6,2.2,4.9,5,4.9c2.7,0,5-2.2,5-4.9
	V33.4c0-2.6,2.2-4.9,5-4.9c2.7,0,5,2.2,5,4.9v9.8c0,2.6,2.2,4.9,5,4.9c2.7,0,5-2.2,5-4.9V29c0-2.6,2.2-4.9,5-4.9c2.7,0,5,2.2,5,4.9
	v9.8c0,2.6,2.2,4.9,5,4.9c2.7,0,5-2.2,5-4.9v-6.1c0-2.6,2.2-4.9,5-4.9c2.7,0,5,2.2,5,4.9V71c0,2.6,2.2,4.9,5,4.9c2.7,0,5-2.2,5-4.9
	V33.4c0-2.6,2.2-4.9,5-4.9c2.7,0,5,2.2,5,4.9v26.5c0,2.6,2.2,4.9,5,4.9c2.7,0,5-2.2,5-4.9V41.2c0-2.6,2.2-4.9,5-4.9
	c2.7,0,5,2.2,5,4.9V51c0,2.6,2.2,4.9,5,4.9c2.7,0,5-2.2,5-4.9V36.8c0-2.6,2.2-4.9,5-4.9c2.7,0,5,2.2,5,4.9v9.8c0,2.6,2.2,4.9,5,4.9
	c2.7,0,5-2.2,5-4.9v-6.1c0-2.6,2.2-4.9,5-4.9c2.7,0,5,2.2,5,4.9v38.2c0,2.6,2.2,4.9,5,4.9c2.7,0,5-2.2,5-4.9V41.2
	c0-2.6,2.2-4.9,5-4.9c2.7,0,5,2.2,5,4.9v24.4c0,2.6,2.2,4.9,5,4.9c2.7,0,5-2.2,5-4.9V47c0-2.6,2.2-4.9,5-4.9c2.7,0,5,2.2,5,4.9v9.8
	c0,2.6,2.2,4.9,5,4.9c2.7,0,5-2.2,5-4.9V42.6c0-2.6,2.2-4.9,5-4.9c2.7,0,5,2.2,5,4.9v9.8c0,2.6,2.2,4.9,5,4.9c2.7,0,5-2.2,5-4.9
	v-6.1c0-2.6,2.2-4.9,5-4.9c2.7,0,5,2.2,5,4.9v38.2c0,2.6,2.2,4.9,5,4.9c2.7,0,5-2.2,5-4.9V47c0-2.6,2.2-4.9,5-4.9c2.7,0,5,2.2,5,4.9
	v26.5c0,2.6,2.2,4.9,5,4.9c2.7,0,5-2.2,5-4.9V54.8c0-2.6,2.2-4.9,5-4.9c2.7,0,5,2.2,5,4.9v9.8c0,2.6,2.2,4.9,5,4.9
	c2.7,0,5-2.2,5-4.9V50.1c0-2.6,2.2-4.9,5-4.9c2.7,0,5,2.2,5,4.9v9.8c0,2.6,2.2,4.9,5,4.9c2.7,0,5-2.2,5-4.9v-6.1
	c0-2.6,2.2-4.9,5-4.9c2.7,0,5,2.2,5,4.9V92c0,2.6,2.2,4.9,5,4.9c2.7,0,5-2.2,5-4.9V54.5c0-2.6,2.2-4.9,5-4.9c2.7,0,5,2.2,5,4.9v11
	c0,2.6,2.2,4.9,5,4.9c2.7,0,5-2.2,5-4.9V46.8c0-2.6,2.2-4.9,5-4.9c2.7,0,5,2.2,5,4.9v9.8c0,2.6,2.2,4.9,5,4.9c2.7,0,5-2.2,5-4.9
	V42.4c0-2.6,2.2-4.9,5-4.9c2.7,0,5,2.2,5,4.9v9.8c0,2.6,2.2,4.9,5,4.9c2.7,0,5-2.2,5-4.9v-6.1c0-2.6,2.2-4.9,5-4.9
	c2.7,0,5,2.2,5,4.9v38.2c0,2.6,2.2,4.9,5,4.9c2.7,0,5-2.2,5-4.9V47c0-2.6,2.2-4.9,5-4.9c2.7,0,5,2.2,5,4.9v26.5c0,2.6,2.2,4.9,5,4.9
	c2.7,0,5-2.2,5-4.9V54.8c0-2.6,2.2-4.9,5-4.9c2.7,0,5,2.2,5,4.9v9.8c0,2.6,2.2,4.9,5,4.9c2.7,0,5-2.2,5-4.9V50.2
	c0-2.6,2.2-4.9,5-4.9c2.7,0,5,2.2,5,4.9V60c0,2.6,2.2,4.9,5,4.9c2.7,0,5-2.2,5-4.9v-6.1c0-2.6,2.2-4.9,5-4.9c2.7,0,5,2.2,5,4.9v38.2
	c0,2.6,2.2,4.9,5,4.9c2.7,0,5-2.2,5-4.9V54.6c0-2.6,2.2-4.9,5-4.9c2.7,0,5,2.2,5,4.9v-2.2c0,2.6,2.2,4.9,5,4.9c2.7,0,5-2.2,5-4.9
	V33.6c0-2.6,2.2-4.9,5-4.9c2.7,0,5,2.2,5,4.9v9.8c0,2.6,2.2,4.9,5,4.9c2.7,0,5-2.2,5-4.9V29.2c0-2.6,2.2-4.9,5-4.9
	c2.7,0,5,2.2,5,4.9V39c0,2.6,2.2,4.9,5,4.9c2.7,0,5-2.2,5-4.9v-6.1c0-2.6,2.2-4.9,5-4.9c2.7,0,5,2.2,5,4.9V71c0,2.6,2.2,4.9,5,4.9
	c2.7,0,5-2.2,5-4.9V33.4c0-2.6,2.2-4.9,5-4.9c2.7,0,5,2.2,5,4.9v26.5c0,2.6,2.2,4.9,5,4.9c2.7,0,5-2.2,5-4.9V41.2
	c0-2.6,2.2-4.9,5-4.9c2.7,0,5,2.2,5,4.9V51c0,2.6,2.2,4.9,5,4.9c2.7,0,5-2.2,5-4.9V36.8c0-2.6,2.2-4.9,5-4.9c2.7,0,5,2.2,5,4.9v9.8
	c0,2.6,2.2,4.9,5,4.9c2.7,0,5-2.2,5-4.9v-6.1c0-2.6,2.2-4.9,5-4.9c2.7,0,5,2.2,5,4.9v38.2c0,2.6,2.2,4.9,5,4.9c2.7,0,5-2.2,5-4.9
	V41.2c0-2.6,2.2-4.9,5-4.9c2.7,0,5,2.2,5,4.9v11c0,2.6,2.2,4.9,5,4.9c2.7,0,5-2.2,5-4.9V33.4c0-2.6,2.2-4.9,5-4.9c2.7,0,5,2.2,5,4.9
	v9.8c0,2.6,2.2,4.9,5,4.9c2.7,0,5-2.2,5-4.9V29c0-2.6,2.2-4.9,5-4.9c2.7,0,5,2.2,5,4.9v9.8c0,2.6,2.2,4.9,5,4.9c2.7,0,5-2.2,5-4.9
	v-6.1c0-2.6,2.2-4.9,5-4.9c2.7,0,5,2.2,5,4.9V71c0,2.6,2.2,4.9,5,4.9c2.7,0,5-2.2,5-4.9V33.4c0-2.6,2.2-4.9,5-4.9c2.7,0,5,2.2,5,4.9
	v26.5c0,2.6,2.2,4.9,5,4.9c2.7,0,5-2.2,5-4.9V41.2c0-2.6,2.2-4.9,5-4.9c2.7,0,5,2.2,5,4.9V51c0,2.6,2.2,4.9,5,4.9c2.7,0,5-2.2,5-4.9
	V36.8c0-2.6,2.2-4.9,5-4.9c2.7,0,5,2.2,5,4.9v9.8c0,2.6,2.2,4.9,5,4.9c2.7,0,5-2.2,5-4.9v-6.1c0-2.6,2.2-4.9,5-4.9
	c2.7,0,5,2.2,5,4.9v38.2c0,2.6,2.2,4.9,5,4.9c2.7,0,5-2.2,5-4.9V41.2c0-2.6,2.2-4.9,5-4.9c2.7,0,5,2.2,5,4.9v24.4
	c0,2.6,2.2,4.9,5,4.9c2.7,0,5-2.2,5-4.9V47c0-2.6,2.2-4.9,5-4.9c2.7,0,5,2.2,5,4.9v9.8c0,2.6,2.2,4.9,5,4.9c2.7,0,5-2.2,5-4.9V42.6
	c0-2.6,2.2-4.9,5-4.9c2.7,0,5,2.2,5,4.9v9.8c0,2.6,2.2,4.9,5,4.9c2.7,0,5-2.2,5-4.9v-6.1c0-2.6,2.2-4.9,5-4.9c2.7,0,5,2.2,5,4.9
	v38.2c0,2.6,2.2,4.9,5,4.9c2.7,0,5-2.2,5-4.9V47c0-2.6,2.2-4.9,5-4.9c2.7,0,5,2.2,5,4.9v26.5c0,2.6,2.2,4.9,5,4.9c2.7,0,5-2.2,5-4.9
	V54.8c0-2.6,2.2-4.9,5-4.9c2.7,0,5,2.2,5,4.9v9.8c0,2.6,2.2,4.9,5,4.9c2.7,0,5-2.2,5-4.9V50.1c0-2.6,2.2-4.9,5-4.9
	c2.7,0,5,2.2,5,4.9v9.8c0,2.6,2.2,4.9,5,4.9c2.7,0,5-2.2,5-4.9v-6.1c0-2.6,2.2-4.9,5-4.9c2.7,0,5,2.2,5,4.9V92c0,2.6,2.2,4.9,5,4.9
	c2.7,0,5-2.2,5-4.9V54.5c0-2.6,2.2-4.9,5-4.9c2.7,0,5,2.2,5,4.9v11c0,2.6,2.2,4.9,5,4.9c2.7,0,5-2.2,5-4.9V46.8c0-2.6,2.2-4.9,5-4.9
	c2.7,0,5,2.2,5,4.9v9.8c0,2.6,2.2,4.9,5,4.9c2.7,0,5-2.2,5-4.9V42.4c0-2.6,2.2-4.9,5-4.9c2.7,0,5,2.2,5,4.9v9.8c0,2.6,2.2,4.9,5,4.9
	c2.7,0,5-2.2,5-4.9v-6.1c0-2.6,2.2-4.9,5-4.9c2.7,0,5,2.2,5,4.9v38.2c0,2.6,2.2,4.9,5,4.9c2.7,0,5-2.2,5-4.9V47c0-2.6,2.2-4.9,5-4.9
	c2.7,0,5,2.2,5,4.9v26.5c0,2.6,2.2,4.9,5,4.9c2.7,0,5-2.2,5-4.9V54.8c0-2.6,2.2-4.9,5-4.9c2.7,0,5,2.2,5,4.9v9.8
	c0,2.6,2.2,4.9,5,4.9c2.7,0,5-2.2,5-4.9V50.2c0-2.6,2.2-4.9,5-4.9c2.7,0,5,2.2,5,4.9V60c0,2.6,2.2,4.9,5,4.9c2.7,0,5-2.2,5-4.9v-6.1
	c0-2.6,2.2-4.9,5-4.9c2.7,0,5,2.2,5,4.9v38.2c0,2.6,2.2,4.9,5,4.9c2.7,0,5-2.2,5-4.9V54.6c0-2.6,2.2-4.9,5-4.9c2.7,0,5,2.2,5,4.9
	V28.1v-1.6v-3.2V9.5V4.6V0H0V2.2z"/>
</svg>
