<?xml version="1.0" encoding="utf-8"?>
<!-- Generator: Adobe Illustrator 22.0.1, SVG Export Plug-In . SVG Version: 6.00 Build 0)  -->
<svg version="1.1" id="Layer_1" xmlns="http://www.w3.org/2000/svg" xmlns:xlink="http://www.w3.org/1999/xlink" x="0px" y="0px"
	 viewBox="0 0 1303 863" style="enable-background:new 0 0 1303 863;" xml:space="preserve">
<style type="text/css">
	.st0{fill:#3C3B60;}
</style>
<g id="Layer_1_1_">
</g>
<g>
	<path class="st0" d="M820.2,115.7c0-0.3,0-0.7-0.1-1h14.7c2.9,0,5.3-2.4,5.3-5.3s-2.4-5.3-5.3-5.3h-42.5c-2.9,0-5.3,2.4-5.3,5.3
		H686.7c-2.8,0-5,2.8-5,6.3s2.3,6.3,5,6.3h128.5C817.9,122,820.2,119.2,820.2,115.7z"/>
	<path class="st0" d="M898.4,111.2c4.1,0,7.4-3.3,7.4-7.4s-3.3-7.4-7.4-7.4H891c0-1.4-0.5-2.7-1.3-3.7c2.5-1.2,4.3-3.8,4.3-6.8
		c0-4.1-3.4-7.5-7.5-7.5h-122c-4.1,0-7.5,3.4-7.5,7.5s3.4,7.5,7.5,7.5h75.3c-0.5,0.9-0.8,1.9-0.8,3c0,3.3,2.7,6,6,6h27.3
		c-0.1,0.4-0.1,0.9-0.1,1.4c0,4.1,3.3,7.4,7.4,7.4H898.4z"/>
	<path class="st0" d="M845.3,140.7h1c3.8,0,7-3.2,7-7s-3.2-7-7-7h-9.5c-3.8,0-7,3.2-7,7c0,0.3,0,0.7,0.1,1h-18.6c0-3.3-2.7-6-6-6
		H793c-3.3,0-6,2.7-6,6s2.7,6,6,6h2.8c0,3.3,2.7,6,6,6h37.5C842.6,146.7,845.3,144,845.3,140.7z"/>
	<path class="st0" d="M768.2,182.2h-45.7c-2.8,0-5,2.3-5,5s2.3,5,5,5h45.7c2.8,0,5-2.3,5-5S770.9,182.2,768.2,182.2z"/>
	<path class="st0" d="M1001.7,130.2h35.5c4,0,7.3-3.3,7.3-7.3s-3.3-7.3-7.3-7.3h-35.5c-4,0-7.3,3.3-7.3,7.3
		S997.7,130.2,1001.7,130.2z"/>
	<path class="st0" d="M862.7,186.3h-25.5c-4.8,0-8.8,3.9-8.8,8.8s3.9,8.8,8.8,8.8h25.5c4.8,0,8.8-3.9,8.8-8.8
		S867.5,186.3,862.7,186.3z"/>
	<path class="st0" d="M937.7,142.4h-7.4c0-3.3-2.7-6-6-6h-40c-3.3,0-6,2.7-6,6s2.7,6,6,6h27.3c-0.1,0.4-0.1,0.9-0.1,1.4
		c0,4.1,3.3,7.4,7.4,7.4h18.8c4.1,0,7.4-3.3,7.4-7.4S941.7,142.4,937.7,142.4z"/>
	<path class="st0" d="M986.1,56.6H950c0.1-0.5,0.2-1,0.2-1.5c0-0.2,0-0.5,0-0.7h0.1c3,0,5.5-2.5,5.5-5.5s-2.5-5.5-5.5-5.5h-58
		c-3,0-5.5,2.5-5.5,5.5s2.5,5.5,5.5,5.5h18c0,0.2,0,0.5,0,0.7c0,3.8,3.1,7,7,7h5.4c0,3,2.5,5.5,5.5,5.5h58c3,0,5.5-2.5,5.5-5.5
		S989.2,56.6,986.1,56.6z"/>
	<path class="st0" d="M1099.3,164.2h-35.8c0-0.9-0.2-1.7-0.6-2.5h23.4c3,0,5.5-2.5,5.5-5.5s-2.5-5.5-5.5-5.5h-58
		c-3,0-5.5,2.5-5.5,5.5c0,0.9,0.2,1.7,0.6,2.5H1000c-3,0-5.5,2.5-5.5,5.5s2.5,5.5,5.5,5.5h35.8c0,3,2.5,5.5,5.5,5.5h58
		c3,0,5.5-2.5,5.5-5.5S1102.3,164.2,1099.3,164.2z"/>
	<path class="st0" d="M746.7,47.9h22.8c0.1,3.7,3.2,6.8,7,6.8h26c3.8,0,7-3.2,7-7s-3.2-7-7-7h-13c0-4-3.3-7.3-7.3-7.3h-35.5
		c-4,0-7.3,3.3-7.3,7.3S742.7,47.9,746.7,47.9z"/>
</g>
<g>
	<path class="st0" d="M994.6,326.8c0-0.3,0-0.7-0.1-1h14.7c2.9,0,5.3-2.4,5.3-5.3s-2.4-5.3-5.3-5.3h-42.5c-2.9,0-5.3,2.4-5.3,5.3
		H861.1c-2.8,0-5,2.8-5,6.3s2.3,6.3,5,6.3h128.5C992.3,333,994.6,330.2,994.6,326.8z"/>
	<path class="st0" d="M1072.8,322.2c4.1,0,7.4-3.3,7.4-7.4s-3.3-7.4-7.4-7.4h-7.4c0-1.4-0.5-2.7-1.3-3.7c2.5-1.2,4.3-3.8,4.3-6.8
		c0-4.1-3.4-7.5-7.5-7.5H939c-4.1,0-7.5,3.4-7.5,7.5s3.4,7.5,7.5,7.5h75.3c-0.5,0.9-0.8,1.9-0.8,3c0,3.3,2.7,6,6,6h27.3
		c-0.1,0.4-0.1,0.9-0.1,1.4c0,4.1,3.3,7.4,7.4,7.4H1072.8z"/>
	<path class="st0" d="M1019.7,351.8h1c3.8,0,7-3.2,7-7s-3.2-7-7-7h-9.5c-3.8,0-7,3.2-7,7c0,0.3,0,0.7,0.1,1h-18.6c0-3.3-2.7-6-6-6
		h-12.3c-3.3,0-6,2.7-6,6s2.7,6,6,6h2.8c0,3.3,2.7,6,6,6h37.5C1017,357.8,1019.7,355.1,1019.7,351.8z"/>
	<path class="st0" d="M942.6,393.3h-45.7c-2.8,0-5,2.3-5,5s2.3,5,5,5h45.7c2.8,0,5-2.3,5-5S945.3,393.3,942.6,393.3z"/>
	<path class="st0" d="M1176.1,341.3h35.5c4,0,7.3-3.3,7.3-7.3s-3.3-7.3-7.3-7.3h-35.5c-4,0-7.3,3.3-7.3,7.3
		S1172.1,341.3,1176.1,341.3z"/>
	<path class="st0" d="M1037.1,397.4h-25.5c-4.8,0-8.8,3.9-8.8,8.8s3.9,8.8,8.8,8.8h25.5c4.8,0,8.8-3.9,8.8-8.8
		S1041.9,397.4,1037.1,397.4z"/>
	<path class="st0" d="M1112.1,353.4h-7.4c0-3.3-2.7-6-6-6h-40c-3.3,0-6,2.7-6,6s2.7,6,6,6h27.3c-0.1,0.4-0.1,0.9-0.1,1.4
		c0,4.1,3.3,7.4,7.4,7.4h18.8c4.1,0,7.4-3.3,7.4-7.4S1116.1,353.4,1112.1,353.4z"/>
	<path class="st0" d="M1160.5,267.7h-36.1c0.1-0.5,0.2-1,0.2-1.5c0-0.2,0-0.5,0-0.7h0.1c3,0,5.5-2.5,5.5-5.5s-2.5-5.5-5.5-5.5h-58
		c-3,0-5.5,2.5-5.5,5.5s2.5,5.5,5.5,5.5h18c0,0.2,0,0.5,0,0.7c0,3.8,3.1,7,7,7h5.4c0,3,2.5,5.5,5.5,5.5h58c3,0,5.5-2.5,5.5-5.5
		S1163.6,267.7,1160.5,267.7z"/>
	<path class="st0" d="M1273.7,375.3h-35.8c0-0.9-0.2-1.7-0.6-2.5h23.4c3,0,5.5-2.5,5.5-5.5s-2.5-5.5-5.5-5.5h-58
		c-3,0-5.5,2.5-5.5,5.5c0,0.9,0.2,1.7,0.6,2.5h-23.4c-3,0-5.5,2.5-5.5,5.5s2.5,5.5,5.5,5.5h35.8c0,3,2.5,5.5,5.5,5.5h58
		c3,0,5.5-2.5,5.5-5.5S1276.7,375.3,1273.7,375.3z"/>
	<path class="st0" d="M921.1,259h22.8c0.1,3.7,3.2,6.8,7,6.8h26c3.8,0,7-3.2,7-7c0-3.8-3.2-7-7-7h-13c0-4-3.3-7.3-7.3-7.3h-35.5
		c-4,0-7.3,3.3-7.3,7.3S917.1,259,921.1,259z"/>
</g>
<path class="st0" d="M1021.8,526.1c0-0.3,0-0.7,0.1-1h-14.7c-2.9,0-5.3-2.4-5.3-5.3s2.4-5.3,5.3-5.3h42.5c2.9,0,5.3,2.4,5.3,5.3
	h100.3c2.8,0,5,2.8,5,6.3s-2.3,6.3-5,6.3h-128.5C1024.1,532.3,1021.8,529.5,1021.8,526.1z"/>
<path class="st0" d="M943.5,521.5c-4.1,0-7.4-3.3-7.4-7.4c0-4.1,3.3-7.4,7.4-7.4h7.4c0-1.4,0.5-2.7,1.3-3.7
	c-2.5-1.2-4.3-3.8-4.3-6.8c0-4.1,3.4-7.5,7.5-7.5h122c4.1,0,7.5,3.4,7.5,7.5s-3.4,7.5-7.5,7.5h-75.3c0.5,0.9,0.8,1.9,0.8,3
	c0,3.3-2.7,6-6,6h-27.3c0.1,0.4,0.1,0.9,0.1,1.4c0,4.1-3.3,7.4-7.4,7.4H943.5z"/>
<path class="st0" d="M996.6,551.1h-1c-3.8,0-7-3.2-7-7s3.2-7,7-7h9.5c3.8,0,7,3.2,7,7c0,0.3,0,0.7-0.1,1h18.6c0-3.3,2.7-6,6-6h12.4
	c3.3,0,6,2.7,6,6s-2.7,6-6,6h-2.8c0,3.3-2.7,6-6,6h-37.5C999.3,557.1,996.6,554.4,996.6,551.1z"/>
<path class="st0" d="M1073.8,592.6h45.7c2.8,0,5,2.3,5,5s-2.3,5-5,5h-45.7c-2.8,0-5-2.3-5-5S1071.1,592.6,1073.8,592.6z"/>
<path class="st0" d="M840.3,540.6h-35.5c-4,0-7.3-3.3-7.3-7.3s3.3-7.3,7.3-7.3h35.5c4,0,7.3,3.3,7.3,7.3S844.3,540.6,840.3,540.6z"
	/>
<path class="st0" d="M979.3,596.6h25.5c4.8,0,8.8,3.9,8.8,8.8s-3.9,8.8-8.8,8.8h-25.5c-4.8,0-8.8-3.9-8.8-8.8
	S974.5,596.6,979.3,596.6z"/>
<path class="st0" d="M904.3,552.7h7.4c0-3.3,2.7-6,6-6h40c3.3,0,6,2.7,6,6s-2.7,6-6,6h-27.3c0.1,0.4,0.1,0.9,0.1,1.4
	c0,4.1-3.3,7.4-7.4,7.4h-18.8c-4.1,0-7.4-3.3-7.4-7.4S900.2,552.7,904.3,552.7z"/>
<path class="st0" d="M855.8,466.9h36.1c-0.1-0.5-0.2-1-0.2-1.5c0-0.2,0-0.5,0-0.7h-0.1c-3,0-5.5-2.5-5.5-5.5s2.5-5.5,5.5-5.5h58
	c3,0,5.5,2.5,5.5,5.5s-2.5,5.5-5.5,5.5h-18c0,0.2,0,0.5,0,0.7c0,3.8-3.1,7-7,7h-5.4c0,3-2.5,5.5-5.5,5.5h-58c-3,0-5.5-2.5-5.5-5.5
	S852.8,466.9,855.8,466.9z"/>
<path class="st0" d="M742.7,574.6h35.8c0-0.9,0.2-1.7,0.6-2.5h-23.4c-3,0-5.5-2.5-5.5-5.5s2.5-5.5,5.5-5.5h58c3,0,5.5,2.5,5.5,5.5
	c0,0.9-0.2,1.7-0.6,2.5H842c3,0,5.5,2.5,5.5,5.5s-2.5,5.5-5.5,5.5h-35.8c0,3-2.5,5.5-5.5,5.5h-58c-3,0-5.5-2.5-5.5-5.5
	S739.7,574.6,742.7,574.6z"/>
<path class="st0" d="M1095.3,458.2h-22.8c-0.1,3.7-3.2,6.8-7,6.8h-26c-3.8,0-7-3.2-7-7s3.2-7,7-7h13c0-4,3.3-7.3,7.3-7.3h35.5
	c4,0,7.3,3.3,7.3,7.3S1099.3,458.2,1095.3,458.2z"/>
<g>
	<path class="st0" d="M1007.7,760.6c0-0.3,0-0.7-0.1-1h14.7c2.9,0,5.3-2.4,5.3-5.3s-2.4-5.3-5.3-5.3h-42.5c-2.9,0-5.3,2.4-5.3,5.3
		H874.2c-2.8,0-5,2.8-5,6.3s2.3,6.3,5,6.3h128.5C1005.4,766.8,1007.7,764,1007.7,760.6z"/>
	<path class="st0" d="M1085.9,756c4.1,0,7.4-3.3,7.4-7.4s-3.3-7.4-7.4-7.4h-7.4c0-1.4-0.5-2.7-1.3-3.7c2.5-1.2,4.3-3.8,4.3-6.8
		c0-4.1-3.4-7.5-7.5-7.5H952c-4.1,0-7.5,3.4-7.5,7.5s3.4,7.5,7.5,7.5h75.3c-0.5,0.9-0.8,1.9-0.8,3c0,3.3,2.7,6,6,6h27.3
		c-0.1,0.4-0.1,0.9-0.1,1.4c0,4.1,3.3,7.4,7.4,7.4H1085.9z"/>
	<path class="st0" d="M1032.8,785.6h1c3.8,0,7-3.2,7-7s-3.2-7-7-7h-9.5c-3.8,0-7,3.2-7,7c0,0.3,0,0.7,0.1,1h-18.6c0-3.3-2.7-6-6-6
		h-12.3c-3.3,0-6,2.7-6,6s2.7,6,6,6h2.8c0,3.3,2.7,6,6,6h37.5C1030.1,791.6,1032.8,788.9,1032.8,785.6z"/>
	<path class="st0" d="M955.7,827.1H910c-2.8,0-5,2.3-5,5s2.3,5,5,5h45.7c2.8,0,5-2.3,5-5S958.4,827.1,955.7,827.1z"/>
	<path class="st0" d="M1189.2,775.1h35.5c4,0,7.3-3.3,7.3-7.3s-3.3-7.3-7.3-7.3h-35.5c-4,0-7.3,3.3-7.3,7.3
		S1185.2,775.1,1189.2,775.1z"/>
	<path class="st0" d="M1050.2,831.1h-25.5c-4.8,0-8.8,3.9-8.8,8.8s3.9,8.8,8.8,8.8h25.5c4.8,0,8.8-3.9,8.8-8.8
		S1055,831.1,1050.2,831.1z"/>
	<path class="st0" d="M1125.2,787.2h-7.4c0-3.3-2.7-6-6-6h-40c-3.3,0-6,2.7-6,6s2.7,6,6,6h27.3c-0.1,0.4-0.1,0.9-0.1,1.4
		c0,4.1,3.3,7.4,7.4,7.4h18.8c4.1,0,7.4-3.3,7.4-7.4S1129.2,787.2,1125.2,787.2z"/>
	<path class="st0" d="M1173.6,701.4h-36.1c0.1-0.5,0.2-1,0.2-1.5c0-0.2,0-0.5,0-0.7h0.1c3,0,5.5-2.5,5.5-5.5s-2.5-5.5-5.5-5.5h-58
		c-3,0-5.5,2.5-5.5,5.5s2.5,5.5,5.5,5.5h18c0,0.2,0,0.5,0,0.7c0,3.8,3.1,7,7,7h5.4c0,3,2.5,5.5,5.5,5.5h58c3,0,5.5-2.5,5.5-5.5
		S1176.7,701.4,1173.6,701.4z"/>
	<path class="st0" d="M1286.8,809.1H1251c0-0.9-0.2-1.7-0.6-2.5h23.4c3,0,5.5-2.5,5.5-5.5s-2.5-5.5-5.5-5.5h-58
		c-3,0-5.5,2.5-5.5,5.5c0,0.9,0.2,1.7,0.6,2.5h-23.4c-3,0-5.5,2.5-5.5,5.5s2.5,5.5,5.5,5.5h35.8c0,3,2.5,5.5,5.5,5.5h58
		c3,0,5.5-2.5,5.5-5.5S1289.8,809.1,1286.8,809.1z"/>
	<path class="st0" d="M934.2,692.7H957c0.1,3.7,3.2,6.8,7,6.8h26c3.8,0,7-3.2,7-7s-3.2-7-7-7h-13c0-4-3.3-7.3-7.3-7.3h-35.5
		c-4,0-7.3,3.3-7.3,7.3S930.2,692.7,934.2,692.7z"/>
</g>
<path class="st0" d="M592.2,822.7c0-0.3,0-0.7-0.1-1h14.7c2.9,0,5.3-2.4,5.3-5.3s-2.4-5.3-5.3-5.3h-42.5c-2.9,0-5.3,2.4-5.3,5.3
	H458.7c-2.8,0-5,2.8-5,6.3s2.3,6.3,5,6.3h128.5C589.9,829,592.2,826.2,592.2,822.7z"/>
<path class="st0" d="M828.4,836.2c4.1,0,7.4-3.3,7.4-7.4s-3.3-7.4-7.4-7.4H821c0-1.4-0.5-2.7-1.3-3.7c2.5-1.2,4.3-3.8,4.3-6.8
	c0-4.1-3.4-7.5-7.5-7.5h-122c-4.1,0-7.5,3.4-7.5,7.5s3.4,7.5,7.5,7.5h75.3c-0.5,0.9-0.8,1.9-0.8,3c0,3.3,2.7,6,6,6h27.3
	c-0.1,0.4-0.1,0.9-0.1,1.4c0,4.1,3.3,7.4,7.4,7.4H828.4z"/>
<path class="st0" d="M1280.3,505.7h1c3.8,0,7-3.2,7-7s-3.2-7-7-7h-9.5c-3.8,0-7,3.2-7,7c0,0.3,0,0.7,0.1,1h-18.6c0-3.3-2.7-6-6-6
	H1228c-3.3,0-6,2.7-6,6s2.7,6,6,6h2.8c0,3.3,2.7,6,6,6h37.5C1277.6,511.7,1280.3,509,1280.3,505.7z"/>
<path class="st0" d="M1203.2,547.2h-45.7c-2.8,0-5,2.3-5,5s2.3,5,5,5h45.7c2.8,0,5-2.3,5-5S1205.9,547.2,1203.2,547.2z"/>
<path class="st0" d="M1240.7,180.2h35.5c4,0,7.3-3.3,7.3-7.3s-3.3-7.3-7.3-7.3h-35.5c-4,0-7.3,3.3-7.3,7.3
	S1236.7,180.2,1240.7,180.2z"/>
<path class="st0" d="M1201.7,193.4h-7.4c0-3.3-2.7-6-6-6h-40c-3.3,0-6,2.7-6,6s2.7,6,6,6h27.3c-0.1,0.4-0.1,0.9-0.1,1.4
	c0,4.1,3.3,7.4,7.4,7.4h18.8c4.1,0,7.4-3.3,7.4-7.4S1205.7,193.4,1201.7,193.4z"/>
<path class="st0" d="M1250.1,107.6H1214c0.1-0.5,0.2-1,0.2-1.5c0-0.2,0-0.5,0-0.7h0.1c3,0,5.5-2.5,5.5-5.5s-2.5-5.5-5.5-5.5h-58
	c-3,0-5.5,2.5-5.5,5.5s2.5,5.5,5.5,5.5h18c0,0.2,0,0.5,0,0.7c0,3.8,3.1,7,7,7h5.4c0,3,2.5,5.5,5.5,5.5h58c3,0,5.5-2.5,5.5-5.5
	S1253.2,107.6,1250.1,107.6z"/>
<path class="st0" d="M760.7,677.9h22.8c0.1,3.7,3.2,6.8,7,6.8h26c3.8,0,7-3.2,7-7s-3.2-7-7-7h-13c0-4-3.3-7.3-7.3-7.3h-35.5
	c-4,0-7.3,3.3-7.3,7.3S756.7,677.9,760.7,677.9z"/>
<path class="st0" d="M812.7,345.2h35.5c4,0,7.3-3.3,7.3-7.3s-3.3-7.3-7.3-7.3h-35.5c-4,0-7.3,3.3-7.3,7.3S808.7,345.2,812.7,345.2z"
	/>
<path class="st0" d="M773.7,358.4h-7.4c0-3.3-2.7-6-6-6h-40c-3.3,0-6,2.7-6,6s2.7,6,6,6h27.3c-0.1,0.4-0.1,0.9-0.1,1.4
	c0,4.1,3.3,7.4,7.4,7.4h18.8c4.1,0,7.4-3.3,7.4-7.4S777.7,358.4,773.7,358.4z"/>
<path class="st0" d="M822.1,272.6H786c0.1-0.5,0.2-1,0.2-1.5c0-0.2,0-0.5,0-0.7h0.1c3,0,5.5-2.5,5.5-5.5s-2.5-5.5-5.5-5.5h-58
	c-3,0-5.5,2.5-5.5,5.5s2.5,5.5,5.5,5.5h18c0,0.2,0,0.5,0,0.7c0,3.8,3.1,7,7,7h5.4c0,3,2.5,5.5,5.5,5.5h58c3,0,5.5-2.5,5.5-5.5
	S825.2,272.6,822.1,272.6z"/>
<g>
	<path class="st0" d="M512.6,446.8c0-0.3,0-0.7-0.1-1h14.7c2.9,0,5.3-2.4,5.3-5.3s-2.4-5.3-5.3-5.3h-42.5c-2.9,0-5.3,2.4-5.3,5.3
		H379.1c-2.8,0-5,2.8-5,6.3s2.3,6.3,5,6.3h128.5C510.3,453,512.6,450.2,512.6,446.8z"/>
	<path class="st0" d="M590.8,442.2c4.1,0,7.4-3.3,7.4-7.4s-3.3-7.4-7.4-7.4h-7.4c0-1.4-0.5-2.7-1.3-3.7c2.5-1.2,4.3-3.8,4.3-6.8
		c0-4.1-3.4-7.5-7.5-7.5H457c-4.1,0-7.5,3.4-7.5,7.5s3.4,7.5,7.5,7.5h75.3c-0.5,0.9-0.8,1.9-0.8,3c0,3.3,2.7,6,6,6h27.3
		c-0.1,0.4-0.1,0.9-0.1,1.4c0,4.1,3.3,7.4,7.4,7.4H590.8z"/>
	<path class="st0" d="M537.7,471.8h1c3.8,0,7-3.2,7-7s-3.2-7-7-7h-9.5c-3.8,0-7,3.2-7,7c0,0.3,0,0.7,0.1,1h-18.6c0-3.3-2.7-6-6-6
		h-12.3c-3.3,0-6,2.7-6,6s2.7,6,6,6h2.8c0,3.3,2.7,6,6,6h37.5C535,477.8,537.7,475.1,537.7,471.8z"/>
	<path class="st0" d="M460.6,513.3h-45.7c-2.8,0-5,2.3-5,5s2.3,5,5,5h45.7c2.8,0,5-2.3,5-5S463.3,513.3,460.6,513.3z"/>
	<path class="st0" d="M694.1,461.3h35.5c4,0,7.3-3.3,7.3-7.3s-3.3-7.3-7.3-7.3h-35.5c-4,0-7.3,3.3-7.3,7.3S690.1,461.3,694.1,461.3z
		"/>
	<path class="st0" d="M555.1,517.4h-25.5c-4.8,0-8.8,3.9-8.8,8.8s3.9,8.8,8.8,8.8h25.5c4.8,0,8.8-3.9,8.8-8.8
		S559.9,517.4,555.1,517.4z"/>
	<path class="st0" d="M630.1,473.4h-7.4c0-3.3-2.7-6-6-6h-40c-3.3,0-6,2.7-6,6s2.7,6,6,6H604c-0.1,0.4-0.1,0.9-0.1,1.4
		c0,4.1,3.3,7.4,7.4,7.4h18.8c4.1,0,7.4-3.3,7.4-7.4S634.1,473.4,630.1,473.4z"/>
	<path class="st0" d="M678.5,387.7h-36.1c0.1-0.5,0.2-1,0.2-1.5c0-0.2,0-0.5,0-0.7h0.1c3,0,5.5-2.5,5.5-5.5s-2.5-5.5-5.5-5.5h-58
		c-3,0-5.5,2.5-5.5,5.5s2.5,5.5,5.5,5.5h18c0,0.2,0,0.5,0,0.7c0,3.8,3.1,7,7,7h5.4c0,3,2.5,5.5,5.5,5.5h58c3,0,5.5-2.5,5.5-5.5
		S681.6,387.7,678.5,387.7z"/>
	<path class="st0" d="M791.7,495.3h-35.8c0-0.9-0.2-1.7-0.6-2.5h23.4c3,0,5.5-2.5,5.5-5.5s-2.5-5.5-5.5-5.5h-58
		c-3,0-5.5,2.5-5.5,5.5c0,0.9,0.2,1.7,0.6,2.5h-23.4c-3,0-5.5,2.5-5.5,5.5s2.5,5.5,5.5,5.5h35.8c0,3,2.5,5.5,5.5,5.5h58
		c3,0,5.5-2.5,5.5-5.5S794.7,495.3,791.7,495.3z"/>
	<path class="st0" d="M439.1,379h22.8c0.1,3.7,3.2,6.8,7,6.8h26c3.8,0,7-3.2,7-7s-3.2-7-7-7h-13c0-4-3.3-7.3-7.3-7.3h-35.5
		c-4,0-7.3,3.3-7.3,7.3S435.1,379,439.1,379z"/>
</g>
<path class="st0" d="M611.8,685.1c0-0.3,0-0.7,0.1-1h-14.7c-2.9,0-5.3-2.4-5.3-5.3s2.4-5.3,5.3-5.3h42.5c2.9,0,5.3,2.4,5.3,5.3
	h100.3c2.8,0,5,2.8,5,6.3s-2.3,6.3-5,6.3H616.8C614.1,691.3,611.8,688.5,611.8,685.1z"/>
<path class="st0" d="M533.5,680.5c-4.1,0-7.4-3.3-7.4-7.4s3.3-7.4,7.4-7.4h7.4c0-1.4,0.5-2.7,1.3-3.7c-2.5-1.2-4.3-3.8-4.3-6.8
	c0-4.1,3.4-7.5,7.5-7.5h122c4.1,0,7.5,3.4,7.5,7.5s-3.4,7.5-7.5,7.5h-75.3c0.5,0.9,0.8,1.9,0.8,3c0,3.3-2.7,6-6,6h-27.3
	c0.1,0.4,0.1,0.9,0.1,1.4c0,4.1-3.3,7.4-7.4,7.4H533.5z"/>
<path class="st0" d="M586.6,710.1h-1c-3.8,0-7-3.2-7-7s3.2-7,7-7h9.5c3.8,0,7,3.2,7,7c0,0.3,0,0.7-0.1,1h18.6c0-3.3,2.7-6,6-6H639
	c3.3,0,6,2.7,6,6s-2.7,6-6,6h-2.8c0,3.3-2.7,6-6,6h-37.5C589.3,716.1,586.6,713.4,586.6,710.1z"/>
<path class="st0" d="M663.8,751.6h45.7c2.8,0,5,2.3,5,5s-2.3,5-5,5h-45.7c-2.8,0-5-2.3-5-5S661.1,751.6,663.8,751.6z"/>
<path class="st0" d="M430.3,699.6h-35.5c-4,0-7.3-3.3-7.3-7.3s3.3-7.3,7.3-7.3h35.5c4,0,7.3,3.3,7.3,7.3S434.3,699.6,430.3,699.6z"
	/>
<path class="st0" d="M569.3,755.6h25.5c4.8,0,8.8,3.9,8.8,8.8s-3.9,8.8-8.8,8.8h-25.5c-4.8,0-8.8-3.9-8.8-8.8
	S564.5,755.6,569.3,755.6z"/>
<path class="st0" d="M494.3,711.7h7.4c0-3.3,2.7-6,6-6h40c3.3,0,6,2.7,6,6s-2.7,6-6,6h-27.3c0.1,0.4,0.1,0.9,0.1,1.4
	c0,4.1-3.3,7.4-7.4,7.4h-18.8c-4.1,0-7.4-3.3-7.4-7.4S490.2,711.7,494.3,711.7z"/>
<path class="st0" d="M445.8,625.9h36.1c-0.1-0.5-0.2-1-0.2-1.5c0-0.2,0-0.5,0-0.7h-0.1c-3,0-5.5-2.5-5.5-5.5s2.5-5.5,5.5-5.5h58
	c3,0,5.5,2.5,5.5,5.5s-2.5,5.5-5.5,5.5h-18c0,0.2,0,0.5,0,0.7c0,3.8-3.1,7-7,7h-5.4c0,3-2.5,5.5-5.5,5.5h-58c-3,0-5.5-2.5-5.5-5.5
	S442.8,625.9,445.8,625.9z"/>
<path class="st0" d="M332.7,733.6h35.8c0-0.9,0.2-1.7,0.6-2.5h-23.4c-3,0-5.5-2.5-5.5-5.5s2.5-5.5,5.5-5.5h58c3,0,5.5,2.5,5.5,5.5
	c0,0.9-0.2,1.7-0.6,2.5H432c3,0,5.5,2.5,5.5,5.5s-2.5,5.5-5.5,5.5h-35.8c0,3-2.5,5.5-5.5,5.5h-58c-3,0-5.5-2.5-5.5-5.5
	S329.7,733.6,332.7,733.6z"/>
<path class="st0" d="M685.3,617.2h-22.8c-0.1,3.7-3.2,6.8-7,6.8h-26c-3.8,0-7-3.2-7-7s3.2-7,7-7h13c0-4,3.3-7.3,7.3-7.3h35.5
	c4,0,7.3,3.3,7.3,7.3S689.3,617.2,685.3,617.2z"/>
<path class="st0" d="M617.7,246.2h35.5c4,0,7.3-3.3,7.3-7.3s-3.3-7.3-7.3-7.3h-35.5c-4,0-7.3,3.3-7.3,7.3S613.7,246.2,617.7,246.2z"
	/>
<path class="st0" d="M578.7,259.4h-7.4c0-3.3-2.7-6-6-6h-40c-3.3,0-6,2.7-6,6s2.7,6,6,6h27.3c-0.1,0.4-0.1,0.9-0.1,1.4
	c0,4.1,3.3,7.4,7.4,7.4h18.8c4.1,0,7.4-3.3,7.4-7.4S582.7,259.4,578.7,259.4z"/>
<path class="st0" d="M627.1,173.6H591c0.1-0.5,0.2-1,0.2-1.5c0-0.2,0-0.5,0-0.7h0.1c3,0,5.5-2.5,5.5-5.5s-2.5-5.5-5.5-5.5h-58
	c-3,0-5.5,2.5-5.5,5.5s2.5,5.5,5.5,5.5h18c0,0.2,0,0.5,0,0.7c0,3.8,3.1,7,7,7h5.4c0,3,2.5,5.5,5.5,5.5h58c3,0,5.5-2.5,5.5-5.5
	S630.2,173.6,627.1,173.6z"/>
<path class="st0" d="M481.7,188.6c0-0.3,0-0.7-0.1-1h14.7c2.9,0,5.3-2.4,5.3-5.3s-2.4-5.3-5.3-5.3h-42.5c-2.9,0-5.3,2.4-5.3,5.3
	H348.2c-2.8,0-5,2.8-5,6.3s2.3,6.3,5,6.3h128.5C479.4,194.8,481.7,192,481.7,188.6z"/>
<path class="st0" d="M503.9,77c4.1,0,7.4-3.3,7.4-7.4s-3.3-7.4-7.4-7.4h-7.4c0-1.4-0.5-2.7-1.3-3.7c2.5-1.2,4.3-3.8,4.3-6.8
	c0-4.1-3.4-7.5-7.5-7.5H370c-4.1,0-7.5,3.4-7.5,7.5s3.4,7.5,7.5,7.5h75.3c-0.5,0.9-0.8,1.9-0.8,3c0,3.3,2.7,6,6,6h27.3
	c-0.1,0.4-0.1,0.9-0.1,1.4c0,4.1,3.3,7.4,7.4,7.4H503.9z"/>
<path class="st0" d="M395.8,261.6h1c3.8,0,7-3.2,7-7c0-3.8-3.2-7-7-7h-9.5c-3.8,0-7,3.2-7,7c0,0.3,0,0.7,0.1,1h-18.6
	c0-3.3-2.7-6-6-6h-12.3c-3.3,0-6,2.7-6,6c0,3.3,2.7,6,6,6h2.8c0,3.3,2.7,6,6,6h37.5C393.1,267.6,395.8,264.9,395.8,261.6z"/>
<path class="st0" d="M365.7,388h-45.8c-2.8,0-5,2.3-5,5s2.3,5,5,5h45.7c2.8,0,5-2.3,5-5S368.4,388,365.7,388z"/>
<path class="st0" d="M552.2,251.1h35.5c4,0,7.3-3.3,7.3-7.3s-3.3-7.3-7.3-7.3h-35.5c-4,0-7.3,3.3-7.3,7.3S548.2,251.1,552.2,251.1z"
	/>
<path class="st0" d="M413.2,307.1h-25.5c-4.8,0-8.8,3.9-8.8,8.8s3.9,8.8,8.8,8.8h25.5c4.8,0,8.8-3.9,8.8-8.8S418,307.1,413.2,307.1z
	"/>
<path class="st0" d="M488.2,263.2h-7.4c0-3.3-2.7-6-6-6h-40c-3.3,0-6,2.7-6,6s2.7,6,6,6h27.3c-0.1,0.4-0.1,0.9-0.1,1.4
	c0,4.1,3.3,7.4,7.4,7.4h18.8c4.1,0,7.4-3.3,7.4-7.4S492.2,263.2,488.2,263.2z"/>
<path class="st0" d="M649.8,285.1H614c0-0.9-0.2-1.7-0.6-2.5h23.4c3,0,5.5-2.5,5.5-5.5s-2.5-5.5-5.5-5.5h-58c-3,0-5.5,2.5-5.5,5.5
	c0,0.9,0.2,1.7,0.6,2.5h-23.4c-3,0-5.5,2.5-5.5,5.5s2.5,5.5,5.5,5.5h35.8c0,3,2.5,5.5,5.5,5.5h58c3,0,5.5-2.5,5.5-5.5
	S652.8,285.1,649.8,285.1z"/>
<path class="st0" d="M382.2,130.7H405c0.1,3.7,3.2,6.8,7,6.8h26c3.8,0,7-3.2,7-7s-3.2-7-7-7h-13c0-4-3.3-7.3-7.3-7.3h-35.5
	c-4,0-7.3,3.3-7.3,7.3S378.2,130.7,382.2,130.7z"/>
<path class="st0" d="M646.4,135.2c4.1,0,7.4-3.3,7.4-7.4s-3.3-7.4-7.4-7.4H639c0-1.4-0.5-2.7-1.3-3.7c2.5-1.2,4.3-3.8,4.3-6.8
	c0-4.1-3.4-7.5-7.5-7.5h-122c-4.1,0-7.5,3.4-7.5,7.5s3.4,7.5,7.5,7.5h75.3c-0.5,0.9-0.8,1.9-0.8,3c0,3.3,2.7,6,6,6h27.3
	c-0.1,0.4-0.1,0.9-0.1,1.4c0,4.1,3.3,7.4,7.4,7.4H646.4z"/>
<path class="st0" d="M329.7,574.6h35.8c0-0.9,0.2-1.7,0.6-2.5h-23.4c-3,0-5.5-2.5-5.5-5.5s2.5-5.5,5.5-5.5h58c3,0,5.5,2.5,5.5,5.5
	c0,0.9-0.2,1.7-0.6,2.5H429c3,0,5.5,2.5,5.5,5.5s-2.5,5.5-5.5,5.5h-35.8c0,3-2.5,5.5-5.5,5.5h-58c-3,0-5.5-2.5-5.5-5.5
	S326.7,574.6,329.7,574.6z"/>
<path class="st0" d="M328.8,648h45.7c2.8,0,5,2.3,5,5s-2.3,5-5,5h-45.7c-2.8,0-5-2.3-5-5S326.1,648,328.8,648z"/>
<path class="st0" d="M173.1,87.4c4.1,0,7.4-3.3,7.4-7.4s-3.3-7.4-7.4-7.4h-7.4c0-1.4-0.5-2.7-1.3-3.7c2.5-1.2,4.3-3.8,4.3-6.8
	c0-4.1-3.4-7.5-7.5-7.5h-122c-4.1,0-7.5,3.4-7.5,7.5s3.4,7.5,7.5,7.5h75.3c-0.5,0.9-0.8,1.9-0.8,3c0,3.3,2.7,6,6,6H147
	c-0.1,0.4-0.1,0.9-0.1,1.4c0,4.1,3.3,7.4,7.4,7.4H173.1z"/>
<path class="st0" d="M120,116.9h1c3.8,0,7-3.2,7-7s-3.2-7-7-7h-9.5c-3.8,0-7,3.2-7,7c0,0.3,0,0.7,0.1,1H86c0-3.3-2.7-6-6-6H67.7
	c-3.3,0-6,2.7-6,6s2.7,6,6,6h2.8c0,3.3,2.7,6,6,6H114C117.3,122.9,120,120.3,120,116.9z"/>
<path class="st0" d="M58.5,157.4H12.8c-2.8,0-5,2.3-5,5s2.3,5,5,5h45.7c2.8,0,5-2.3,5-5S61.2,157.4,58.5,157.4z"/>
<path class="st0" d="M276.4,106.4h35.5c4,0,7.3-3.3,7.3-7.3s-3.3-7.3-7.3-7.3h-35.5c-4,0-7.3,3.3-7.3,7.3S272.4,106.4,276.4,106.4z"
	/>
<path class="st0" d="M137.4,162.4h-25.5c-4.8,0-8.8,3.9-8.8,8.8s3.9,8.8,8.8,8.8h25.5c4.8,0,8.8-3.9,8.8-8.8
	S142.2,162.4,137.4,162.4z"/>
<path class="st0" d="M212.4,118.6H205c0-3.3-2.7-6-6-6h-40c-3.3,0-6,2.7-6,6s2.7,6,6,6h27.3c-0.1,0.4-0.1,0.9-0.1,1.4
	c0,4.1,3.3,7.4,7.4,7.4h18.8c4.1,0,7.4-3.3,7.4-7.4C219.8,121.9,216.4,118.6,212.4,118.6z"/>
<path class="st0" d="M260.8,32.8h-36.1c0.1-0.5,0.2-1,0.2-1.5c0-0.2,0-0.5,0-0.7h0.1c3,0,5.5-2.5,5.5-5.5s-2.5-5.5-5.5-5.5h-58
	c-3,0-5.5,2.5-5.5,5.5s2.5,5.5,5.5,5.5h18c0,0.2,0,0.5,0,0.7c0,3.8,3.1,7,7,7h5.4c0,3,2.5,5.5,5.5,5.5h58c3,0,5.5-2.5,5.5-5.5
	S263.9,32.8,260.8,32.8z"/>
<path class="st0" d="M374,140.4h-35.8c0-0.9-0.2-1.7-0.6-2.5H361c3,0,5.5-2.5,5.5-5.5s-2.5-5.5-5.5-5.5h-58c-3,0-5.5,2.5-5.5,5.5
	c0,0.9,0.2,1.7,0.6,2.5h-23.4c-3,0-5.5,2.5-5.5,5.5s2.5,5.5,5.5,5.5h35.8c0,3,2.5,5.5,5.5,5.5h58c3,0,5.5-2.5,5.5-5.5
	S377,140.4,374,140.4z"/>
<path class="st0" d="M21.4,24.1h22.8c0.1,3.7,3.2,6.8,7,6.8h26c3.8,0,7-3.2,7-7s-3.2-7-7-7h-13c0-4-3.3-7.3-7.3-7.3H21.4
	c-4,0-7.3,3.3-7.3,7.3S17.4,24.1,21.4,24.1z"/>
<path class="st0" d="M248.1,369.7c-4.1,0-7.4-3.3-7.4-7.4s3.3-7.4,7.4-7.4h7.4c0-1.4,0.5-2.7,1.3-3.7c-2.5-1.2-4.3-3.8-4.3-6.8
	c0-4.1,3.4-7.5,7.5-7.5h122c4.1,0,7.5,3.4,7.5,7.5s-3.4,7.5-7.5,7.5h-75.3c0.5,0.9,0.8,1.9,0.8,3c0,3.3-2.7,6-6,6h-27.3
	c0.1,0.4,0.1,0.9,0.1,1.4c0,4.1-3.3,7.4-7.4,7.4H248.1z"/>
<path class="st0" d="M144.9,388.8h-35.5c-4,0-7.3-3.3-7.3-7.3s3.3-7.3,7.3-7.3h35.5c4,0,7.3,3.3,7.3,7.3S148.9,388.8,144.9,388.8z"
	/>
<path class="st0" d="M208.9,400.9h7.4c0-3.3,2.7-6,6-6h40c3.3,0,6,2.7,6,6s-2.7,6-6,6H235c0.1,0.4,0.1,0.9,0.1,1.4
	c0,4.1-3.3,7.4-7.4,7.4h-18.8c-4.1,0-7.4-3.3-7.4-7.4S204.8,400.9,208.9,400.9z"/>
<path class="st0" d="M160.4,315.1h36.1c-0.1-0.5-0.2-1-0.2-1.5c0-0.2,0-0.5,0-0.7h-0.1c-3,0-5.5-2.5-5.5-5.5s2.5-5.5,5.5-5.5h58
	c3,0,5.5,2.5,5.5,5.5s-2.5,5.5-5.5,5.5h-18c0,0.2,0,0.5,0,0.7c0,3.8-3.1,7-7,7h-5.4c0,3-2.5,5.5-5.5,5.5h-58c-3,0-5.5-2.5-5.5-5.5
	S157.4,315.1,160.4,315.1z"/>
<path class="st0" d="M47.3,422.8h35.8c0-0.9,0.2-1.7,0.6-2.5H60.3c-3,0-5.5-2.5-5.5-5.5s2.5-5.5,5.5-5.5h58c3,0,5.5,2.5,5.5,5.5
	c0,0.9-0.2,1.7-0.6,2.5h23.4c3,0,5.5,2.5,5.5,5.5s-2.5,5.5-5.5,5.5h-35.8c0,3-2.5,5.5-5.5,5.5h-58c-3,0-5.5-2.5-5.5-5.5
	S44.3,422.8,47.3,422.8z"/>
<path class="st0" d="M44.3,263.8h35.8c0-0.9,0.2-1.7,0.6-2.5H57.3c-3,0-5.5-2.5-5.5-5.5c0-3,2.5-5.5,5.5-5.5h58c3,0,5.5,2.5,5.5,5.5
	c0,0.9-0.2,1.7-0.6,2.5h23.4c3,0,5.5,2.5,5.5,5.5s-2.5,5.5-5.5,5.5h-35.8c0,3-2.5,5.5-5.5,5.5h-58c-3,0-5.5-2.5-5.5-5.5
	S41.3,263.8,44.3,263.8z"/>
<path class="st0" d="M43.4,337.2h45.7c2.8,0,5,2.3,5,5s-2.3,5-5,5H43.4c-2.8,0-5-2.3-5-5S40.7,337.2,43.4,337.2z"/>
<path class="st0" d="M214.2,207h1c3.8,0,7-3.2,7-7c0-3.8-3.2-7-7-7h-9.5c-3.8,0-7,3.2-7,7c0,0.3,0,0.7,0.1,1h-18.6c0-3.3-2.7-6-6-6
	h-12.3c-3.3,0-6,2.7-6,6c0,3.3,2.7,6,6,6h2.8c0,3.3,2.7,6,6,6h37.5C211.5,213,214.2,210.3,214.2,207z"/>
<path class="st0" d="M306.6,208.6h-7.4c0-3.3-2.7-6-6-6h-40c-3.3,0-6,2.7-6,6s2.7,6,6,6h27.3c-0.1,0.4-0.1,0.9-0.1,1.4
	c0,4.1,3.3,7.4,7.4,7.4h18.8c4.1,0,7.4-3.3,7.4-7.4S310.6,208.6,306.6,208.6z"/>
<path class="st0" d="M234,516.4c-4.1,0-7.4-3.3-7.4-7.4s3.3-7.4,7.4-7.4h7.4c0-1.4,0.5-2.7,1.3-3.7c-2.5-1.2-4.3-3.8-4.3-6.8
	c0-4.1,3.4-7.5,7.5-7.5h122c4.1,0,7.5,3.4,7.5,7.5c0,4.1-3.4,7.5-7.5,7.5h-75.3c0.5,0.9,0.8,1.9,0.8,3c0,3.3-2.7,6-6,6h-27.3
	c0.1,0.4,0.1,0.9,0.1,1.4c0,4.1-3.3,7.4-7.4,7.4H234z"/>
<path class="st0" d="M130.8,535.5H95.2c-4,0-7.3-3.3-7.3-7.3s3.3-7.3,7.3-7.3h35.5c4,0,7.3,3.3,7.3,7.3S134.8,535.5,130.8,535.5z"/>
<path class="st0" d="M194.8,547.6h7.4c0-3.3,2.7-6,6-6h40c3.3,0,6,2.7,6,6s-2.7,6-6,6h-27.3c0.1,0.4,0.1,0.9,0.1,1.4
	c0,4.1-3.3,7.4-7.4,7.4h-18.8c-4.1,0-7.4-3.3-7.4-7.4S190.7,547.6,194.8,547.6z"/>
<path class="st0" d="M146.3,461.8h36.1c-0.1-0.5-0.2-1-0.2-1.5c0-0.2,0-0.5,0-0.7H182c-3,0-5.5-2.5-5.5-5.5s2.5-5.5,5.5-5.5h58
	c3,0,5.5,2.5,5.5,5.5s-2.5,5.5-5.5,5.5h-18c0,0.2,0,0.5,0,0.7c0,3.8-3.1,7-7,7h-5.4c0,3-2.5,5.5-5.5,5.5h-58c-3,0-5.5-2.5-5.5-5.5
	S143.3,461.8,146.3,461.8z"/>
<path class="st0" d="M33.2,569.5H69c0-0.9,0.2-1.7,0.6-2.5H46.2c-3,0-5.5-2.5-5.5-5.5s2.5-5.5,5.5-5.5h58c3,0,5.5,2.5,5.5,5.5
	c0,0.9-0.2,1.7-0.6,2.5h23.4c3,0,5.5,2.5,5.5,5.5s-2.5,5.5-5.5,5.5H96.7c0,3-2.5,5.5-5.5,5.5h-58c-3,0-5.5-2.5-5.5-5.5
	S30.2,569.5,33.2,569.5z"/>
<g>
	<path class="st0" d="M161.9,763.9c0-0.3,0-0.7-0.1-1h14.7c2.9,0,5.3-2.4,5.3-5.3c0-2.9-2.4-5.3-5.3-5.3H134c-2.9,0-5.3,2.4-5.3,5.3
		H28.4c-2.8,0-5,2.8-5,6.3s2.3,6.3,5,6.3h128.5C159.6,770.2,161.9,767.4,161.9,763.9z"/>
	<path class="st0" d="M240.1,759.4c4.1,0,7.4-3.3,7.4-7.4c0-4.1-3.3-7.4-7.4-7.4h-7.4c0-1.4-0.5-2.7-1.3-3.7
		c2.5-1.2,4.3-3.8,4.3-6.8c0-4.1-3.4-7.5-7.5-7.5h-122c-4.1,0-7.5,3.4-7.5,7.5c0,4.1,3.4,7.5,7.5,7.5h75.3c-0.5,0.9-0.8,1.9-0.8,3
		c0,3.3,2.7,6,6,6H214c-0.1,0.4-0.1,0.9-0.1,1.4c0,4.1,3.3,7.4,7.4,7.4H240.1z"/>
	<path class="st0" d="M187,788.9h1c3.8,0,7-3.2,7-7s-3.2-7-7-7h-9.5c-3.8,0-7,3.2-7,7c0,0.3,0,0.7,0.1,1h-18.6c0-3.3-2.7-6-6-6
		h-12.3c-3.3,0-6,2.7-6,6s2.7,6,6,6h2.8c0,3.3,2.7,6,6,6H181C184.3,794.9,187,792.2,187,788.9z"/>
	<path class="st0" d="M109.9,830.4H64.2c-2.8,0-5,2.3-5,5s2.3,5,5,5h45.7c2.8,0,5-2.3,5-5S112.6,830.4,109.9,830.4z"/>
	<path class="st0" d="M343.4,778.4h35.5c4,0,7.3-3.3,7.3-7.3s-3.3-7.3-7.3-7.3h-35.5c-4,0-7.3,3.3-7.3,7.3S339.4,778.4,343.4,778.4z
		"/>
	<path class="st0" d="M204.4,834.5h-25.5c-4.8,0-8.8,3.9-8.8,8.8s3.9,8.8,8.8,8.8h25.5c4.8,0,8.8-3.9,8.8-8.8
		S209.2,834.5,204.4,834.5z"/>
	<path class="st0" d="M279.4,790.6H272c0-3.3-2.7-6-6-6h-40c-3.3,0-6,2.7-6,6s2.7,6,6,6h27.3c-0.1,0.4-0.1,0.9-0.1,1.4
		c0,4.1,3.3,7.4,7.4,7.4h18.8c4.1,0,7.4-3.3,7.4-7.4C286.8,793.9,283.4,790.6,279.4,790.6z"/>
	<path class="st0" d="M327.8,704.8h-36.1c0.1-0.5,0.2-1,0.2-1.5c0-0.2,0-0.5,0-0.7h0.1c3,0,5.5-2.5,5.5-5.5s-2.5-5.5-5.5-5.5h-58
		c-3,0-5.5,2.5-5.5,5.5s2.5,5.5,5.5,5.5h18c0,0.2,0,0.5,0,0.7c0,3.8,3.1,7,7,7h5.4c0,3,2.5,5.5,5.5,5.5h58c3,0,5.5-2.5,5.5-5.5
		S330.9,704.8,327.8,704.8z"/>
	<path class="st0" d="M441,812.4h-35.8c0-0.9-0.2-1.7-0.6-2.5H428c3,0,5.5-2.5,5.5-5.5s-2.5-5.5-5.5-5.5h-58c-3,0-5.5,2.5-5.5,5.5
		c0,0.9,0.2,1.7,0.6,2.5h-23.4c-3,0-5.5,2.5-5.5,5.5s2.5,5.5,5.5,5.5h35.8c0,3,2.5,5.5,5.5,5.5h58c3,0,5.5-2.5,5.5-5.5
		S444,812.4,441,812.4z"/>
	<path class="st0" d="M88.4,696.1h22.8c0.1,3.7,3.2,6.8,7,6.8h26c3.8,0,7-3.2,7-7s-3.2-7-7-7h-13c0-4-3.3-7.3-7.3-7.3H88.4
		c-4,0-7.3,3.3-7.3,7.3S84.4,696.1,88.4,696.1z"/>
</g>
</svg>
