<?xml version="1.0" encoding="utf-8"?>
<!-- Generator: Adobe Illustrator 22.1.0, SVG Export Plug-In . SVG Version: 6.00 Build 0)  -->
<svg version="1.1" id="Layer_1" xmlns="http://www.w3.org/2000/svg" xmlns:xlink="http://www.w3.org/1999/xlink" x="0px" y="0px"
	 viewBox="0 0 800 800" style="enable-background:new 0 0 800 800;" xml:space="preserve">
<style type="text/css">
	.st0{fill:#FFFFFF;}
</style>
<path class="st0" d="M527.4,445.6c0-0.3,0-0.7,0.1-1h-15.4c-3,0-5.5-2.5-5.5-5.5s2.5-5.5,5.5-5.5h44.5c3,0,5.5,2.5,5.5,5.5h105
	c2.9,0,5.2,2.9,5.2,6.6c0,3.7-2.4,6.6-5.2,6.6H532.7C529.8,452.1,527.4,449.2,527.4,445.6z"/>
<path class="st0" d="M336.6,763.6c-4.3,0-7.7-3.5-7.7-7.7s3.5-7.7,7.7-7.7h7.7c0-1.5,0.5-2.8,1.4-3.9c-2.6-1.3-4.5-4-4.5-7.1
	c0-4.3,3.6-7.8,7.8-7.8h127.7c4.3,0,7.8,3.6,7.8,7.8c0,4.3-3.6,7.8-7.8,7.8h-78.8c0.5,0.9,0.8,2,0.8,3.1c0,3.5-2.8,6.3-6.3,6.3
	h-28.6c0.1,0.4,0.1,0.9,0.1,1.5c0,4.3-3.5,7.7-7.7,7.7H336.6z"/>
<path class="st0" d="M563.1,678.7h-1c-4,0-7.3-3.3-7.3-7.3s3.3-7.3,7.3-7.3h9.9c4,0,7.3,3.3,7.3,7.3c0,0.3,0,0.7-0.1,1h19.5
	c0-3.5,2.8-6.3,6.3-6.3h13c3.5,0,6.3,2.8,6.3,6.3s-2.8,6.3-6.3,6.3H615c0,3.5-2.8,6.3-6.3,6.3h-39.2
	C566,685,563.1,682.2,563.1,678.7z"/>
<path class="st0" d="M705.2,613h26.7c5,0,9.2,4.1,9.2,9.2c0,5.1-4.1,9.2-9.2,9.2h-26.7c-5,0-9.2-4.1-9.2-9.2
	C696,617.1,700.2,613,705.2,613z"/>
<path class="st0" d="M307.8,51.4c0-0.3,0-0.7,0.1-1h-15.4c-3,0-5.5-2.5-5.5-5.5s2.5-5.5,5.5-5.5H337c3,0,5.5,2.5,5.5,5.5h105
	c2.9,0,5.2,2.9,5.2,6.6s-2.4,6.6-5.2,6.6H313C310.2,57.9,307.8,54.9,307.8,51.4z"/>
<path class="st0" d="M161.1,72.6h-1c-4,0-7.3-3.3-7.3-7.3s3.3-7.3,7.3-7.3h9.9c4,0,7.3,3.3,7.3,7.3c0,0.3,0,0.7-0.1,1h19.5
	c0-3.5,2.8-6.3,6.3-6.3h13c3.5,0,6.3,2.8,6.3,6.3c0,3.5-2.8,6.3-6.3,6.3H213c0,3.5-2.8,6.3-6.3,6.3h-39.2
	C163.9,78.9,161.1,76.1,161.1,72.6z"/>
<path class="st0" d="M195.4,507.8h26.7c5,0,9.2,4.1,9.2,9.2c0,5.1-4.1,9.2-9.2,9.2h-26.7c-5,0-9.2-4.1-9.2-9.2
	C186.2,511.9,190.4,507.8,195.4,507.8z"/>
<path class="st0" d="M354.8,518.5h37.5c0-0.9,0.2-1.8,0.6-2.6h-24.5c-3.1,0-5.8-2.6-5.8-5.8s2.6-5.8,5.8-5.8h60.7
	c3.1,0,5.8,2.6,5.8,5.8c0,0.9-0.2,1.8-0.6,2.6h24.5c3.1,0,5.8,2.6,5.8,5.8s-2.6,5.8-5.8,5.8h-37.5c0,3.1-2.6,5.8-5.8,5.8h-60.7
	c-3.1,0-5.8-2.6-5.8-5.8S351.6,518.5,354.8,518.5z"/>
<path class="st0" d="M58.6,733.3h23.9c0.1,3.9,3.3,7.1,7.3,7.1H117c4,0,7.3-3.3,7.3-7.3s-3.3-7.3-7.3-7.3h-13.6
	c0-4.2-3.5-7.6-7.6-7.6H58.6c-4.2,0-7.6,3.5-7.6,7.6C50.9,730,54.4,733.3,58.6,733.3z"/>
<path class="st0" d="M248.8,175.3h1c4,0,7.3-3.3,7.3-7.3c0-4-3.3-7.3-7.3-7.3h-9.9c-4,0-7.3,3.3-7.3,7.3c0,0.3,0,0.7,0.1,1h-19.5
	c0-3.5-2.8-6.3-6.3-6.3H194c-3.5,0-6.3,2.8-6.3,6.3s2.8,6.3,6.3,6.3h2.9c0,3.5,2.8,6.3,6.3,6.3h39.2
	C245.9,181.6,248.8,178.7,248.8,175.3z"/>
<path class="st0" d="M499,160.6c-4.3,0-7.7-3.5-7.7-7.7c0-4.3,3.5-7.7,7.7-7.7h7.7c0-1.5,0.5-2.8,1.4-3.9c-2.6-1.3-4.5-4-4.5-7.1
	c0-4.3,3.6-7.8,7.8-7.8h127.7c4.3,0,7.8,3.6,7.8,7.8s-3.6,7.8-7.8,7.8h-78.8c0.5,0.9,0.8,2,0.8,3.1c0,3.5-2.8,6.3-6.3,6.3h-28.6
	c0.1,0.4,0.1,0.9,0.1,1.5c0,4.3-3.5,7.7-7.7,7.7H499z"/>
<path class="st0" d="M566.7,93.1h26.7c5,0,9.2,4.1,9.2,9.2c0,5.1-4.1,9.2-9.2,9.2h-26.7c-5,0-9.2-4.1-9.2-9.2
	C557.5,97.2,561.7,93.1,566.7,93.1z"/>
<path class="st0" d="M150.3,244.7h37.5c0-0.9,0.2-1.8,0.6-2.6h-24.5c-3.1,0-5.8-2.6-5.8-5.8s2.6-5.8,5.8-5.8h60.7
	c3.1,0,5.8,2.6,5.8,5.8c0,0.9-0.2,1.8-0.6,2.6h24.5c3.1,0,5.8,2.6,5.8,5.8s-2.6,5.8-5.8,5.8h-37.5c0,3.1-2.6,5.8-5.8,5.8h-60.7
	c-3.1,0-5.8-2.6-5.8-5.8S147.2,244.7,150.3,244.7z"/>
<path class="st0" d="M358.6,369.9c-4.3,0-7.7-3.5-7.7-7.7c0-4.3,3.5-7.7,7.7-7.7h7.7c0-1.5,0.5-2.8,1.4-3.9c-2.6-1.3-4.5-4-4.5-7.1
	c0-4.3,3.6-7.8,7.8-7.8h127.7c4.3,0,7.8,3.6,7.8,7.8s-3.6,7.8-7.8,7.8H420c0.5,0.9,0.8,2,0.8,3.1c0,3.5-2.8,6.3-6.3,6.3h-28.6
	c0.1,0.4,0.1,0.9,0.1,1.5c0,4.3-3.5,7.7-7.7,7.7H358.6z"/>
<path class="st0" d="M334.6,189.5h37.5c0-0.9,0.2-1.8,0.6-2.6h-24.5c-3.1,0-5.8-2.6-5.8-5.8s2.6-5.8,5.8-5.8h60.7
	c3.1,0,5.8,2.6,5.8,5.8c0,0.9-0.2,1.8-0.6,2.6h24.5c3.1,0,5.8,2.6,5.8,5.8s-2.6,5.8-5.8,5.8h-37.5c0,3.1-2.6,5.8-5.8,5.8h-60.7
	c-3.1,0-5.8-2.6-5.8-5.8S331.5,189.5,334.6,189.5z"/>
<path class="st0" d="M87.9,420.2c-4.3,0-7.7-3.5-7.7-7.7c0-4.3,3.5-7.7,7.7-7.7h7.7c0-1.5,0.5-2.8,1.4-3.9c-2.6-1.3-4.5-4-4.5-7.1
	c0-4.3,3.6-7.8,7.8-7.8h127.7c4.3,0,7.8,3.6,7.8,7.8s-3.6,7.8-7.8,7.8h-78.8c0.5,0.9,0.8,2,0.8,3.1c0,3.5-2.8,6.3-6.3,6.3h-28.6
	c0.1,0.4,0.1,0.9,0.1,1.5c0,4.3-3.5,7.7-7.7,7.7H87.9z"/>
<path class="st0" d="M155.6,352.7h26.7c5,0,9.2,4.1,9.2,9.2c0,5.1-4.1,9.2-9.2,9.2h-26.7c-5,0-9.2-4.1-9.2-9.2
	C146.4,356.8,150.5,352.7,155.6,352.7z"/>
<path class="st0" d="M198,643.6c0-0.3,0-0.7,0.1-1h-15.4c-3,0-5.5-2.5-5.5-5.5s2.5-5.5,5.5-5.5h44.5c3,0,5.5,2.5,5.5,5.5h105
	c2.9,0,5.2,2.9,5.2,6.6c0,3.7-2.4,6.6-5.2,6.6H203.2C200.4,650.1,198,647.2,198,643.6z"/>
</svg>
