<?xml version="1.0" encoding="utf-8"?>
<!-- Generator: Adobe Illustrator 22.1.0, SVG Export Plug-In . SVG Version: 6.00 Build 0)  -->
<svg version="1.1" id="Layer_1" xmlns="http://www.w3.org/2000/svg" xmlns:xlink="http://www.w3.org/1999/xlink" x="0px" y="0px"
	 viewBox="0 0 638.4 158" style="enable-background:new 0 0 638.4 158;" xml:space="preserve">
<style type="text/css">
	.st0{fill:#703322;}
	.st1{fill:#B25538;}
	.st2{fill:#69716B;}
	.st3{fill:#C5CCC6;}
</style>
<rect class="st0" width="640" height="158"/>
<path class="st1" d="M0,92.4V78.9v-5.3V42.8c0-1.9,2.2-3.5,5-3.5l0,0c2.7,0,5,1.6,5,3.5v13.5c0,1.9,2.2,3.5,5,3.5c2.7,0,5-1.6,5-3.5
	v-7.1c0-1.9,2.2-3.5,5-3.5l0,0c2.7,0,5,1.6,5,3.5v10.2c0,1.9,2.2,3.5,5,3.5c2.7,0,5-1.6,5-3.5v-7.1c0-1.9,2.2-3.5,5-3.5l0,0
	c2.7,0,5,1.6,5,3.5v4.4c0,1.9,2.2,3.5,5,3.5c2.7,0,5-1.6,5-3.5V29.3c0-1.9,2.2-3.5,5-3.5l0,0c2.7,0,5,1.6,5,3.5v27
	c0,1.9,2.2,3.5,5,3.5c2.7,0,5-1.6,5-3.5V37.2c0-1.9,2.2-3.5,5-3.5l0,0c2.7,0,5,1.6,5,3.5v13.5c0,1.9,2.2,3.5,5,3.5
	c2.7,0,5-1.6,5-3.5v-7.1c0-1.9,2.2-3.5,5-3.5l0,0c2.7,0,5,1.6,5,3.5v10.2c0,1.9,2.2,3.5,5,3.5c2.7,0,5-1.6,5-3.5v-7.1
	c0-1.9,2.2-3.5,5-3.5l0,0c2.7,0,5,1.6,5,3.5v4.4c0,1.9,2.2,3.5,5,3.5c2.7,0,5-1.6,5-3.5V23.6c0-1.9,2.2-3.5,5-3.5l0,0
	c2.7,0,5,1.6,5,3.5v27c0,1.9,2.2,3.5,5,3.5c2.7,0,5-1.6,5-3.5v-7.9c0-1.9,2.2-3.5,5-3.5l0,0c2.7,0,5,1.6,5,3.5v13.5
	c0,1.9,2.2,3.5,5,3.5c2.7,0,5-1.6,5-3.5v-7.1c0-1.9,2.2-3.5,5-3.5l0,0c2.7,0,5,1.6,5,3.5v10.2c0,1.9,2.2,3.5,5,3.5
	c2.7,0,5-1.6,5-3.5v-7.1c0-1.9,2.2-3.5,5-3.5l0,0c2.7,0,5,1.6,5,3.5v4.4c0,1.9,2.2,3.5,5,3.5c2.7,0,5-1.6,5-3.5V29.1
	c0-1.9,2.2-3.5,5-3.5l0,0c2.7,0,5,1.6,5,3.5v27c0,1.9,2.2,3.5,5,3.5c2.7,0,5-1.6,5-3.5V37c0-1.9,2.2-3.5,5-3.5l0,0
	c2.7,0,5,1.6,5,3.5v13.5c0,1.9,2.2,3.5,5,3.5c2.7,0,5-1.6,5-3.5v-7.1c0-1.9,2.2-3.5,5-3.5l0,0c2.7,0,5,1.6,5,3.5v10.2
	c0,1.9,2.2,3.5,5,3.5c2.7,0,5-1.6,5-3.5v-7.1c0-1.9,2.2-3.5,5-3.5l0,0c2.7,0,5,1.6,5,3.5V51c0,1.9,2.2,3.5,5,3.5c2.7,0,5-1.6,5-3.5
	V23.5c0-1.9,2.2-3.5,5-3.5l0,0c2.7,0,5,1.6,5,3.5v27c0,1.9,2.2,3.5,5,3.5c2.7,0,5-1.6,5-3.5V32.9c0-1.9,2.2-3.5,5-3.5l0,0
	c2.7,0,5,1.6,5,3.5v13.5c0,1.9,2.2,3.5,5,3.5c2.7,0,5-1.6,5-3.5v-7.1c0-1.9,2.2-3.5,5-3.5l0,0c2.7,0,5,1.6,5,3.5v10.2
	c0,1.9,2.2,3.5,5,3.5c2.7,0,5-1.6,5-3.5v-7.1c0-1.9,2.2-3.5,5-3.5l0,0c2.7,0,5,1.6,5,3.5v4.4c0,1.9,2.2,3.5,5,3.5c2.7,0,5-1.6,5-3.5
	V19.3c0-1.9,2.2-3.5,5-3.5l0,0c2.7,0,5,1.6,5,3.5v27c0,1.9,2.2,3.5,5,3.5c2.7,0,5-1.6,5-3.5V27.2c0-1.9,2.2-3.5,5-3.5l0,0
	c2.7,0,5,1.6,5,3.5v13.5c0,1.9,2.2,3.5,5,3.5c2.7,0,5-1.6,5-3.5v-7.1c0-1.9,2.2-3.5,5-3.5l0,0c2.7,0,5,1.6,5,3.5v10.2
	c0,1.9,2.2,3.5,5,3.5c2.7,0,5-1.6,5-3.5v-7.1c0-1.9,2.2-3.5,5-3.5l0,0c2.7,0,5,1.6,5,3.5v4.4c0,1.9,2.2,3.5,5,3.5c2.7,0,5-1.6,5-3.5
	V13.7c0-1.9,2.2-3.5,5-3.5l0,0c2.7,0,5,1.6,5,3.5v27c0,1.9,2.2,3.5,5,3.5c2.7,0,5-1.6,5-3.5v-7.9c0-1.9,2.2-3.5,5-3.5l0,0
	c2.7,0,5,1.6,5,3.5v13.5c0,1.9,2.2,3.5,5,3.5c2.7,0,5-1.6,5-3.5v-7.1c0-1.9,2.2-3.5,5-3.5c2.7,0,5,1.6,5,3.5v10.2
	c0,1.9,2.2,3.5,5,3.5c2.7,0,5-1.6,5-3.5v-7.1c0-1.9,2.2-3.5,5-3.5c2.7,0,5,1.6,5,3.5v4.4c0,1.9,2.2,3.5,5,3.5c2.7,0,5-1.6,5-3.5
	V19.2c0-1.9,2.2-3.5,5-3.5c2.7,0,5,1.6,5,3.5v27c0,1.9,2.2,3.5,5,3.5c2.7,0,5-1.6,5-3.5V27.1c0-1.9,2.2-3.5,5-3.5c2.7,0,5,1.6,5,3.5
	v13.5c0,1.9,2.2,3.5,5,3.5c2.7,0,5-1.6,5-3.5v-7.1c0-1.9,2.2-3.5,5-3.5c2.7,0,5,1.6,5,3.5v10.2c0,1.9,2.2,3.5,5,3.5
	c2.7,0,5-1.6,5-3.5v-7.1c0-1.9,2.2-3.5,5-3.5c2.7,0,5,1.6,5,3.5V41c0,1.9,2.2,3.5,5,3.5c2.7,0,5-1.6,5-3.5V13.5c0-1.9,2.2-3.5,5-3.5
	c2.7,0,5,1.6,5,3.5v27c0,1.9,2.2,3.5,5,3.5c2.7,0,5-1.6,5-3.5v19.1v1.2v2.3V73v3.5v22.5H0V92.4z"/>
<path class="st2" d="M0,127.4V90.9V68.8c0-2.1,2.2-3.9,5-3.9s5,1.7,5,3.9v1.6c0,2.1,2.2,3.9,5,3.9s5-1.7,5-3.9v-15
	c0-2.1,2.2-3.9,5-3.9s5,1.7,5,3.9V74c0,2.1,2.2,3.9,5,3.9c2.7,0,5-1.7,5-3.9v-7.8c0-2.1,2.2-3.9,5-3.9s5,1.7,5,3.9V71
	c0,2.1,2.2,3.9,5,3.9s5-1.7,5-3.9v-17c0-2.1,2.2-3.9,5-3.9c2.8,0,5,1.7,5,3.9v18.5c0,2.1,2.2,3.9,5,3.9s5-1.7,5-3.9v-3.9
	c0-2.1,2.2-3.9,5-3.9s5,1.7,5,3.9v1.6c0,2.1,2.2,3.9,5,3.9s5-1.7,5-3.9v-15c0-2.1,2.2-3.9,5-3.9c2.7,0,5,1.7,5,3.9V74
	c0,2.1,2.2,3.9,5,3.9s5-1.7,5-3.9v-7.8c0-2.1,2.2-3.9,5-3.9s5,1.7,5,3.9V71c0,2.1,2.2,3.9,5,3.9c2.7,0,5-1.7,5-3.9v-17
	c0-2.1,2.2-3.9,5-3.9c2.7,0,5,1.7,5,3.9v18.5c0,2.1,2.2,3.9,5,3.9c2.7,0,5-1.7,5-3.9v-3.9c0-2.1,2.2-3.9,5-3.9c2.7,0,5,1.7,5,3.9
	v1.6c0,2.1,2.2,3.9,5,3.9c2.7,0,5-1.7,5-3.9v-15c0-2.1,2.2-3.9,5-3.9c2.7,0,5,1.7,5,3.9V74c0,2.1,2.2,3.9,5,3.9c2.7,0,5-1.7,5-3.9
	v-7.8c0-2.1,2.2-3.9,5-3.9c2.7,0,5,1.7,5,3.9V71c0,2.1,2.2,3.9,5,3.9c2.7,0,5-1.7,5-3.9v-17c0-2.1,2.2-3.9,5-3.9c2.7,0,5,1.7,5,3.9
	v18.5c0,2.1,2.2,3.9,5,3.9c2.7,0,5-1.7,5-3.9v-3.9c0-2.1,2.2-3.9,5-3.9c2.7,0,5,1.7,5,3.9v1.6c0,2.1,2.2,3.9,5,3.9
	c2.7,0,5-1.7,5-3.9v-15c0-2.1,2.2-3.9,5-3.9c2.7,0,5,1.7,5,3.9V74c0,2.1,2.2,3.9,5,3.9c2.7,0,5-1.7,5-3.9v-7.8c0-2.1,2.2-3.9,5-3.9
	c2.7,0,5,1.7,5,3.9V71c0,2.1,2.2,3.9,5,3.9c2.7,0,5-1.7,5-3.9v-17c0-2.1,2.2-3.9,5-3.9c2.7,0,5,1.7,5,3.9v18.5c0,2.1,2.2,3.9,5,3.9
	c2.7,0,5-1.7,5-3.9v-3.9c0-2.1,2.2-3.9,5-3.9c2.7,0,5,1.7,5,3.9v1.6c0,2.1,2.2,3.9,5,3.9c2.7,0,5-1.7,5-3.9v-15c0-2.1,2.2-3.9,5-3.9
	c2.7,0,5,1.7,5,3.9V74c0,2.1,2.2,3.9,5,3.9c2.7,0,5-1.7,5-3.9v-7.8c0-2.1,2.2-3.9,5-3.9c2.7,0,5,1.7,5,3.9V71c0,2.1,2.2,3.9,5,3.9
	c2.7,0,5-1.7,5-3.9v-17c0-2.1,2.2-3.9,5-3.9c2.7,0,5,1.7,5,3.9v18.5c0,2.1,2.2,3.9,5,3.9c2.7,0,5-1.7,5-3.9v-3.9
	c0-2.1,2.2-3.9,5-3.9c2.7,0,5,1.7,5,3.9v1.6c0,2.1,2.2,3.9,5,3.9c2.7,0,5-1.7,5-3.9v-15c0-2.1,2.2-3.9,5-3.9c2.7,0,5,1.7,5,3.9V74
	c0,2.1,2.2,3.9,5,3.9c2.7,0,5-1.7,5-3.9v-7.8c0-2.1,2.2-3.9,5-3.9c2.7,0,5,1.7,5,3.9V71c0,2.1,2.2,3.9,5,3.9c2.7,0,5-1.7,5-3.9v-17
	c0-2.1,2.2-3.9,5-3.9c2.7,0,5,1.7,5,3.9v18.5c0,2.1,2.2,3.9,5,3.9c2.7,0,5-1.7,5-3.9v-3.9c0-2.1,2.2-3.9,5-3.9c2.7,0,5,1.7,5,3.9
	v1.6c0,2.1,2.2,3.9,5,3.9c2.7,0,5-1.7,5-3.9v-15c0-2.1,2.2-3.9,5-3.9c2.7,0,5,1.7,5,3.9V74c0,2.1,2.2,3.9,5,3.9c2.7,0,5-1.7,5-3.9
	v-7.8c0-2.1,2.2-3.9,5-3.9c2.7,0,5,1.7,5,3.9V71c0,2.1,2.2,3.9,5,3.9c2.7,0,5-1.7,5-3.9v-17c0-2.1,2.2-3.9,5-3.9c2.7,0,5,1.7,5,3.9
	v18.5c0,2.1,2.2,3.9,5,3.9c2.7,0,5-1.7,5-3.9v-3.9c0-2.1,2.2-3.9,5-3.9c2.7,0,5,1.7,5,3.9v1.6c0,2.1,2.2,3.9,5,3.9
	c2.7,0,5-1.7,5-3.9v-15c0-2.1,2.2-3.9,5-3.9c2.7,0,5,1.7,5,3.9V74c0,2.1,2.2,3.9,5,3.9c2.7,0,5-1.7,5-3.9v-7.8c0-2.1,2.2-3.9,5-3.9
	c2.7,0,5,1.7,5,3.9V71c0,2.1,2.2,3.9,5,3.9c2.7,0,5-1.7,5-3.9v-17c0-2.1,2.2-3.9,5-3.9c2.7,0,5,1.7,5,3.9v18.5c0,2.1,2.2,3.9,5,3.9
	c2.7,0,5-1.7,5-3.9v18.2v36.6H0z"/>
<path class="st3" d="M0,152v-15v-5.9V96.9C0,94.8,2.2,93,5,93s5,1.7,5,3.9v15c0,2.1,2.2,3.9,5,3.9c2.7,0,5-1.7,5-3.9v-7.8
	c0-2.1,2.2-3.9,5-3.9c2.7,0,5,1.7,5,3.9v11.4c0,2.1,2.2,3.9,5,3.9s5-1.7,5-3.9v-7.8c0-2.1,2.2-3.9,5-3.9l0,0c2.7,0,5,1.7,5,3.9v4.9
	c0,2.1,2.2,3.9,5,3.9c2.7,0,5-1.7,5-3.9V81.9c0-2.1,2.2-3.9,5-3.9l0,0c2.7,0,5,1.7,5,3.9v30c0,2.1,2.2,3.9,5,3.9c2.7,0,5-1.7,5-3.9
	V90.7c0-2.1,2.2-3.9,5-3.9l0,0c2.7,0,5,1.7,5,3.9v15c0,2.1,2.2,3.9,5,3.9c2.7,0,5-1.7,5-3.9v-7.8c0-2.1,2.2-3.9,5-3.9s5,1.7,5,3.9
	v11.5c0,2.1,2.2,3.9,5,3.9c2.7,0,5-1.7,5-3.9v-7.8c0-2.1,2.2-3.9,5-3.9c2.7,0,5,1.7,5,3.9v4.9c0,2.1,2.2,3.9,5,3.9
	c2.7,0,5-1.7,5-3.9V75.7c0-2.1,2.2-3.9,5-3.9s5,1.7,5,3.9v30c0,2.1,2.2,3.9,5,3.9c2.7,0,5-1.7,5-3.9v-8.8c0-2.1,2.2-3.9,5-3.9l0,0
	c2.7,0,5,1.7,5,3.9v15c0,2.1,2.2,3.9,5,3.9c2.7,0,5-1.7,5-3.9v-7.8c0-2.1,2.2-3.9,5-3.9l0,0c2.7,0,5,1.7,5,3.9v11.4
	c0,2.1,2.2,3.9,5,3.9c2.7,0,5-1.7,5-3.9v-7.8c0-2.1,2.2-3.9,5-3.9l0,0c2.7,0,5,1.7,5,3.9v4.9c0,2.1,2.2,3.9,5,3.9c2.7,0,5-1.7,5-3.9
	V81.9c0-2.1,2.2-3.9,5-3.9c2.7,0,5,1.7,5,3.9v30c0,2.1,2.2,3.9,5,3.9s5-1.7,5-3.9V90.7c0-2.1,2.2-3.9,5-3.9s5,1.7,5,3.9v15
	c0,2.1,2.2,3.9,5,3.9c2.7,0,5-1.7,5-3.9v-7.8c0-2.1,2.2-3.9,5-3.9c2.7,0,5,1.7,5,3.9v11.5c0,2.1,2.2,3.9,5,3.9c2.7,0,5-1.7,5-3.9
	v-7.8c0-2.1,2.2-3.9,5-3.9l0,0c2.7,0,5,1.7,5,3.9v4.9c0,2.1,2.2,3.9,5,3.9c2.7,0,5-1.7,5-3.9V75.7c0-2.1,2.2-3.9,5-3.9l0,0
	c2.7,0,5,1.7,5,3.9v30c0,2.1,2.2,3.9,5,3.9c2.7,0,5-1.7,5-3.9V86.2c0-2.1,2.2-3.9,5-3.9c2.7,0,5,1.7,5,3.9v15c0,2.1,2.2,3.9,5,3.9
	c2.7,0,5-1.7,5-3.9v-7.8c0-2.1,2.2-3.9,5-3.9c2.7,0,5,1.7,5,3.9v11.4c0,2.1,2.2,3.9,5,3.9c2.7,0,5-1.7,5-3.9v-7.8
	c0-2.1,2.2-3.9,5-3.9c2.7,0,5,1.7,5,3.9v4.9c0,2.1,2.2,3.9,5,3.9c2.7,0,5-1.7,5-3.9V71.1c0-2.1,2.2-3.9,5-3.9s5,1.7,5,3.9v30
	c0,2.1,2.2,3.9,5,3.9c2.7,0,5-1.7,5-3.9V79.9c0-2.1,2.2-3.9,5-3.9l0,0c2.7,0,5,1.7,5,3.9v15c0,2.1,2.2,3.9,5,3.9c2.7,0,5-1.7,5-3.9
	V87c0-2.1,2.2-3.9,5-3.9l0,0c2.7,0,5,1.7,5,3.9v11.4c0,2.1,2.2,3.9,5,3.9c2.7,0,5-1.7,5-3.9v-7.8c0-2.1,2.2-3.9,5-3.9
	c2.7,0,5,1.7,5,3.9v4.9c0,2.1,2.2,3.9,5,3.9c2.7,0,5-1.7,5-3.9V64.8c0-2.1,2.2-3.9,5-3.9c2.7,0,5,1.7,5,3.9v30c0,2.1,2.2,3.9,5,3.9
	c2.7,0,5-1.7,5-3.9V86c0-2.1,2.2-3.9,5-3.9c2.7,0,5,1.7,5,3.9v15c0,2.1,2.2,3.9,5,3.9c2.7,0,5-1.7,5-3.9v-7.8c0-2.1,2.2-3.9,5-3.9
	c2.7,0,5,1.7,5,3.9v11.4c0,2.1,2.2,3.9,5,3.9s5-1.7,5-3.9v-7.8c0-2.1,2.2-3.9,5-3.9c2.7,0,5,1.7,5,3.9v4.9c0,2.1,2.2,3.9,5,3.9
	c2.7,0,5-1.7,5-3.9V71c0-2.1,2.2-3.9,5-3.9s5,1.7,5,3.9v30c0,2.1,2.2,3.9,5,3.9c2.7,0,5-1.7,5-3.9V79.7c0-2.1,2.2-3.9,5-3.9
	c2.7,0,5,1.7,5,3.9v15c0,2.1,2.2,3.9,5,3.9c2.7,0,5-1.7,5-3.9v-7.8c0-2.1,2.2-3.9,5-3.9c2.7,0,5,1.7,5,3.9v11.4c0,2.1,2.2,3.9,5,3.9
	c2.7,0,5-1.7,5-3.9v-7.8c0-2.1,2.2-3.9,5-3.9c2.7,0,5,1.7,5,3.9v4.9c0,2.1,2.2,3.9,5,3.9s5-1.7,5-3.9V64.7c0-2.1,2.2-3.9,5-3.9
	c2.7,0,5,1.7,5,3.9v30c0,2.1,2.2,3.9,5,3.9s5-1.7,5-3.9v21.2v1.3v2.6v11.1v3.9V158H0V152z"/>
</svg>
