<?xml version="1.0" encoding="utf-8"?>
<!-- Generator: Adobe Illustrator 22.1.0, SVG Export Plug-In . SVG Version: 6.00 Build 0)  -->
<svg version="1.1" id="Layer_1" xmlns="http://www.w3.org/2000/svg" xmlns:xlink="http://www.w3.org/1999/xlink" x="0px" y="0px"
	 viewBox="0 0 638.4 446" style="enable-background:new 0 0 638.4 446;" xml:space="preserve">
<style type="text/css">
	.st0{fill:#703322;}
	.st1{fill:#512419;}
</style>
<rect class="st0" width="640" height="446"/>
<g>
	<path class="st1" d="M614.9,364.5c0-1.4-1.1-2.6-2.6-2.6h-23.5c0-1.4-1.1-2.6-2.6-2.6h-51.4c-1.4,0-2.6,1.1-2.6,2.6
		c0,1.4,1.1,2.6,2.6,2.6h23.5c0,1.4,1.1,2.6,2.6,2.6h51.4C613.7,367,614.9,365.9,614.9,364.5z"/>
	<path class="st1" d="M297.1,307.1h51.4c1.4,0,2.6-1.1,2.6-2.6c0-1.4-1.1-2.6-2.6-2.6H325c0-1.4-1.1-2.6-2.6-2.6h-51.4
		c-1.4,0-2.6,1.1-2.6,2.6s1.1,2.6,2.6,2.6h23.5C294.6,306,295.7,307.1,297.1,307.1z"/>
	<path class="st1" d="M276.4,161.3h-23.5c0-1.4-1.1-2.6-2.6-2.6h-28.8c-1.4,0-2.6,1.1-2.6,2.6c0,1.4,1.1,2.6,2.6,2.6h1
		c0,1.4,1.1,2.6,2.6,2.6h51.4c1.4,0,2.6-1.1,2.6-2.6C279,162.5,277.9,161.3,276.4,161.3z"/>
	<path class="st1" d="M534.9,167.8h23.5c0,1.4,1.1,2.6,2.6,2.6h51.4c1.4,0,2.6-1.1,2.6-2.6c0-1.4-1.1-2.6-2.6-2.6h-23.5
		c0-1.4-1.1-2.6-2.6-2.6h-51.4c-1.4,0-2.6,1.1-2.6,2.6S533.4,167.8,534.9,167.8z"/>
	<path class="st1" d="M204.9,380.5h-23.5c0-1.4-1.1-2.6-2.6-2.6h-51.4c-1.4,0-2.6,1.1-2.6,2.6c0,1.4,1.1,2.6,2.6,2.6H151
		c0,1.4,1.1,2.6,2.6,2.6h51.4c1.4,0,2.6-1.1,2.6-2.6C207.5,381.6,206.3,380.5,204.9,380.5z"/>
</g>
<path class="st1" d="M564.9,316.1c0-1.4-1.1-2.6-2.6-2.6h-23.5c0-1.4-1.1-2.6-2.6-2.6h-51.4c-1.4,0-2.6,1.1-2.6,2.6
	c0,1.4,1.1,2.6,2.6,2.6h23.5c0,1.4,1.1,2.6,2.6,2.6h51.4C563.8,318.7,564.9,317.5,564.9,316.1z"/>
<path class="st1" d="M247.2,258.8h51.4c1.4,0,2.6-1.1,2.6-2.6c0-1.4-1.1-2.6-2.6-2.6h-23.5c0-1.4-1.1-2.6-2.6-2.6h-51.4
	c-1.4,0-2.6,1.1-2.6,2.6c0,1.4,1.1,2.6,2.6,2.6h23.5C244.6,257.7,245.8,258.8,247.2,258.8z"/>
<path class="st1" d="M185,83.9h-23.5c0-1.4-1.1-2.6-2.6-2.6h-28.8c-1.4,0-2.6,1.1-2.6,2.6c0,1.4,1.1,2.6,2.6,2.6h1
	c0,1.4,1.1,2.6,2.6,2.6H185c1.4,0,2.6-1.1,2.6-2.6S186.5,83.9,185,83.9z"/>
<path class="st1" d="M484.9,119.4h23.5c0,1.4,1.1,2.6,2.6,2.6h51.4c1.4,0,2.6-1.1,2.6-2.6c0-1.4-1.1-2.6-2.6-2.6h-23.5
	c0-1.4-1.1-2.6-2.6-2.6h-51.4c-1.4,0-2.6,1.1-2.6,2.6S483.5,119.4,484.9,119.4z"/>
<path class="st1" d="M155,332.1h-23.5c0-1.4-1.1-2.6-2.6-2.6H77.6c-1.4,0-2.6,1.1-2.6,2.6s1.1,2.6,2.6,2.6h23.5
	c0,1.4,1.1,2.6,2.6,2.6H155c1.4,0,2.6-1.1,2.6-2.6C157.6,333.3,156.4,332.1,155,332.1z"/>
</svg>
