<?xml version="1.0" encoding="utf-8"?>
<!-- Generator: Adobe Illustrator 22.1.0, SVG Export Plug-In . SVG Version: 6.00 Build 0)  -->
<svg version="1.1" id="Layer_1" xmlns="http://www.w3.org/2000/svg" xmlns:xlink="http://www.w3.org/1999/xlink" x="0px" y="0px"
	 viewBox="0 0 1280 750.5" style="enable-background:new 0 0 1280 750.5;" xml:space="preserve">
<style type="text/css">
	.st0{fill:#C5CCC6;}
	.st1{fill:#659257;}
</style>
<polygon class="st0" points="1280,745.9 1280,254.1 1280,0 0,0 0,254.1 0,720 0,743 0,750.5 1280,750.5 "/>
<path class="st1" d="M1197.2,0h-79.6h-79.6h-79.6h-79.6H799h-79.6h-78.7h-1h-81.9h-79.6h-79.6H319h-79.6h-79.6H80.1H0.5v28.2
	c0,2.7,2.2,5,5,5c2.7,0,5-2.2,5-5v-2.1c0-2.7,2.2-5,5-5c2.7,0,5,2.2,5,5v19.1c0,2.7,2.2,5,5,5c2.7,0,5-2.2,5-5V21.6c0-2.7,2.2-5,5-5
	c2.7,0,5,2.2,5,5v10c0,2.7,2.2,5,5,5c2.7,0,5-2.2,5-5v-6.2c0-2.7,2.2-5,5-5c2.7,0,5,2.2,5,5V47c0,2.7,2.2,5,5,5c2.7,0,5-2.2,5-5
	V23.2c0-2.7,2.2-5,5-5c2.7,0,5,2.2,5,5v5c0,2.7,2.2,5,5,5c2.7,0,5-2.2,5-5v-2.1c0-2.7,2.2-5,5-5c2.7,0,5,2.2,5,5v19.1
	c0,2.7,2.2,5,5,5c2.7,0,5-2.2,5-5V21.6c0-2.7,2.2-5,5-5c2.7,0,5,2.2,5,5v10c0,2.7,2.2,5,5,5c2.7,0,5-2.2,5-5v-6.2c0-2.7,2.2-5,5-5
	c2.7,0,5,2.2,5,5V47c0,2.7,2.2,5,5,5c2.7,0,5-2.2,5-5V23.2c0-2.7,2.2-5,5-5c2.7,0,5,2.2,5,5v5c0,2.7,2.2,5,5,5c2.7,0,5-2.2,5-5v-2.1
	c0-2.7,2.2-5,5-5c2.7,0,5,2.2,5,5v19.1c0,2.7,2.2,5,5,5c2.7,0,5-2.2,5-5V21.6c0-2.7,2.2-5,5-5c2.7,0,5,2.2,5,5v10c0,2.7,2.2,5,5,5
	c2.7,0,5-2.2,5-5v-6.2c0-2.7,2.2-5,5-5c2.7,0,5,2.2,5,5V47c0,2.7,2.2,5,5,5c2.7,0,5-2.2,5-5V23.2c0-2.7,2.2-5,5-5c2.7,0,5,2.2,5,5v5
	c0,2.7,2.2,5,5,5c2.7,0,5-2.2,5-5v-2.1c0-2.7,2.2-5,5-5c2.7,0,5,2.2,5,5v19.1c0,2.7,2.2,5,5,5c2.7,0,5-2.2,5-5V21.6c0-2.7,2.2-5,5-5
	c2.7,0,5,2.2,5,5v10c0,2.7,2.2,5,5,5c2.7,0,5-2.2,5-5v-6.2c0-2.7,2.2-5,5-5c2.7,0,5,2.2,5,5V47c0,2.7,2.2,5,5,5c2.7,0,5-2.2,5-5
	V23.2c0-2.7,2.2-5,5-5c2.7,0,5,2.2,5,5v5c0,2.7,2.2,5,5,5c2.7,0,5-2.2,5-5v-2.1c0-2.7,2.2-5,5-5c2.7,0,5,2.2,5,5v19.1
	c0,2.7,2.2,5,5,5c2.7,0,5-2.2,5-5V21.6c0-2.7,2.2-5,5-5c2.7,0,5,2.2,5,5v10c0,2.7,2.2,5,5,5c2.7,0,5-2.2,5-5v-6.2c0-2.7,2.2-5,5-5
	c2.8,0,5,2.2,5,5V47c0,2.7,2.2,5,5,5s5-2.2,5-5V23.2c0-2.7,2.2-5,5-5c2.8,0,5,2.2,5,5v5c0,2.7,2.2,5,5,5c2.7,0,5-2.2,5-5v-2.1
	c0-2.7,2.2-5,5-5c2.7,0,5,2.2,5,5v19.1c0,2.7,2.2,5,5,5c2.7,0,5-2.2,5-5V21.6c0-2.7,2.2-5,5-5c2.7,0,5,2.2,5,5v10c0,2.7,2.2,5,5,5
	c2.7,0,5-2.2,5-5v-6.2c0-2.7,2.2-5,5-5c2.7,0,5,2.2,5,5V47c0,2.7,2.2,5,5,5c2.7,0,5-2.2,5-5V23.2c0-2.7,2.2-5,5-5c2.7,0,5,2.2,5,5v5
	c0,2.7,2.2,5,5,5c2.7,0,5-2.2,5-5v-2.1c0-2.7,2.2-5,5-5c2.7,0,5,2.2,5,5v19.1c0,2.7,2.2,5,5,5c2.7,0,5-2.2,5-5V21.6c0-2.7,2.2-5,5-5
	c2.8,0,5,2.2,5,5v10c0,2.7,2.2,5,5,5s5-2.2,5-5v-6.2c0-2.7,2.2-5,5-5s5,2.2,5,5V47c0,2.7,2.2,5,5,5s5-2.2,5-5V23.2c0-2.7,2.2-5,5-5
	c2.8,0,5,2.2,5,5v5c0,2.7,2.2,5,5,5s5-2.2,5-5v-2.1c0-2.7,2.2-5,5-5s5,2.2,5,5v19.1c0,2.7,2.2,5,5,5c2.8,0,5-2.2,5-5V21.6
	c0-2.7,2.2-5,5-5s5,2.2,5,5v10c0,2.7,2.2,5,5,5s5-2.2,5-5v-6.2c0-2.7,2.2-5,5-5c2.8,0,5,2.2,5,5V47c0,2.7,2.2,5,5,5s5-2.2,5-5V23.2
	c0-2.7,2.2-5,5-5c1.7,0,3.1,0.8,4,2v8c0,2.7,2.2,5,5,5c2.7,0,5-2.2,5-5v-2.1c0-2.7,2.2-5,5-5c2.7,0,5,2.2,5,5v19.1c0,2.7,2.2,5,5,5
	c2.7,0,5-2.2,5-5V21.6c0-2.7,2.2-5,5-5c2.7,0,5,2.2,5,5v10c0,2.7,2.2,5,5,5c2.7,0,5-2.2,5-5v-6.2c0-2.7,2.2-5,5-5c2.7,0,5,2.2,5,5
	V47c0,2.7,2.2,5,5,5c2.7,0,5-2.2,5-5V23.2c0-2.7,2.2-5,5-5c2.7,0,5,2.2,5,5v5c0,2.7,2.2,5,5,5c2.7,0,5-2.2,5-5v-2.1c0-2.7,2.2-5,5-5
	c2.7,0,5,2.2,5,5v19.1c0,2.7,2.2,5,5,5c2.7,0,5-2.2,5-5V21.6c0-2.7,2.2-5,5-5c2.7,0,5,2.2,5,5v10c0,2.7,2.2,5,5,5c2.7,0,5-2.2,5-5
	v-6.2c0-2.7,2.2-5,5-5c2.7,0,5,2.2,5,5V47c0,2.7,2.2,5,5,5c2.7,0,5-2.2,5-5V23.2c0-2.7,2.2-5,5-5c2.7,0,5,2.2,5,5v5c0,2.7,2.2,5,5,5
	c2.7,0,5-2.2,5-5v-2.1c0-2.7,2.2-5,5-5c2.7,0,5,2.2,5,5v19.1c0,2.7,2.2,5,5,5c2.7,0,5-2.2,5-5V21.6c0-2.7,2.2-5,5-5c2.7,0,5,2.2,5,5
	v10c0,2.7,2.2,5,5,5c2.7,0,5-2.2,5-5v-6.2c0-2.7,2.2-5,5-5c2.7,0,5,2.2,5,5V47c0,2.7,2.2,5,5,5c2.7,0,5-2.2,5-5V23.2
	c0-2.7,2.2-5,5-5c2.7,0,5,2.2,5,5v5c0,2.7,2.2,5,5,5c2.7,0,5-2.2,5-5v-2.1c0-2.7,2.2-5,5-5c2.7,0,5,2.2,5,5v19.1c0,2.7,2.2,5,5,5
	c2.7,0,5-2.2,5-5V21.6c0-2.7,2.2-5,5-5c2.7,0,5,2.2,5,5v10c0,2.7,2.2,5,5,5c2.7,0,5-2.2,5-5v-6.2c0-2.7,2.2-5,5-5c2.7,0,5,2.2,5,5
	V47c0,2.7,2.2,5,5,5c2.7,0,5-2.2,5-5V23.2c0-2.7,2.2-5,5-5c2.7,0,5,2.2,5,5v5c0,2.7,2.2,5,5,5c2.7,0,5-2.2,5-5v-2.1c0-2.7,2.2-5,5-5
	c2.7,0,5,2.2,5,5v19.1c0,2.7,2.2,5,5,5c2.7,0,5-2.2,5-5V21.6c0-2.7,2.2-5,5-5c2.7,0,5,2.2,5,5v10c0,2.7,2.2,5,5,5c2.7,0,5-2.2,5-5
	v-6.2c0-2.7,2.2-5,5-5c2.8,0,5,2.2,5,5V47c0,2.7,2.2,5,5,5c2.8,0,5-2.2,5-5V23.2c0-2.7,2.2-5,5-5s5,2.2,5,5v5c0,2.7,2.2,5,5,5
	c2.7,0,5-2.2,5-5v-2.1c0-2.7,2.2-5,5-5c2.7,0,5,2.2,5,5v19.1c0,2.7,2.2,5,5,5c2.7,0,5-2.2,5-5V21.6c0-2.7,2.2-5,5-5c2.7,0,5,2.2,5,5
	v10c0,2.7,2.2,5,5,5c2.7,0,5-2.2,5-5v-6.2c0-2.7,2.2-5,5-5c2.7,0,5,2.2,5,5V47c0,2.7,2.2,5,5,5c2.7,0,5-2.2,5-5V23.2
	c0-2.7,2.2-5,5-5c2.7,0,5,2.2,5,5v5c0,2.7,2.2,5,5,5c2.7,0,5-2.2,5-5v-2.1c0-2.7,2.2-5,5-5c2.7,0,5,2.2,5,5v19.1c0,2.7,2.2,5,5,5
	c2.7,0,5-2.2,5-5V21.6c0-2.7,2.2-5,5-5c2.8,0,5,2.2,5,5v10c0,2.7,2.2,5,5,5c2.8,0,5-2.2,5-5v-6.2c0-2.7,2.2-5,5-5c2.8,0,5,2.2,5,5
	V47c0,2.7,2.2,5,5,5c2.8,0,5-2.2,5-5V23.2c0-2.7,2.2-5,5-5c2.8,0,5,2.2,5,5v5c0,2.7,2.2,5,5,5c2.8,0,5-2.2,5-5v-2.1c0-2.7,2.2-5,5-5
	c2.8,0,5,2.2,5,5v19.1c0,2.7,2.2,5,5,5c2.8,0,5-2.2,5-5V21.6c0-2.7,2.2-5,5-5s5,2.2,5,5v10c0,2.7,2.2,5,5,5c2.8,0,5-2.2,5-5v-6.2
	c0-2.7,2.2-5,5-5c2.8,0,5,2.2,5,5V47c0,2.7,2.2,5,5,5s5-2.2,5-5V23.2c0-2.7,2.2-5,5-5c2.8,0,5,2.2,5,5V0H1197.2z"/>
</svg>
