<?xml version="1.0" encoding="utf-8"?>
<!-- Generator: Adobe Illustrator 22.1.0, SVG Export Plug-In . SVG Version: 6.00 Build 0)  -->
<svg version="1.1" id="Layer_1" xmlns="http://www.w3.org/2000/svg" xmlns:xlink="http://www.w3.org/1999/xlink" x="0px" y="0px"
	 viewBox="0 0 1920 2025" style="enable-background:new 0 0 1920 2025;" xml:space="preserve">
<style type="text/css">
	.st0{fill:#252540;}
	.st1{fill:#548692;}
	.st2{fill:#95D8ED;}
</style>
<rect y="-1" class="st0" width="1920" height="214"/>
<g>
	<path class="st1" d="M1907.1,136.5c-7.5,0-13.6-5.3-13.6-11.9V97.8c0-6.5-6.1-11.9-13.6-11.9s-13.6,5.3-13.6,11.9
		c0,6.5-6.1,11.9-13.6,11.9s-13.6-5.3-13.6-11.9V70.1c0-6.5-6.1-11.9-13.6-11.9s-13.6,5.3-13.6,11.9v45c0,6.5-6.1,11.9-13.6,11.9
		s-13.6-5.3-13.6-11.9V25c0-6.5-6.1-11.9-13.6-11.9s-13.6,5.3-13.6,11.9v90.1c0,6.5-6.1,11.9-13.6,11.9s-13.6-5.3-13.6-11.9v-12.4
		c0-6.5-6.1-11.9-13.6-11.9s-13.6,5.3-13.6,11.9v32.2c-1.9,4.5-6.9,7.7-12.7,7.7c-7.5,0-13.6-5.3-13.6-11.9v-17.3
		c0-6.5-6.1-11.9-13.6-11.9s-13.6,5.3-13.6,11.9s-6.1,11.9-13.6,11.9s-13.6-5.3-13.6-11.9V85.7c0-6.5-6.1-11.9-13.6-11.9
		s-13.6,5.3-13.6,11.9v45c0,6.5-6.1,11.9-13.6,11.9s-13.6-5.3-13.6-11.9V40.6c0-6.5-6.1-11.9-13.6-11.9s-13.6,5.3-13.6,11.9v90.1
		c0,6.5-6.1,11.9-13.6,11.9s-13.6-5.3-13.6-11.9v-12.3c0-6.5-6.1-11.9-13.6-11.9s-13.6,5.3-13.6,11.9v6.2c0,6.5-6.1,11.9-13.6,11.9
		s-13.6-5.3-13.6-11.9V97.8c0-6.5-6.1-11.9-13.6-11.9s-13.6,5.3-13.6,11.9c0,6.5-6.1,11.9-13.6,11.9s-14-5.3-14-11.9V70.1
		c0-6.5-6.1-11.9-13.6-11.9s-13.6,5.3-13.6,11.9v45c0,6.5-6.1,11.9-13.6,11.9s-13.6-5.3-13.6-11.9V25c0-6.5-6.1-11.9-13.6-11.9
		s-13.6,5.3-13.6,11.9v90.1c0,6.5-6.1,11.9-13.6,11.9s-13.6-5.3-13.6-11.9v-12.4c0-6.5-6.1-11.9-13.6-11.9
		c-8.5,0.1-14.6,5.4-14.6,12v32.5c-1.7,0.8-3.7,1.2-5.8,1.2c-7.3,0-13.3-5.3-13.3-11.9V97.8c0-6.5-6-11.9-13.3-11.9
		s-13.3,5.3-13.3,11.9c0,6.5-6,11.9-13.3,11.9s-13.3-5.3-13.3-11.9V70.1c0-6.5-6-11.9-13.3-11.9s-13.3,5.3-13.3,11.9v45
		c0,6.5-6,11.9-13.3,11.9s-13.3-5.3-13.3-11.9V25c0-6.5-6-11.9-13.3-11.9s-13.3,5.3-13.3,11.9v90.1c0,6.5-6,11.9-13.3,11.9
		s-13.3-5.3-13.3-11.9v-12.4c0-6.5-6-11.9-13.3-11.9s-13.3,5.3-13.3,11.9v32.2c-1.9,4.5-6.8,7.7-12.4,7.7c-7.3,0-13.3-5.3-13.3-11.9
		v-17.3c0-6.5-6-11.9-13.3-11.9s-13.3,5.3-13.3,11.9s-6,11.9-13.3,11.9s-13.3-5.3-13.3-11.9V85.7c0-6.5-6-11.9-13.3-11.9
		s-13.3,5.3-13.3,11.9v45c0,6.5-6,11.9-13.3,11.9s-13.3-5.3-13.3-11.9V40.6c0-6.5-6-11.9-13.3-11.9s-13.3,5.3-13.3,11.9v90.1
		c0,6.5-6,11.9-13.3,11.9s-13.3-5.3-13.3-11.9v-12.3c0-6.5-6-11.9-13.3-11.9s-13.3,5.3-13.3,11.9v6.2c0,6.5-6,11.9-13.3,11.9
		s-13.3-5.3-13.3-11.9V97.8c0-6.5-6-11.9-13.3-11.9S797,91.2,797,97.8c0,6.5-6,11.9-13.3,11.9S770,104.4,770,97.8V70.1
		c0-6.5-6-11.9-13.3-11.9s-13.3,5.3-13.3,11.9v45c0,6.5-6,11.9-13.3,11.9s-13.3-5.3-13.3-11.9V25c0-6.5-6-11.9-13.3-11.9
		s-13.3,5.3-13.3,11.9v90.1c0,6.5-6,11.9-13.3,11.9s-13.3-5.3-13.3-11.9v-12.4c0-6.5-6-11.9-13.3-11.9c-8.3,0.1-14.3,5.4-14.3,12
		v29.6c-2.3,2.5-5.9,4.1-9.9,4.1c-7.3,0-13.3-5.3-13.3-11.9V97.8c0-6.5-6-11.9-13.3-11.9s-13.3,5.3-13.3,11.9
		c0,6.5-6,11.9-13.3,11.9s-13.3-5.3-13.3-11.9V70.1c0-6.5-6-11.9-13.3-11.9S533,63.5,533,70.1v45c0,6.5-6,11.9-13.3,11.9
		s-13.3-5.3-13.3-11.9V25c0-6.5-6-11.9-13.3-11.9s-13.3,5.3-13.3,11.9v90.1c0,6.5-6,11.9-13.3,11.9s-13.3-5.3-13.3-11.9v-12.4
		c0-6.5-6-11.9-13.3-11.9s-13.3,5.3-13.3,11.9v32.2c-1.9,4.5-6.8,7.7-12.4,7.7c-7.3,0-13.3-5.3-13.3-11.9v-17.3
		c0-6.5-6-11.9-13.3-11.9s-13.3,5.3-13.3,11.9s-6,11.9-13.3,11.9s-13.3-5.3-13.3-11.9V85.7c0-6.5-6-11.9-13.3-11.9
		s-13.3,5.3-13.3,11.9v45c0,6.5-6,11.9-13.3,11.9s-13.3-5.3-13.3-11.9V40.6c0-6.5-6-11.9-13.3-11.9s-13.3,5.3-13.3,11.9v90.1
		c0,6.5-6,11.9-13.3,11.9s-13.3-5.3-13.3-11.9v-12.3c0-6.5-6-11.9-13.3-11.9s-13.3,5.3-13.3,11.9v6.2c0,6.5-6,11.9-13.3,11.9
		s-13.3-5.3-13.3-11.9V97.8c0-6.5-6-11.9-13.3-11.9s-13.3,5.3-13.3,11.9c0,6.5-6,11.9-13.3,11.9s-13.7-5.3-13.7-11.9V70.1
		c0-6.5-6-11.9-13.3-11.9s-13.3,5.3-13.3,11.9v45c0,6.5-6,11.9-13.3,11.9S81,121.7,81,115.1V25c0-6.5-6-11.9-13.3-11.9
		S54.4,18.4,54.4,25v90.1c0,6.5-6,11.9-13.3,11.9s-13.3-5.3-13.3-11.9v-12.4c0-6.5-6-11.9-13.3-11.9c-8.3,0.1-14.3,5.4-14.3,12v96.8
		h26.6h26.6H80h26.6h26.6h26.6h26.6h26.8h26.6h26.6h27H320h26.6h26.6H400h25.7h0.9h25.8H479h26.6h26.6H559h26.6h26.6h23.9h2.7h23.9
		h26.6H716h26.6h26.6h26.6h26.6h26.8h26.6h26.6h27H956h26.6h26.6h26.6h25.7h0.9h25.8h26.6h26.6h26.6h26.6h26.6h26.6h19.8h6.8h20.3
		h27.2h27.2h27.2h27.2h27.2h27.2h27.4h27.2h27.2h27.6h27.2h27.2h27.2h27.2h26.3h0.9h26.4h27.2h27.2h27.2h27.2h27.2h27.2h27.2V193v-4
		v-62.5C1919.4,132.1,1913.8,136.5,1907.1,136.5z"/>
	<path class="st1" d="M1919.9,124.7v1.8C1920,125.9,1920,125.3,1919.9,124.7z"/>
</g>
<path class="st2" d="M1907.6,160.1c-6.9,0-12.4-5.3-12.4-12.1v-2.9c0-5.4-5.6-10.1-12.4-10.1c-6.9,0-12.4,4.5-12.4,10.1v2.9
	c0,6.6-5.6,12.1-12.4,12.1c-6.9,0-12.4-5.3-12.4-12.1v-11.5v-20.4c0-7.7-5.6-14.1-12.4-14.1s-12.4,6.3-12.4,14.1v32.1
	c0,6.6-5.6,12.1-12.4,12.1s-12.4-5.3-12.4-12.1v-10.1c0-6.1-5.5-11-12.4-11s-12.4,5-12.4,11v45c0,6.6-5.5,12.1-12.4,12.1
	s-12.4-5.3-12.4-12.1v-12c0-6.6-5.5-12.1-12.4-12.1s-12.4,5.3-12.4,12.1v6.7c0,6.6-5.5,12.1-12.4,12.1s-12.4-5.5-12.4-12.3v-51.1
	c0-6.6-5.5-12.1-12.4-12.1s-12.4,5.3-12.4,12.1v27.9c0,6.6-5.5,12.1-12.4,12.1s-12.4-5.3-12.4-12.1v-1.9c0-6.6-5.6-12.1-12.4-12.1
	c-6.9,0-12.4,5.3-12.4,12.1v5.4c0,6.6-5.6,12.1-12.4,12.1c-6.9,0-12.4-5.3-12.4-12.1v-18.3c0-6.6-5.6-12.1-12.4-12.1
	c-6.9,0-12.4,5.3-12.4,12.1v18.5c0,6.6-5.6,12.1-12.4,12.1c-6.9,0-12.4-5.3-12.4-12.1v-12.4c0-6.6-5.6-12.1-12.4-12.1
	s-12.4,5.3-12.4,12.1v28.5c0,6.6-5.6,12.1-12.4,12.1c-6.9,0-12.4-5.3-12.4-12.1v-12c0-6.6-5.6-12.1-12.4-12.1
	c-6.9,0-12.4,5.3-12.4,12.1v6.7c0,6.6-5.6,12.1-12.4,12.1c-6.9,0-12.4-5.4-12.4-12.2v-51.1c0-6.6-5.5-12.1-12.4-12.1
	s-12.4,5.3-12.4,12.1v27.9c0,6.6-5.5,12.1-12.4,12.1s-12.4-5.3-12.4-12.1v-1.7c0-6.6-5.6-12.1-12.4-12.1s-12.4,5.3-12.4,12.1v5.4
	c0,6.6-5.5,12.1-12.4,12.1s-12.4-5.3-12.4-12.1v-18.3c0-6.6-5.6-12.1-12.4-12.1s-12.4,5.4-12.4,12.2v18.3c0,6.6-5.6,12.1-12.4,12.1
	s-12.4-5.3-12.4-12.1v-12.5c0-6.6-5.6-12.1-12.4-12.1c-6.9,0-11.2,5.3-11.2,12v13.9c-1.4,5.2-6.2,9.1-11.9,9.1
	c-6.8,0-12.3-5.3-12.3-12.1v-2.9c0-5.4-5.5-10.1-12.3-10.1s-12.3,4.5-12.3,10.1v2.9c0,6.6-5.5,12.1-12.3,12.1s-12.3-5.3-12.3-12.1
	v-11.5v-20.4c0-7.7-5.5-14.1-12.3-14.1s-12.3,6.3-12.3,14.1v32.1c0,6.6-5.5,12.1-12.3,12.1s-12.3-5.3-12.3-12.1v-10.1
	c0-6.1-5.5-11-12.3-11s-12.3,5-12.3,11v45c0,6.6-5.5,12.1-12.3,12.1s-12.3-5.3-12.3-12.1v-12c0-6.6-5.5-12.1-12.3-12.1
	s-12.3,5.3-12.3,12.1v6.7c0,6.6-5.5,12.1-12.3,12.1s-12.3-5.5-12.3-12.3v-51.1c0-6.6-5.5-12.1-12.3-12.1s-12.3,5.3-12.3,12.1v27.9
	c0,6.6-5.5,12.1-12.3,12.1s-12.3-5.3-12.3-12.1v-1.9c0-6.6-5.5-12.1-12.3-12.1s-12.9,5.3-12.9,12.1v5.4c0,6.6-5.5,12.1-12.3,12.1
	s-12.3-5.3-12.3-12.1v-18.3c0-6.6-5.5-12.1-12.3-12.1s-12.3,5.3-12.3,12.1v18.5c0,6.6-5.5,12.1-12.3,12.1s-12.3-5.3-12.3-12.1v-12.4
	c0-6.6-5.5-12.1-12.3-12.1s-12.3,5.3-12.3,12.1v28.5c0,6.6-5.5,12.1-12.3,12.1S858,181,858,174.2v-12c0-6.6-5.5-12.1-12.3-12.1
	s-12.3,5.3-12.3,12.1v6.7c0,6.6-5.5,12.1-12.3,12.1s-12.3-5.4-12.3-12.2v-51.1c0-6.6-5.5-12.1-12.3-12.1s-12.3,5.3-12.3,12.1v27.9
	c0,6.6-5.5,12.1-12.3,12.1s-12.3-5.3-12.3-12.1v-1.7c0-6.6-5.5-12.1-12.3-12.1s-12.3,5.3-12.3,12.1v5.4c0,6.6-5.5,12.1-12.3,12.1
	s-12.3-5.3-12.3-12.1v-18.3c0-6.6-5.5-12.1-12.3-12.1s-12.3,5.4-12.3,12.2v18.3c0,6.6-5.5,12.1-12.3,12.1s-12.3-5.3-12.3-12.1v-12.5
	c0-6.6-5.5-12.1-12.3-12.1s-11.1,5.3-11.1,12v13.9c-1.4,5.2-6.2,9.1-11.9,9.1c-6.8,0-12.3-5.3-12.3-12.1v-2.9
	c0-5.4-5.5-10.1-12.3-10.1s-12.3,4.5-12.3,10.1v2.9c0,6.6-5.5,12.1-12.3,12.1s-12.3-5.3-12.3-12.1v-11.5v-20.4
	c0-7.7-5.5-14.1-12.3-14.1s-12.3,6.3-12.3,14.1v32.1c0,6.6-5.5,12.1-12.3,12.1s-12.3-5.3-12.3-12.1v-10.1c0-6.1-5.5-11-12.3-11
	s-12.3,5-12.3,11v45c0,6.6-5.5,12.1-12.3,12.1s-12.3-5.3-12.3-12.1v-12c0-6.6-5.5-12.1-12.3-12.1s-12.3,5.3-12.3,12.1v6.7
	c0,6.6-5.5,12.1-12.3,12.1s-12.3-5.5-12.3-12.3v-51.1c0-6.6-5.5-12.1-12.3-12.1s-12.3,5.3-12.3,12.1v27.9c0,6.6-5.5,12.1-12.3,12.1
	s-12.3-5.3-12.3-12.1v-1.9c0-6.6-5.5-12.1-12.3-12.1s-12.3,5.3-12.3,12.1v5.4c0,6.6-5.5,12.1-12.3,12.1s-12.3-5.3-12.3-12.1v-18.3
	c0-6.6-5.5-12.1-12.3-12.1s-12.3,5.3-12.3,12.1v18.5c0,6.6-5.5,12.1-12.3,12.1s-12.3-5.3-12.3-12.1v-12.4c0-6.6-5.5-12.1-12.3-12.1
	s-12.3,5.3-12.3,12.1v28.5c0,6.6-5.5,12.1-12.3,12.1c-6.8,0-12.3-5.3-12.3-12.1v-12c0-6.6-5.5-12.1-12.3-12.1s-12.3,5.3-12.3,12.1
	v6.7c0,6.6-5.5,12.1-12.3,12.1c-6.8,0-12.3-5.4-12.3-12.2v-51.1c0-6.6-5.5-12.1-12.3-12.1s-12.3,5.3-12.3,12.1v27.9
	c0,6.6-5.5,12.1-12.3,12.1c-6.8,0-12.3-5.3-12.3-12.1v-1.7c0-6.6-5.5-12.1-12.3-12.1S97,137.4,97,144.1v5.4
	c0,6.6-5.5,12.1-12.3,12.1s-12.3-5.3-12.3-12.1v-18.3c0-6.6-5.5-12.1-12.3-12.1c-6.8,0-12.3,5.4-12.3,12.2v18.3
	c0,6.6-5.5,12.1-12.3,12.1s-12.3-5.3-12.3-12.1v-12.5c0-6.6-5.5-12.1-12.3-12.1c-6.8,0-11.1,5.3-11.1,12v80.8v29.8v44V1053v972H1920
	v-972V291.6v-44v-29.8v-0.5v-4V148C1920,154.5,1914.4,160.1,1907.6,160.1z"/>
</svg>
