<?xml version="1.0" encoding="utf-8"?>
<!-- Generator: Adobe Illustrator 22.0.1, SVG Export Plug-In . SVG Version: 6.00 Build 0)  -->
<svg version="1.1" id="Layer_1" xmlns="http://www.w3.org/2000/svg" xmlns:xlink="http://www.w3.org/1999/xlink" x="0px" y="0px"
	 viewBox="0 0 1920 1080" style="enable-background:new 0 0 1920 1080;" xml:space="preserve">
<style type="text/css">
	.st0{fill:#252540;}
	.st1{fill:#FFFFFF;}
</style>
<rect class="st0" width="1920" height="1083"/>
<g>
	<polygon class="st1" points="43.7,481.2 43.4,482.8 44.6,484 42.9,484.2 42.2,485.6 41.5,484 39.8,483.8 41,482.7 40.8,481.1 
		42.2,481.9 	"/>
	<polygon class="st1" points="147.9,398.7 147.7,400.3 148.9,401.6 147.2,401.7 146.3,403.1 145.6,401.6 144,401.2 145.3,400.2 
		144.9,398.6 146.5,399.4 	"/>
	<polygon class="st1" points="256.6,466.9 256.4,468.4 257.5,469.6 255.9,469.8 255,471.1 254.3,469.7 252.8,469.4 254,468.3 
		253.6,466.7 255.2,467.6 	"/>
	<polygon class="st1" points="394.8,481.2 394.5,482.8 395.7,484 394,484.2 393.2,485.6 392.5,484 390.9,483.8 392.1,482.7 
		391.8,481.1 393.3,481.9 	"/>
	<polygon class="st1" points="242,379.3 241.7,380.8 242.9,382.1 241.2,382.3 240.5,383.7 239.8,382.1 238.1,381.8 239.3,380.7 
		239.1,379.2 240.5,380 	"/>
	<polygon class="st1" points="327,311.9 326.7,313.4 327.9,314.6 326.3,314.7 325.4,316.2 324.7,314.6 323.2,314.4 324.4,313.3 
		324,311.6 325.6,312.5 	"/>
	<polygon class="st1" points="438.3,368.7 438.1,370.2 439.3,371.5 437.6,371.6 436.9,373.1 436.2,371.5 434.5,371.2 435.7,370.1 
		435.4,368.5 436.9,369.4 	"/>
	<polygon class="st1" points="197.2,324.5 196.9,326.1 198.1,327.3 196.5,327.4 195.6,328.8 194.9,327.4 193.2,327 194.5,325.9 
		194.2,324.3 195.7,325.1 	"/>
	<polygon class="st1" points="463,280.6 462.6,282.2 463.8,283.4 462.2,283.6 461.5,285 460.7,283.5 459.1,283.1 460.3,282 
		460,280.5 461.5,281.3 	"/>
	<polygon class="st1" points="55.7,311.9 55.3,313.4 56.5,314.6 54.8,314.7 54.1,316.2 53.4,314.6 51.7,314.4 52.9,313.3 
		52.7,311.6 54.1,312.5 	"/>
</g>
<g>
	<polygon class="st1" points="273.3,276.1 273.1,277.7 274.2,278.9 272.6,279.1 271.9,280.5 271,278.9 269.5,278.6 270.7,277.5 
		270.4,276 271.9,276.8 	"/>
	<polygon class="st1" points="377.6,193.6 377.2,195.2 378.4,196.4 376.7,196.6 376,197.9 375.3,196.5 373.6,196.1 374.8,195.1 
		374.6,193.5 376,194.3 	"/>
	<polygon class="st1" points="486.3,261.8 485.9,263.3 487.1,264.5 485.4,264.6 484.7,266.1 484,264.6 482.3,264.3 483.5,263.2 
		483.3,261.5 484.7,262.5 	"/>
	<polygon class="st1" points="624.4,276.1 624.1,277.7 625.3,278.9 623.6,279.1 622.9,280.5 622.2,278.9 620.5,278.6 621.7,277.5 
		621.4,276 622.9,276.8 	"/>
	<polygon class="st1" points="471.6,174.2 471.4,175.7 472.5,176.9 470.9,177.2 470,178.5 469.3,177 467.8,176.7 469,175.6 
		468.6,174.1 470.2,174.9 	"/>
	<polygon class="st1" points="556.7,106.6 556.3,108.3 557.5,109.5 555.8,109.6 555.1,111.1 554.4,109.5 552.7,109.3 553.9,108.2 
		553.7,106.5 555.1,107.4 	"/>
	<polygon class="st1" points="668,163.6 667.6,165.1 668.8,166.3 667.3,166.5 666.4,167.9 665.7,166.4 664,166.1 665.2,165 
		665,163.4 666.5,164.3 	"/>
	<polygon class="st1" points="426.9,119.4 426.5,121 427.7,122.2 426,122.3 425.3,123.7 424.6,122.2 422.9,121.9 424.1,120.8 
		423.9,119.2 425.3,120 	"/>
	<polygon class="st1" points="692.6,75.5 692.3,77.1 693.5,78.3 691.8,78.4 691,79.8 690.3,78.4 688.7,78 689.9,76.9 689.6,75.4 
		691.1,76.2 	"/>
	<polygon class="st1" points="285.2,106.6 285,108.3 286.2,109.5 284.5,109.6 283.8,111.1 283,109.5 281.4,109.3 282.6,108.2 
		282.4,106.5 283.8,107.4 	"/>
</g>
<g>
	<polygon class="st1" points="49.3,272.3 49.1,273.8 50.3,275 48.6,275.1 47.9,276.5 47.2,275.1 45.5,274.8 46.7,273.7 46.5,272 
		47.9,272.9 	"/>
	<polygon class="st1" points="153.6,189.8 153.3,191.4 154.5,192.6 152.8,192.7 152.1,194.1 151.4,192.6 149.7,192.3 150.9,191.2 
		150.6,189.6 152.1,190.4 	"/>
	<polygon class="st1" points="262.3,257.8 262,259.5 263.2,260.7 261.5,260.8 260.8,262.2 260.1,260.7 258.4,260.4 259.6,259.4 
		259.3,257.7 260.8,258.5 	"/>
	<polygon class="st1" points="400.5,272.3 400.1,273.8 401.3,275 399.6,275.1 398.9,276.5 398.2,275.1 396.5,274.8 397.7,273.7 
		397.5,272 398.9,272.9 	"/>
	<polygon class="st1" points="247.6,170.4 247.4,171.9 248.6,173.1 246.9,173.2 246.2,174.7 245.4,173.1 243.8,172.9 245,171.8 
		244.7,170.1 246.2,171 	"/>
	<polygon class="st1" points="332.7,102.8 332.4,104.4 333.5,105.6 331.9,105.7 331.2,107.1 330.4,105.7 328.8,105.3 330,104.3 
		329.7,102.7 331.2,103.5 	"/>
	<polygon class="st1" points="444,159.7 443.8,161.3 444.9,162.5 443.3,162.6 442.5,164 441.8,162.5 440.1,162.2 441.3,161.2 
		441,159.5 442.6,160.3 	"/>
	<polygon class="st1" points="202.9,115.5 202.5,117 203.7,118.2 202.1,118.5 201.3,119.8 200.6,118.3 199,118 200.2,116.9 
		199.9,115.4 201.3,116.2 	"/>
	<polygon class="st1" points="468.6,71.6 468.4,73.2 469.6,74.4 467.9,74.6 467.1,76 466.3,74.4 464.8,74.2 466,73.1 465.6,71.5 
		467.2,72.3 	"/>
	<polygon class="st1" points="61.3,102.8 61,104.4 62.2,105.6 60.6,105.7 59.8,107.1 59.1,105.7 57.5,105.3 58.7,104.3 58.4,102.7 
		59.8,103.5 	"/>
</g>
<polygon class="st1" points="259,667.4 257.5,668.1 256,667.3 256.4,669 255.2,670 256.7,670.3 257.5,671.8 258.3,670.4 
	259.9,670.3 258.7,669.1 "/>
<polygon class="st1" points="363.3,585 361.7,585.7 360.3,584.9 360.5,586.4 359.3,587.5 361,587.8 361.7,589.4 362.4,588 
	364.1,587.7 362.9,586.5 "/>
<polygon class="st1" points="472,653.1 470.4,653.8 469,653 469.2,654.5 468,655.6 469.7,656 470.4,657.4 471.1,656 472.8,655.8 
	471.6,654.7 "/>
<polygon class="st1" points="610.1,667.4 608.6,668.1 607.1,667.3 607.4,669 606.2,670 607.8,670.3 608.6,671.8 609.3,670.4 
	610.9,670.3 609.8,669.1 "/>
<polygon class="st1" points="457.3,565.5 455.8,566.2 454.3,565.4 454.7,567 453.5,568 455,568.4 455.7,569.9 456.6,568.5 
	458.2,568.3 457,567.1 "/>
<polygon class="st1" points="542.3,498 540.8,498.7 539.4,497.9 539.6,499.5 538.4,500.6 540.1,500.9 540.8,502.4 541.5,501 
	543.2,500.9 542,499.7 "/>
<polygon class="st1" points="653.7,554.9 652.2,555.6 650.7,554.8 650.9,556.3 649.7,557.4 651.4,557.8 652.1,559.2 652.9,557.9 
	654.5,557.7 653.3,556.5 "/>
<polygon class="st1" points="412.5,510.8 411,511.4 409.5,510.5 409.8,512.2 408.6,513.3 410.3,513.5 411,515.1 411.7,513.6 
	413.4,513.5 412.2,512.3 "/>
<polygon class="st1" points="678.2,466.9 676.8,467.6 675.3,466.7 675.6,468.3 674.3,469.4 676,469.7 676.7,471.1 677.5,469.8 
	679.2,469.6 678,468.4 "/>
<polygon class="st1" points="270.9,498 269.5,498.7 267.9,497.9 268.3,499.5 267.1,500.6 268.6,500.9 269.5,502.4 270.2,501 
	271.9,500.9 270.7,499.7 "/>
<polygon class="st1" points="173.5,657.8 172.1,658.5 170.7,657.6 170.9,659.2 169.7,660.3 171.4,660.6 172.1,662.2 172.8,660.7 
	174.5,660.6 173.3,659.4 "/>
<polygon class="st1" points="267.7,638.3 266.1,639 264.7,638.2 264.9,639.9 263.7,640.8 265.4,641.2 266.1,642.7 266.9,641.3 
	268.5,641.2 267.3,640 "/>
<polygon class="st1" points="352.6,570.9 351.2,571.5 349.8,570.7 350,572.3 348.8,573.4 350.5,573.8 351.2,575.2 351.9,573.8 
	353.6,573.6 352.4,572.4 "/>
<polygon class="st1" points="464.1,627.7 462.5,628.4 461.1,627.6 461.3,629.1 460.1,630.2 461.8,630.6 462.5,632.1 463.2,630.7 
	464.9,630.6 463.7,629.4 "/>
<polygon class="st1" points="222.8,583.5 221.4,584.1 220,583.3 220.2,585 219,586 220.7,586.4 221.4,587.8 222.1,586.4 
	223.8,586.3 222.6,585.1 "/>
<polygon class="st1" points="488.7,539.6 487.1,540.3 485.7,539.5 485.9,541.1 484.7,542.1 486.4,542.5 487.1,544 487.8,542.6 
	489.5,542.5 488.3,541.3 "/>
<polygon class="st1" points="81.3,570.9 79.9,571.5 78.3,570.7 78.6,572.3 77.4,573.4 79.1,573.8 79.8,575.2 80.6,573.8 82.2,573.6 
	81,572.4 "/>
<g>
	<polygon class="st1" points="102.8,949.5 102.6,951.1 103.7,952.3 102.1,952.5 101.4,953.9 100.6,952.3 99,952 100.2,950.9 
		99.9,949.4 101.4,950.2 	"/>
	<polygon class="st1" points="207.1,867 206.7,868.6 207.9,869.8 206.2,870 205.5,871.3 204.8,869.9 203.1,869.5 204.3,868.5 
		204.1,866.9 205.5,867.7 	"/>
	<polygon class="st1" points="315.8,935.2 315.4,936.7 316.6,937.9 314.9,938 314.2,939.5 313.5,938 311.8,937.7 313,936.6 
		312.8,934.9 314.2,935.9 	"/>
	<polygon class="st1" points="453.9,949.5 453.6,951.1 454.8,952.3 453.1,952.5 452.4,953.9 451.7,952.3 450,952 451.2,950.9 
		450.9,949.4 452.4,950.2 	"/>
	<polygon class="st1" points="301.1,847.6 300.8,849.1 302,850.3 300.4,850.6 299.7,851.9 298.8,850.4 297.3,850.1 298.5,849 
		298.2,847.5 299.7,848.3 	"/>
	<polygon class="st1" points="386.2,780 385.8,781.7 387,782.9 385.3,783 384.6,784.5 383.9,782.9 382.2,782.7 383.4,781.6 
		383.2,779.9 384.6,780.8 	"/>
	<polygon class="st1" points="497.5,837 497.2,838.5 498.3,839.7 496.8,839.9 495.9,841.3 495.2,839.8 493.5,839.5 494.9,838.4 
		494.5,836.8 496,837.7 	"/>
	<polygon class="st1" points="256.3,792.8 256,794.4 257.2,795.6 255.5,795.7 254.8,797.1 254.1,795.6 252.4,795.3 253.6,794.2 
		253.4,792.6 254.8,793.4 	"/>
	<polygon class="st1" points="522.1,748.9 521.8,750.5 523,751.7 521.3,751.8 520.5,753.2 519.8,751.8 518.2,751.4 519.4,750.3 
		519.1,748.8 520.6,749.6 	"/>
	<polygon class="st1" points="114.7,780 114.5,781.7 115.7,782.9 114,783 113.3,784.5 112.6,782.9 110.9,782.7 112.1,781.6 
		111.9,779.9 113.3,780.8 	"/>
</g>
<g>
	<polygon class="st1" points="312.4,1037.6 312.2,1039.3 313.4,1040.4 311.7,1040.6 311,1042 310.3,1040.4 308.6,1040.1 309.8,1039 
		309.6,1037.5 311,1038.3 	"/>
	<polygon class="st1" points="416.7,955.1 416.3,956.7 417.5,957.9 415.9,958.1 415.2,959.4 414.4,958 412.8,957.6 414,956.6 
		413.7,955 415.2,955.9 	"/>
	<polygon class="st1" points="525.4,1023.3 525,1024.8 526.2,1026 524.6,1026.1 523.8,1027.6 523.1,1026.1 521.5,1025.8 
		522.7,1024.7 522.4,1023 523.8,1024 	"/>
	<polygon class="st1" points="663.6,1037.6 663.2,1039.3 664.4,1040.4 662.7,1040.6 662,1042 661.3,1040.4 659.6,1040.1 660.8,1039 
		660.6,1037.5 662,1038.3 	"/>
	<polygon class="st1" points="510.7,935.7 510.5,937.2 511.7,938.4 510,938.7 509.3,940 508.5,938.6 506.9,938.2 508.1,937.1 
		507.9,935.6 509.3,936.4 	"/>
	<polygon class="st1" points="595.8,868.2 595.4,869.8 596.6,871 595,871.1 594.2,872.6 593.5,871 591.9,870.8 593,869.7 592.8,868 
		594.2,868.9 	"/>
	<polygon class="st1" points="707.1,925.1 706.9,926.6 707.9,927.8 706.4,928.1 705.6,929.4 704.8,927.9 703.2,927.6 704.5,926.5 
		704.1,925 705.7,925.8 	"/>
	<polygon class="st1" points="466,880.9 465.6,882.5 466.8,883.7 465.1,883.8 464.4,885.2 463.7,883.7 462,883.4 463.2,882.4 
		463,880.7 464.4,881.5 	"/>
	<polygon class="st1" points="731.7,837 731.4,838.6 732.6,839.8 731,839.9 730.1,841.3 729.4,839.9 727.9,839.5 729.1,838.5 
		728.7,836.9 730.3,837.7 	"/>
	<polygon class="st1" points="324.4,868.2 324.1,869.8 325.3,871 323.6,871.1 322.9,872.6 322.2,871 320.5,870.8 321.7,869.7 
		321.5,868 322.9,868.9 	"/>
</g>
<g>
	<polygon class="st1" points="50.2,412 49.9,413.7 51.1,414.9 49.5,415 48.7,416.4 48,414.9 46.4,414.5 47.6,413.5 47.3,411.9 
		48.7,412.7 	"/>
	<polygon class="st1" points="154.5,329.6 154.1,331.1 155.3,332.3 153.6,332.6 152.9,333.9 152.2,332.4 150.5,332.1 151.7,331 
		151.5,329.5 152.9,330.3 	"/>
	<polygon class="st1" points="263.2,397.7 262.8,399.3 264,400.5 262.3,400.6 261.6,402 260.9,400.6 259.2,400.2 260.4,399.1 
		260.2,397.5 261.6,398.4 	"/>
	<polygon class="st1" points="401.3,412 401,413.7 402.2,414.9 400.5,415 399.8,416.4 399.1,414.9 397.4,414.5 398.6,413.5 
		398.3,411.9 399.8,412.7 	"/>
	<polygon class="st1" points="248.5,310.1 248.2,311.7 249.4,312.9 247.8,313.1 247,314.4 246.2,313 244.7,312.6 245.9,311.6 
		245.6,310 247,310.9 	"/>
	<polygon class="st1" points="333.5,242.6 333.2,244.3 334.4,245.5 332.7,245.6 332,247 331.3,245.5 329.6,245.2 330.8,244.2 
		330.6,242.5 332,243.3 	"/>
	<polygon class="st1" points="444.9,299.5 444.6,301.1 445.7,302.3 444.2,302.5 443.3,303.8 442.6,302.4 440.9,302 442.2,300.9 
		441.9,299.4 443.4,300.2 	"/>
	<polygon class="st1" points="203.7,255.4 203.4,256.9 204.6,258.1 202.9,258.2 202.2,259.7 201.5,258.1 199.8,257.9 201,256.8 
		200.8,255.1 202.2,256 	"/>
	<polygon class="st1" points="469.4,211.5 469.2,213 470.4,214.2 468.7,214.3 467.9,215.8 467.2,214.3 465.6,214 466.8,212.9 
		466.5,211.3 468,212.2 	"/>
	<polygon class="st1" points="62.1,242.6 61.9,244.3 63.1,245.5 61.4,245.6 60.7,247 60,245.5 58.3,245.2 59.5,244.2 59.2,242.5 
		60.7,243.3 	"/>
</g>
<g>
	<polygon class="st1" points="310,421 309.8,422.7 311,423.9 309.3,424 308.6,425.5 307.9,423.9 306.2,423.5 307.4,422.5 
		307.2,420.9 308.6,421.8 	"/>
	<polygon class="st1" points="414.3,338.6 414,340.1 415.2,341.3 413.5,341.6 412.8,342.9 412,341.5 410.4,341.1 411.6,340 
		411.3,338.5 412.8,339.3 	"/>
	<polygon class="st1" points="523,406.7 522.7,408.3 523.8,409.5 522.2,409.6 521.5,411 520.7,409.6 519.1,409.2 520.3,408.2 
		520,406.5 521.5,407.4 	"/>
	<polygon class="st1" points="661.2,421 660.8,422.7 662,423.9 660.3,424 659.6,425.5 658.9,423.9 657.2,423.5 658.4,422.5 
		658.2,420.9 659.6,421.8 	"/>
	<polygon class="st1" points="508.3,319.1 508.1,320.7 509.3,321.9 507.6,322.1 506.9,323.4 506.1,322 504.5,321.6 505.7,320.6 
		505.5,319 506.9,319.9 	"/>
	<polygon class="st1" points="593.4,251.6 593,253.3 594.2,254.5 592.6,254.6 591.9,256 591.1,254.5 589.5,254.2 590.7,253.2 
		590.4,251.5 591.9,252.3 	"/>
	<polygon class="st1" points="704.7,308.5 704.5,310.1 705.6,311.3 704,311.5 703.2,312.8 702.5,311.4 700.8,311 702.1,310 
		701.7,308.4 703.3,309.2 	"/>
	<polygon class="st1" points="463.6,264.4 463.2,265.9 464.4,267.1 462.8,267.2 462,268.7 461.3,267.1 459.7,266.9 460.8,265.8 
		460.6,264.1 462,265 	"/>
	<polygon class="st1" points="729.3,220.5 729.1,222 730.3,223.2 728.6,223.3 727.7,224.8 727,223.3 725.5,223 726.7,221.9 
		726.3,220.4 727.9,221.2 	"/>
	<polygon class="st1" points="322,251.6 321.7,253.3 322.9,254.5 321.3,254.6 320.5,256 319.8,254.5 318.1,254.2 319.3,253.2 
		319.1,251.5 320.5,252.3 	"/>
</g>
<g>
	<polygon class="st1" points="60.3,234.1 60.1,235.8 61.3,237 59.6,237.1 58.9,238.5 58.2,237 56.5,236.6 57.7,235.6 57.5,234 
		58.9,234.8 	"/>
	<polygon class="st1" points="164.6,151.7 164.2,153.2 165.4,154.4 163.8,154.7 163,156 162.3,154.6 160.7,154.2 161.9,153.1 
		161.6,151.6 163,152.4 	"/>
	<polygon class="st1" points="273.3,219.8 272.9,221.4 274.1,222.6 272.5,222.7 271.7,224.1 271,222.7 269.4,222.3 270.6,221.2 
		270.3,219.6 271.7,220.5 	"/>
	<polygon class="st1" points="411.5,234.1 411.1,235.8 412.3,237 410.6,237.1 409.9,238.5 409.2,237 407.5,236.6 408.7,235.6 
		408.5,234 409.9,234.8 	"/>
	<polygon class="st1" points="258.6,132.2 258.4,133.8 259.6,135 257.9,135.2 257.2,136.5 256.4,135.1 254.8,134.7 256,133.7 
		255.8,132.1 257.2,133 	"/>
	<polygon class="st1" points="343.7,64.7 343.3,66.4 344.5,67.6 342.9,67.7 342.1,69.1 341.4,67.6 339.8,67.3 340.9,66.3 
		340.7,64.6 342.1,65.4 	"/>
	<polygon class="st1" points="455,121.6 454.8,123.2 455.8,124.4 454.3,124.6 453.5,125.9 452.7,124.5 451.1,124.1 452.4,123.1 
		452,121.5 453.6,122.3 	"/>
	<polygon class="st1" points="213.9,77.5 213.5,79 214.7,80.2 213,80.3 212.3,81.8 211.6,80.2 209.9,80 211.1,78.9 210.9,77.2 
		212.3,78.1 	"/>
	<polygon class="st1" points="479.6,33.6 479.3,35.1 480.5,36.3 478.9,36.4 478,37.9 477.3,36.4 475.8,36.1 477,35 476.6,33.4 
		478.2,34.3 	"/>
	<polygon class="st1" points="72.3,64.7 72,66.4 73.2,67.6 71.5,67.7 70.8,69.1 70.1,67.6 68.4,67.3 69.6,66.3 69.4,64.6 70.8,65.4 
			"/>
</g>
<g>
	<polygon class="st1" points="287.7,248.6 287.5,250.3 288.7,251.5 287,251.6 286.3,253 285.6,251.5 283.9,251.1 285.1,250.1 
		284.9,248.5 286.3,249.3 	"/>
	<polygon class="st1" points="392,166.2 391.6,167.7 392.8,168.9 391.2,169.2 390.5,170.5 389.7,169 388.1,168.7 389.3,167.6 
		389,166.1 390.5,166.9 	"/>
	<polygon class="st1" points="500.7,234.3 500.3,235.9 501.5,237.1 499.9,237.2 499.1,238.6 498.4,237.2 496.8,236.8 498,235.7 
		497.7,234.1 499.1,235 	"/>
	<polygon class="st1" points="638.9,248.6 638.5,250.3 639.7,251.5 638,251.6 637.3,253 636.6,251.5 634.9,251.1 636.1,250.1 
		635.9,248.5 637.3,249.3 	"/>
	<polygon class="st1" points="486,146.7 485.8,148.3 487,149.5 485.3,149.7 484.6,151 483.8,149.6 482.2,149.2 483.4,148.2 
		483.2,146.6 484.6,147.5 	"/>
	<polygon class="st1" points="571.1,79.2 570.7,80.9 571.9,82.1 570.3,82.2 569.5,83.6 568.8,82.1 567.2,81.8 568.3,80.8 
		568.1,79.1 569.5,79.9 	"/>
	<polygon class="st1" points="682.4,136.1 682.2,137.7 683.2,138.9 681.7,139.1 680.9,140.4 680.1,139 678.5,138.6 679.8,137.6 
		679.4,136 681,136.8 	"/>
	<polygon class="st1" points="441.3,92 440.9,93.5 442.1,94.7 440.4,94.8 439.7,96.3 439,94.7 437.3,94.5 438.5,93.4 438.3,91.7 
		439.7,92.6 	"/>
	<polygon class="st1" points="707,48.1 706.8,49.6 707.9,50.8 706.3,50.9 705.4,52.4 704.7,50.9 703.2,50.6 704.4,49.5 704,47.9 
		705.6,48.8 	"/>
	<polygon class="st1" points="299.7,79.2 299.4,80.9 300.6,82.1 298.9,82.2 298.2,83.6 297.5,82.1 295.8,81.8 297,80.8 296.8,79.1 
		298.2,79.9 	"/>
</g>
<g>
	<g>
		<polygon class="st1" points="1213.7,498.2 1213.4,499.8 1214.6,501 1212.9,501.2 1212.2,502.6 1211.5,501 1209.8,500.8 
			1211,499.7 1210.8,498.1 1212.2,498.9 		"/>
		<polygon class="st1" points="1317.9,415.7 1317.7,417.3 1318.9,418.6 1317.2,418.7 1316.3,420.1 1315.6,418.6 1314,418.2 
			1315.3,417.2 1314.9,415.6 1316.5,416.4 		"/>
		<polygon class="st1" points="1426.6,483.9 1426.4,485.4 1427.5,486.6 1425.9,486.8 1425,488.1 1424.3,486.7 1422.8,486.4 
			1424,485.3 1423.6,483.7 1425.2,484.6 		"/>
		<polygon class="st1" points="1564.8,498.2 1564.5,499.8 1565.7,501 1564,501.2 1563.2,502.6 1562.5,501 1560.9,500.8 
			1562.1,499.7 1561.8,498.1 1563.3,498.9 		"/>
		<polygon class="st1" points="1412,396.3 1411.7,397.8 1412.9,399.1 1411.2,399.3 1410.5,400.7 1409.8,399.1 1408.1,398.8 
			1409.3,397.7 1409.1,396.2 1410.5,397 		"/>
		<polygon class="st1" points="1497,328.9 1496.7,330.4 1497.9,331.6 1496.3,331.7 1495.4,333.2 1494.7,331.6 1493.2,331.4 
			1494.4,330.3 1494,328.6 1495.6,329.5 		"/>
		<polygon class="st1" points="1608.3,385.7 1608.1,387.2 1609.3,388.5 1607.6,388.6 1606.9,390.1 1606.2,388.5 1604.5,388.2 
			1605.7,387.1 1605.4,385.5 1606.9,386.4 		"/>
		<polygon class="st1" points="1367.2,341.5 1366.9,343.1 1368.1,344.3 1366.5,344.4 1365.6,345.8 1364.9,344.4 1363.2,344 
			1364.5,342.9 1364.2,341.3 1365.7,342.1 		"/>
		<polygon class="st1" points="1633,297.6 1632.6,299.2 1633.8,300.4 1632.2,300.6 1631.5,302 1630.7,300.5 1629.1,300.1 
			1630.3,299 1630,297.5 1631.5,298.3 		"/>
		<polygon class="st1" points="1225.7,328.9 1225.3,330.4 1226.5,331.6 1224.8,331.7 1224.1,333.2 1223.4,331.6 1221.7,331.4 
			1222.9,330.3 1222.7,328.6 1224.1,329.5 		"/>
	</g>
	<g>
		<polygon class="st1" points="1443.3,293.1 1443.1,294.7 1444.2,295.9 1442.6,296.1 1441.9,297.5 1441,295.9 1439.5,295.6 
			1440.7,294.5 1440.4,293 1441.9,293.8 		"/>
		<polygon class="st1" points="1547.6,210.6 1547.2,212.2 1548.4,213.4 1546.7,213.6 1546,214.9 1545.3,213.5 1543.6,213.1 
			1544.8,212.1 1544.6,210.5 1546,211.3 		"/>
		<polygon class="st1" points="1656.3,278.8 1655.9,280.3 1657.1,281.5 1655.4,281.6 1654.7,283.1 1654,281.6 1652.3,281.3 
			1653.5,280.2 1653.3,278.5 1654.7,279.5 		"/>
		<polygon class="st1" points="1794.4,293.1 1794.1,294.7 1795.3,295.9 1793.6,296.1 1792.9,297.5 1792.2,295.9 1790.5,295.6 
			1791.7,294.5 1791.4,293 1792.9,293.8 		"/>
		<polygon class="st1" points="1641.6,191.2 1641.4,192.7 1642.5,193.9 1640.9,194.2 1640,195.5 1639.3,194 1637.8,193.7 
			1639,192.6 1638.6,191.1 1640.2,191.9 		"/>
		<polygon class="st1" points="1726.7,123.6 1726.3,125.3 1727.5,126.5 1725.8,126.6 1725.1,128.1 1724.4,126.5 1722.7,126.3 
			1723.9,125.2 1723.7,123.5 1725.1,124.4 		"/>
		<polygon class="st1" points="1838,180.6 1837.6,182.1 1838.8,183.3 1837.3,183.5 1836.4,184.9 1835.7,183.4 1834,183.1 
			1835.2,182 1835,180.4 1836.5,181.3 		"/>
		<polygon class="st1" points="1596.9,136.4 1596.5,138 1597.7,139.2 1596,139.3 1595.3,140.7 1594.6,139.2 1592.9,138.9 
			1594.1,137.8 1593.9,136.2 1595.3,137 		"/>
		<polygon class="st1" points="1862.6,92.5 1862.3,94.1 1863.5,95.3 1861.8,95.4 1861,96.8 1860.3,95.4 1858.7,95 1859.9,93.9 
			1859.6,92.4 1861.1,93.2 		"/>
		<polygon class="st1" points="1455.2,123.6 1455,125.3 1456.2,126.5 1454.5,126.6 1453.8,128.1 1453,126.5 1451.4,126.3 
			1452.6,125.2 1452.4,123.5 1453.8,124.4 		"/>
	</g>
	<g>
		<polygon class="st1" points="1219.3,289.3 1219.1,290.8 1220.3,292 1218.6,292.1 1217.9,293.5 1217.2,292.1 1215.5,291.8 
			1216.7,290.7 1216.5,289 1217.9,289.9 		"/>
		<polygon class="st1" points="1323.6,206.8 1323.3,208.4 1324.5,209.6 1322.8,209.7 1322.1,211.1 1321.4,209.6 1319.7,209.3 
			1320.9,208.2 1320.6,206.6 1322.1,207.4 		"/>
		<polygon class="st1" points="1432.3,274.8 1432,276.5 1433.2,277.7 1431.5,277.8 1430.8,279.2 1430.1,277.7 1428.4,277.4 
			1429.6,276.4 1429.3,274.7 1430.8,275.5 		"/>
		<polygon class="st1" points="1570.5,289.3 1570.1,290.8 1571.3,292 1569.6,292.1 1568.9,293.5 1568.2,292.1 1566.5,291.8 
			1567.7,290.7 1567.5,289 1568.9,289.9 		"/>
		<polygon class="st1" points="1417.6,187.4 1417.4,188.9 1418.6,190.1 1416.9,190.2 1416.2,191.7 1415.4,190.1 1413.8,189.9 
			1415,188.8 1414.7,187.1 1416.2,188 		"/>
		<polygon class="st1" points="1502.7,119.8 1502.4,121.4 1503.5,122.6 1501.9,122.7 1501.2,124.1 1500.4,122.7 1498.8,122.3 
			1500,121.3 1499.7,119.7 1501.2,120.5 		"/>
		<polygon class="st1" points="1614,176.7 1613.8,178.3 1614.9,179.5 1613.3,179.6 1612.5,181 1611.8,179.5 1610.1,179.2 
			1611.3,178.2 1611,176.5 1612.6,177.3 		"/>
		<polygon class="st1" points="1372.9,132.5 1372.5,134 1373.7,135.2 1372.1,135.5 1371.3,136.8 1370.6,135.3 1369,135 
			1370.2,133.9 1369.9,132.4 1371.3,133.2 		"/>
		<polygon class="st1" points="1638.6,88.6 1638.4,90.2 1639.6,91.4 1637.9,91.6 1637.1,93 1636.3,91.4 1634.8,91.2 1636,90.1 
			1635.6,88.5 1637.2,89.3 		"/>
		<polygon class="st1" points="1231.3,119.8 1231,121.4 1232.2,122.6 1230.6,122.7 1229.8,124.1 1229.1,122.7 1227.5,122.3 
			1228.7,121.3 1228.4,119.7 1229.8,120.5 		"/>
	</g>
	<polygon class="st1" points="1429,684.4 1427.5,685.1 1426,684.3 1426.4,686 1425.2,687 1426.7,687.3 1427.5,688.8 1428.3,687.4 
		1429.9,687.3 1428.7,686.1 	"/>
	<polygon class="st1" points="1533.3,602 1531.7,602.7 1530.3,601.9 1530.5,603.4 1529.3,604.5 1531,604.8 1531.7,606.4 1532.4,605 
		1534.1,604.7 1532.9,603.5 	"/>
	<polygon class="st1" points="1642,670.1 1640.4,670.8 1639,670 1639.2,671.5 1638,672.6 1639.7,673 1640.4,674.4 1641.1,673 
		1642.8,672.8 1641.6,671.7 	"/>
	<polygon class="st1" points="1780.1,684.4 1778.6,685.1 1777.1,684.3 1777.4,686 1776.2,687 1777.8,687.3 1778.6,688.8 
		1779.3,687.4 1780.9,687.3 1779.8,686.1 	"/>
	<polygon class="st1" points="1627.3,582.5 1625.8,583.2 1624.3,582.4 1624.7,584 1623.5,585 1625,585.4 1625.7,586.9 1626.6,585.5 
		1628.2,585.3 1627,584.1 	"/>
	<polygon class="st1" points="1712.3,515 1710.8,515.7 1709.4,514.9 1709.6,516.5 1708.4,517.6 1710.1,517.9 1710.8,519.4 
		1711.5,518 1713.2,517.9 1712,516.7 	"/>
	<polygon class="st1" points="1823.7,571.9 1822.2,572.6 1820.7,571.8 1820.9,573.3 1819.7,574.4 1821.4,574.8 1822.1,576.2 
		1822.9,574.9 1824.5,574.7 1823.3,573.5 	"/>
	<polygon class="st1" points="1582.5,527.8 1581,528.4 1579.5,527.5 1579.8,529.2 1578.6,530.3 1580.3,530.5 1581,532.1 
		1581.7,530.6 1583.4,530.5 1582.2,529.3 	"/>
	<polygon class="st1" points="1848.2,483.9 1846.8,484.6 1845.3,483.7 1845.6,485.3 1844.3,486.4 1846,486.7 1846.7,488.1 
		1847.5,486.8 1849.2,486.6 1848,485.4 	"/>
	<polygon class="st1" points="1440.9,515 1439.5,515.7 1437.9,514.9 1438.3,516.5 1437.1,517.6 1438.6,517.9 1439.5,519.4 
		1440.2,518 1441.9,517.9 1440.7,516.7 	"/>
	<polygon class="st1" points="1343.5,674.8 1342.1,675.5 1340.7,674.6 1340.9,676.2 1339.7,677.3 1341.4,677.6 1342.1,679.2 
		1342.8,677.7 1344.5,677.6 1343.3,676.4 	"/>
	<polygon class="st1" points="1437.7,655.3 1436.1,656 1434.7,655.2 1434.9,656.9 1433.7,657.8 1435.4,658.2 1436.1,659.7 
		1436.9,658.3 1438.5,658.2 1437.3,657 	"/>
	<polygon class="st1" points="1522.6,587.9 1521.2,588.5 1519.8,587.7 1520,589.3 1518.8,590.4 1520.5,590.8 1521.2,592.2 
		1521.9,590.8 1523.6,590.6 1522.4,589.4 	"/>
	<polygon class="st1" points="1634.1,644.7 1632.5,645.4 1631.1,644.6 1631.3,646.1 1630.1,647.2 1631.8,647.6 1632.5,649.1 
		1633.2,647.7 1634.9,647.6 1633.7,646.4 	"/>
	<polygon class="st1" points="1392.8,600.5 1391.4,601.1 1390,600.3 1390.2,602 1389,603 1390.7,603.4 1391.4,604.8 1392.1,603.4 
		1393.8,603.3 1392.6,602.1 	"/>
	<polygon class="st1" points="1658.7,556.6 1657.1,557.3 1655.7,556.5 1655.9,558.1 1654.7,559.1 1656.4,559.5 1657.1,561 
		1657.8,559.6 1659.5,559.5 1658.3,558.3 	"/>
	<polygon class="st1" points="1251.3,587.9 1249.9,588.5 1248.3,587.7 1248.6,589.3 1247.4,590.4 1249.1,590.8 1249.8,592.2 
		1250.6,590.8 1252.2,590.6 1251,589.4 	"/>
	<g>
		<polygon class="st1" points="1272.8,966.5 1272.6,968.1 1273.7,969.3 1272.1,969.5 1271.4,970.9 1270.6,969.3 1269,969 
			1270.2,967.9 1269.9,966.4 1271.4,967.2 		"/>
		<polygon class="st1" points="1377.1,884 1376.7,885.6 1377.9,886.8 1376.2,887 1375.5,888.3 1374.8,886.9 1373.1,886.5 
			1374.3,885.5 1374.1,883.9 1375.5,884.7 		"/>
		<polygon class="st1" points="1485.8,952.2 1485.4,953.7 1486.6,954.9 1484.9,955 1484.2,956.5 1483.5,955 1481.8,954.7 
			1483,953.6 1482.8,951.9 1484.2,952.9 		"/>
		<polygon class="st1" points="1623.9,966.5 1623.6,968.1 1624.8,969.3 1623.1,969.5 1622.4,970.9 1621.7,969.3 1620,969 
			1621.2,967.9 1620.9,966.4 1622.4,967.2 		"/>
		<polygon class="st1" points="1471.1,864.6 1470.8,866.1 1472,867.3 1470.4,867.6 1469.7,868.9 1468.8,867.4 1467.3,867.1 
			1468.5,866 1468.2,864.5 1469.7,865.3 		"/>
		<polygon class="st1" points="1556.2,797 1555.8,798.7 1557,799.9 1555.3,800 1554.6,801.5 1553.9,799.9 1552.2,799.7 
			1553.4,798.6 1553.2,796.9 1554.6,797.8 		"/>
		<polygon class="st1" points="1667.5,854 1667.2,855.5 1668.3,856.7 1666.8,856.9 1665.9,858.3 1665.2,856.8 1663.5,856.5 
			1664.9,855.4 1664.5,853.8 1666,854.7 		"/>
		<polygon class="st1" points="1426.3,809.8 1426,811.4 1427.2,812.6 1425.5,812.7 1424.8,814.1 1424.1,812.6 1422.4,812.3 
			1423.6,811.2 1423.4,809.6 1424.8,810.4 		"/>
		<polygon class="st1" points="1692.1,765.9 1691.8,767.5 1693,768.7 1691.3,768.8 1690.5,770.2 1689.8,768.8 1688.2,768.4 
			1689.4,767.3 1689.1,765.8 1690.6,766.6 		"/>
		<polygon class="st1" points="1284.7,797 1284.5,798.7 1285.7,799.9 1284,800 1283.3,801.5 1282.6,799.9 1280.9,799.7 
			1282.1,798.6 1281.9,796.9 1283.3,797.8 		"/>
	</g>
	<g>
		<polygon class="st1" points="1482.4,1054.6 1482.2,1056.3 1483.4,1057.4 1481.7,1057.6 1481,1059 1480.3,1057.4 1478.6,1057.1 
			1479.8,1056 1479.6,1054.5 1481,1055.3 		"/>
		<polygon class="st1" points="1586.7,972.1 1586.3,973.7 1587.5,974.9 1585.9,975.1 1585.2,976.4 1584.4,975 1582.8,974.6 
			1584,973.6 1583.7,972 1585.2,972.9 		"/>
		<polygon class="st1" points="1695.4,1040.3 1695,1041.8 1696.2,1043 1694.6,1043.1 1693.8,1044.6 1693.1,1043.1 1691.5,1042.8 
			1692.7,1041.7 1692.4,1040 1693.8,1041 		"/>
		<polygon class="st1" points="1833.6,1054.6 1833.2,1056.3 1834.4,1057.4 1832.7,1057.6 1832,1059 1831.3,1057.4 1829.6,1057.1 
			1830.8,1056 1830.6,1054.5 1832,1055.3 		"/>
		<polygon class="st1" points="1680.7,952.7 1680.5,954.2 1681.7,955.4 1680,955.7 1679.3,957 1678.5,955.6 1676.9,955.2 
			1678.1,954.1 1677.9,952.6 1679.3,953.4 		"/>
		<polygon class="st1" points="1765.8,885.2 1765.4,886.8 1766.6,888 1765,888.1 1764.2,889.6 1763.5,888 1761.9,887.8 1763,886.7 
			1762.8,885 1764.2,885.9 		"/>
		<polygon class="st1" points="1877.1,942.1 1876.9,943.6 1877.9,944.8 1876.4,945.1 1875.6,946.4 1874.8,944.9 1873.2,944.6 
			1874.5,943.5 1874.1,942 1875.7,942.8 		"/>
		<polygon class="st1" points="1636,897.9 1635.6,899.5 1636.8,900.7 1635.1,900.8 1634.4,902.2 1633.7,900.7 1632,900.4 
			1633.2,899.4 1633,897.7 1634.4,898.5 		"/>
		<polygon class="st1" points="1901.7,854 1901.4,855.6 1902.6,856.8 1901,856.9 1900.1,858.3 1899.4,856.9 1897.9,856.5 
			1899.1,855.5 1898.7,853.9 1900.3,854.7 		"/>
		<polygon class="st1" points="1494.4,885.2 1494.1,886.8 1495.3,888 1493.6,888.1 1492.9,889.6 1492.2,888 1490.5,887.8 
			1491.7,886.7 1491.5,885 1492.9,885.9 		"/>
	</g>
	<g>
		<polygon class="st1" points="1220.2,429 1219.9,430.7 1221.1,431.9 1219.5,432 1218.7,433.4 1218,431.9 1216.4,431.5 
			1217.6,430.5 1217.3,428.9 1218.7,429.7 		"/>
		<polygon class="st1" points="1324.5,346.6 1324.1,348.1 1325.3,349.3 1323.6,349.6 1322.9,350.9 1322.2,349.4 1320.5,349.1 
			1321.7,348 1321.5,346.5 1322.9,347.3 		"/>
		<polygon class="st1" points="1433.2,414.7 1432.8,416.3 1434,417.5 1432.3,417.6 1431.6,419 1430.9,417.6 1429.2,417.2 
			1430.4,416.1 1430.2,414.5 1431.6,415.4 		"/>
		<polygon class="st1" points="1571.3,429 1571,430.7 1572.2,431.9 1570.5,432 1569.8,433.4 1569.1,431.9 1567.4,431.5 
			1568.6,430.5 1568.3,428.9 1569.8,429.7 		"/>
		<polygon class="st1" points="1418.5,327.1 1418.2,328.7 1419.4,329.9 1417.8,330.1 1417,331.4 1416.2,330 1414.7,329.6 
			1415.9,328.6 1415.6,327 1417,327.9 		"/>
		<polygon class="st1" points="1503.5,259.6 1503.2,261.3 1504.4,262.5 1502.7,262.6 1502,264 1501.3,262.5 1499.6,262.2 
			1500.8,261.2 1500.6,259.5 1502,260.3 		"/>
		<polygon class="st1" points="1614.9,316.5 1614.6,318.1 1615.7,319.3 1614.2,319.5 1613.3,320.8 1612.6,319.4 1610.9,319 
			1612.2,317.9 1611.9,316.4 1613.4,317.2 		"/>
		<polygon class="st1" points="1373.7,272.4 1373.4,273.9 1374.6,275.1 1372.9,275.2 1372.2,276.7 1371.5,275.1 1369.8,274.9 
			1371,273.8 1370.8,272.1 1372.2,273 		"/>
		<polygon class="st1" points="1639.4,228.5 1639.2,230 1640.4,231.2 1638.7,231.3 1637.9,232.8 1637.2,231.3 1635.6,231 
			1636.8,229.9 1636.5,228.3 1638,229.2 		"/>
		<polygon class="st1" points="1232.1,259.6 1231.9,261.3 1233.1,262.5 1231.4,262.6 1230.7,264 1230,262.5 1228.3,262.2 
			1229.5,261.2 1229.2,259.5 1230.7,260.3 		"/>
	</g>
	<g>
		<polygon class="st1" points="1480,438 1479.8,439.7 1481,440.9 1479.3,441 1478.6,442.5 1477.9,440.9 1476.2,440.5 1477.4,439.5 
			1477.2,437.9 1478.6,438.8 		"/>
		<polygon class="st1" points="1584.3,355.6 1584,357.1 1585.2,358.3 1583.5,358.6 1582.8,359.9 1582,358.5 1580.4,358.1 
			1581.6,357 1581.3,355.5 1582.8,356.3 		"/>
		<polygon class="st1" points="1693,423.7 1692.7,425.3 1693.8,426.5 1692.2,426.6 1691.5,428 1690.7,426.6 1689.1,426.2 
			1690.3,425.2 1690,423.5 1691.5,424.4 		"/>
		<polygon class="st1" points="1831.2,438 1830.8,439.7 1832,440.9 1830.3,441 1829.6,442.5 1828.9,440.9 1827.2,440.5 
			1828.4,439.5 1828.2,437.9 1829.6,438.8 		"/>
		<polygon class="st1" points="1678.3,336.1 1678.1,337.7 1679.3,338.9 1677.6,339.1 1676.9,340.4 1676.1,339 1674.5,338.6 
			1675.7,337.6 1675.5,336 1676.9,336.9 		"/>
		<polygon class="st1" points="1763.4,268.6 1763,270.3 1764.2,271.5 1762.6,271.6 1761.9,273 1761.1,271.5 1759.5,271.2 
			1760.7,270.2 1760.4,268.5 1761.9,269.3 		"/>
		<polygon class="st1" points="1874.7,325.5 1874.5,327.1 1875.6,328.3 1874,328.5 1873.2,329.8 1872.5,328.4 1870.8,328 
			1872.1,327 1871.7,325.4 1873.3,326.2 		"/>
		<polygon class="st1" points="1633.6,281.4 1633.2,282.9 1634.4,284.1 1632.8,284.2 1632,285.7 1631.3,284.1 1629.7,283.9 
			1630.8,282.8 1630.6,281.1 1632,282 		"/>
		<polygon class="st1" points="1899.3,237.5 1899.1,239 1900.3,240.2 1898.6,240.3 1897.7,241.8 1897,240.3 1895.5,240 
			1896.7,238.9 1896.3,237.4 1897.9,238.2 		"/>
		<polygon class="st1" points="1492,268.6 1491.7,270.3 1492.9,271.5 1491.3,271.6 1490.5,273 1489.8,271.5 1488.1,271.2 
			1489.3,270.2 1489.1,268.5 1490.5,269.3 		"/>
	</g>
	<g>
		<polygon class="st1" points="1230.3,251.1 1230.1,252.8 1231.3,254 1229.6,254.1 1228.9,255.5 1228.2,254 1226.5,253.6 
			1227.7,252.6 1227.5,251 1228.9,251.8 		"/>
		<polygon class="st1" points="1334.6,168.7 1334.2,170.2 1335.4,171.4 1333.8,171.7 1333,173 1332.3,171.6 1330.7,171.2 
			1331.9,170.1 1331.6,168.6 1333,169.4 		"/>
		<polygon class="st1" points="1443.3,236.8 1442.9,238.4 1444.1,239.6 1442.5,239.7 1441.7,241.1 1441,239.7 1439.4,239.3 
			1440.6,238.2 1440.3,236.6 1441.7,237.5 		"/>
		<polygon class="st1" points="1581.5,251.1 1581.1,252.8 1582.3,254 1580.6,254.1 1579.9,255.5 1579.2,254 1577.5,253.6 
			1578.7,252.6 1578.5,251 1579.9,251.8 		"/>
		<polygon class="st1" points="1428.6,149.2 1428.4,150.8 1429.6,152 1427.9,152.2 1427.2,153.5 1426.4,152.1 1424.8,151.7 
			1426,150.7 1425.8,149.1 1427.2,150 		"/>
		<polygon class="st1" points="1513.7,81.7 1513.3,83.4 1514.5,84.6 1512.9,84.7 1512.1,86.1 1511.4,84.6 1509.8,84.3 1510.9,83.3 
			1510.7,81.6 1512.1,82.4 		"/>
		<polygon class="st1" points="1625,138.6 1624.8,140.2 1625.8,141.4 1624.3,141.6 1623.5,142.9 1622.7,141.5 1621.1,141.1 
			1622.4,140.1 1622,138.5 1623.6,139.3 		"/>
		<polygon class="st1" points="1383.9,94.5 1383.5,96 1384.7,97.2 1383,97.3 1382.3,98.8 1381.6,97.2 1379.9,97 1381.1,95.9 
			1380.9,94.2 1382.3,95.1 		"/>
		<polygon class="st1" points="1649.6,50.6 1649.3,52.1 1650.5,53.3 1648.9,53.4 1648,54.9 1647.3,53.4 1645.8,53.1 1647,52 
			1646.6,50.4 1648.2,51.3 		"/>
		<polygon class="st1" points="1242.3,81.7 1242,83.4 1243.2,84.6 1241.5,84.7 1240.8,86.1 1240.1,84.6 1238.4,84.3 1239.6,83.3 
			1239.4,81.6 1240.8,82.4 		"/>
	</g>
	<g>
		<polygon class="st1" points="1457.7,265.6 1457.5,267.3 1458.7,268.5 1457,268.6 1456.3,270 1455.6,268.5 1453.9,268.1 
			1455.1,267.1 1454.9,265.5 1456.3,266.3 		"/>
		<polygon class="st1" points="1562,183.2 1561.6,184.7 1562.8,185.9 1561.2,186.2 1560.5,187.5 1559.7,186 1558.1,185.7 
			1559.3,184.6 1559,183.1 1560.5,183.9 		"/>
		<polygon class="st1" points="1670.7,251.3 1670.3,252.9 1671.5,254.1 1669.9,254.2 1669.1,255.6 1668.4,254.2 1666.8,253.8 
			1668,252.7 1667.7,251.1 1669.1,252 		"/>
		<polygon class="st1" points="1808.9,265.6 1808.5,267.3 1809.7,268.5 1808,268.6 1807.3,270 1806.6,268.5 1804.9,268.1 
			1806.1,267.1 1805.9,265.5 1807.3,266.3 		"/>
		<polygon class="st1" points="1656,163.7 1655.8,165.3 1657,166.5 1655.3,166.7 1654.6,168 1653.8,166.6 1652.2,166.2 
			1653.4,165.2 1653.2,163.6 1654.6,164.5 		"/>
		<polygon class="st1" points="1741.1,96.2 1740.7,97.9 1741.9,99.1 1740.3,99.2 1739.5,100.6 1738.8,99.1 1737.2,98.8 1738.3,97.8 
			1738.1,96.1 1739.5,96.9 		"/>
		<polygon class="st1" points="1852.4,153.1 1852.2,154.7 1853.2,155.9 1851.7,156.1 1850.9,157.4 1850.1,156 1848.5,155.6 
			1849.8,154.6 1849.4,153 1851,153.8 		"/>
		<polygon class="st1" points="1611.3,109 1610.9,110.5 1612.1,111.7 1610.4,111.8 1609.7,113.3 1609,111.7 1607.3,111.5 
			1608.5,110.4 1608.3,108.7 1609.7,109.6 		"/>
		<polygon class="st1" points="1877,65.1 1876.8,66.6 1877.9,67.8 1876.3,67.9 1875.4,69.4 1874.7,67.9 1873.2,67.6 1874.4,66.5 
			1874,64.9 1875.6,65.8 		"/>
		<polygon class="st1" points="1469.7,96.2 1469.4,97.9 1470.6,99.1 1468.9,99.2 1468.2,100.6 1467.5,99.1 1465.8,98.8 1467,97.8 
			1466.8,96.1 1468.2,96.9 		"/>
	</g>
</g>
<g>
	<g>
		<polygon class="st1" points="731.7,991 731.4,992.6 732.6,993.8 730.9,993.9 730.2,995.3 729.5,993.8 727.8,993.6 729,992.5 
			728.8,990.9 730.2,991.7 		"/>
		<polygon class="st1" points="835.9,910.4 835.7,911.9 836.9,913.2 835.2,913.3 834.3,914.7 833.6,913.2 832,912.8 833.3,911.8 
			832.9,910.2 834.5,911.1 		"/>
		<polygon class="st1" points="944.6,977 944.4,978.5 945.5,979.7 943.9,979.9 943,981.2 942.3,979.8 940.8,979.5 942,978.4 
			941.6,976.9 943.2,977.7 		"/>
		<polygon class="st1" points="1082.8,991 1082.5,992.6 1083.7,993.8 1082,993.9 1081.2,995.3 1080.5,993.8 1078.9,993.6 
			1080.1,992.5 1079.8,990.9 1081.3,991.7 		"/>
		<polygon class="st1" points="930,891.3 929.7,892.8 930.9,894.1 929.2,894.2 928.5,895.6 927.8,894.1 926.1,893.8 927.3,892.7 
			927.1,891.2 928.5,892 		"/>
		<polygon class="st1" points="1015,825.4 1014.7,826.9 1015.9,828.1 1014.3,828.2 1013.4,829.6 1012.7,828.1 1011.2,827.8 
			1012.4,826.8 1012,825.1 1013.6,826 		"/>
		<polygon class="st1" points="1126.3,880.9 1126.1,882.5 1127.3,883.7 1125.6,883.9 1124.9,885.3 1124.2,883.7 1122.5,883.4 
			1123.7,882.3 1123.4,880.8 1124.9,881.6 		"/>
		<polygon class="st1" points="885.2,837.7 884.9,839.3 886.1,840.4 884.5,840.5 883.6,841.9 882.9,840.5 881.2,840.2 882.5,839.1 
			882.2,837.5 883.7,838.3 		"/>
		<polygon class="st1" points="1151,794.8 1150.6,796.3 1151.8,797.5 1150.2,797.7 1149.5,799.1 1148.7,797.6 1147.1,797.2 
			1148.3,796.2 1148,794.7 1149.5,795.5 		"/>
		<polygon class="st1" points="743.7,825.4 743.3,826.9 744.5,828.1 742.8,828.2 742.1,829.6 741.4,828.1 739.7,827.8 740.9,826.8 
			740.7,825.1 742.1,826 		"/>
	</g>
	<g>
		<polygon class="st1" points="737.3,786.6 737.1,788.1 738.3,789.3 736.6,789.4 735.9,790.8 735.2,789.4 733.5,789.1 734.7,788 
			734.5,786.4 735.9,787.2 		"/>
		<polygon class="st1" points="841.6,706 841.3,707.5 842.5,708.6 840.8,708.8 840.1,710.2 839.4,708.6 837.7,708.4 838.9,707.4 
			838.6,705.7 840.1,706.5 		"/>
		<polygon class="st1" points="950.3,772.5 950,774.1 951.2,775.3 949.5,775.4 948.8,776.8 948.1,775.3 946.4,775.1 947.6,774 
			947.3,772.4 948.8,773.2 		"/>
		<polygon class="st1" points="1088.5,786.6 1088.1,788.1 1089.3,789.3 1087.6,789.4 1086.9,790.8 1086.2,789.4 1084.5,789.1 
			1085.7,788 1085.5,786.4 1086.9,787.2 		"/>
		<polygon class="st1" points="935.6,686.9 935.4,688.4 936.6,689.6 934.9,689.7 934.2,691.1 933.4,689.6 931.8,689.4 933,688.3 
			932.7,686.7 934.2,687.5 		"/>
		<polygon class="st1" points="1020.7,620.9 1020.4,622.4 1021.5,623.5 1019.9,623.7 1019.2,625.1 1018.4,623.7 1016.8,623.3 
			1018,622.3 1017.7,620.7 1019.2,621.6 		"/>
		<polygon class="st1" points="1132,676.5 1131.8,678.1 1132.9,679.2 1131.3,679.3 1130.5,680.7 1129.8,679.2 1128.1,679 
			1129.3,677.9 1129,676.3 1130.6,677.1 		"/>
		<polygon class="st1" points="890.9,633.2 890.5,634.7 891.7,635.9 890.1,636.1 889.3,637.4 888.6,636 887,635.7 888.2,634.6 
			887.9,633.1 889.3,633.9 		"/>
		<polygon class="st1" points="1156.6,590.3 1156.4,591.9 1157.6,593.1 1155.9,593.2 1155.1,594.6 1154.3,593.1 1152.8,592.8 
			1154,591.8 1153.6,590.2 1155.2,591 		"/>
		<polygon class="st1" points="749.3,620.9 749,622.4 750.2,623.5 748.6,623.7 747.8,625.1 747.1,623.7 745.5,623.3 746.7,622.3 
			746.4,620.7 747.8,621.6 		"/>
	</g>
	<polygon class="st1" points="769.3,1078.8 767.9,1079.4 766.3,1078.6 766.6,1080.2 765.4,1081.2 767.1,1081.6 767.8,1083 
		768.6,1081.6 770.2,1081.5 769,1080.3 	"/>
	<g>
		<polygon class="st1" points="738.2,923.4 737.9,925 739.1,926.2 737.5,926.3 736.7,927.7 736,926.2 734.4,925.8 735.6,924.8 
			735.3,923.3 736.7,924.1 		"/>
		<polygon class="st1" points="842.5,842.7 842.1,844.2 843.3,845.4 841.6,845.6 840.9,846.9 840.2,845.5 838.5,845.2 839.7,844.1 
			839.5,842.6 840.9,843.4 		"/>
		<polygon class="st1" points="951.2,909.4 950.8,910.9 952,912 950.3,912.2 949.6,913.6 948.9,912.2 947.2,911.8 948.4,910.8 
			948.2,909.1 949.6,910.1 		"/>
		<polygon class="st1" points="1089.3,923.4 1089,925 1090.2,926.2 1088.5,926.3 1087.8,927.7 1087.1,926.2 1085.4,925.8 
			1086.6,924.8 1086.3,923.3 1087.8,924.1 		"/>
		<polygon class="st1" points="936.5,823.7 936.2,825.2 937.4,826.4 935.8,826.6 935,827.9 934.2,826.5 932.7,826.1 933.9,825.1 
			933.6,823.6 935,824.4 		"/>
		<polygon class="st1" points="1021.5,757.6 1021.2,759.2 1022.4,760.4 1020.7,760.5 1020,761.9 1019.3,760.4 1017.6,760.2 
			1018.8,759.1 1018.6,757.5 1020,758.3 		"/>
		<polygon class="st1" points="1132.9,813.3 1132.6,814.8 1133.7,816 1132.2,816.2 1131.3,817.5 1130.6,816.1 1128.9,815.7 
			1130.2,814.7 1129.9,813.2 1131.4,814 		"/>
		<polygon class="st1" points="891.7,770.1 891.4,771.6 892.6,772.8 890.9,772.9 890.2,774.3 889.5,772.8 887.8,772.5 889,771.5 
			888.8,769.9 890.2,770.7 		"/>
		<polygon class="st1" points="1157.4,727.1 1157.2,728.7 1158.4,729.8 1156.7,729.9 1155.9,731.3 1155.2,729.9 1153.6,729.6 
			1154.8,728.5 1154.5,727 1156,727.8 		"/>
		<polygon class="st1" points="750.1,757.6 749.9,759.2 751.1,760.4 749.4,760.5 748.7,761.9 748,760.4 746.3,760.2 747.5,759.1 
			747.2,757.5 748.7,758.3 		"/>
	</g>
	<g>
		<polygon class="st1" points="748.7,434.3 748.4,435.9 749.6,437.1 747.9,437.2 747.2,438.6 746.5,437.1 744.8,436.9 746,435.8 
			745.8,434.2 747.2,435 		"/>
		<polygon class="st1" points="852.9,353.7 852.7,355.2 853.9,356.5 852.2,356.6 851.3,358 850.6,356.5 849,356.1 850.3,355.1 
			849.9,353.5 851.5,354.4 		"/>
		<polygon class="st1" points="961.6,420.3 961.4,421.8 962.5,423 960.9,423.2 960,424.5 959.3,423.1 957.8,422.8 959,421.7 
			958.6,420.2 960.2,421 		"/>
		<polygon class="st1" points="1099.8,434.3 1099.5,435.9 1100.7,437.1 1099,437.2 1098.2,438.6 1097.5,437.1 1095.9,436.9 
			1097.1,435.8 1096.8,434.2 1098.3,435 		"/>
		<polygon class="st1" points="947,334.6 946.7,336.1 947.9,337.4 946.2,337.5 945.5,338.9 944.8,337.4 943.1,337.1 944.3,336 
			944.1,334.5 945.5,335.3 		"/>
		<polygon class="st1" points="1032,268.7 1031.7,270.2 1032.9,271.4 1031.3,271.5 1030.4,272.9 1029.7,271.4 1028.2,271.1 
			1029.4,270.1 1029,268.4 1030.6,269.3 		"/>
		<polygon class="st1" points="1143.3,324.2 1143.1,325.8 1144.3,327 1142.6,327.2 1141.9,328.6 1141.2,327 1139.5,326.7 
			1140.7,325.6 1140.4,324.1 1141.9,324.9 		"/>
		<polygon class="st1" points="902.2,281 901.9,282.6 903.1,283.7 901.5,283.8 900.6,285.2 899.9,283.8 898.2,283.5 899.5,282.4 
			899.2,280.8 900.7,281.6 		"/>
		<polygon class="st1" points="1168,238.1 1167.6,239.6 1168.8,240.8 1167.2,241 1166.5,242.4 1165.7,240.9 1164.1,240.5 
			1165.3,239.5 1165,238 1166.5,238.8 		"/>
		<polygon class="st1" points="760.7,268.7 760.3,270.2 761.5,271.4 759.8,271.5 759.1,272.9 758.4,271.4 756.7,271.1 757.9,270.1 
			757.7,268.4 759.1,269.3 		"/>
	</g>
	<g>
		<polygon class="st1" points="754.3,229.9 754.1,231.4 755.3,232.6 753.6,232.7 752.9,234.1 752.2,232.7 750.5,232.4 751.7,231.3 
			751.5,229.7 752.9,230.5 		"/>
		<polygon class="st1" points="858.6,149.3 858.3,150.8 859.5,151.9 857.8,152.1 857.1,153.5 856.4,151.9 854.7,151.7 855.9,150.7 
			855.6,149 857.1,149.8 		"/>
		<polygon class="st1" points="967.3,215.8 967,217.4 968.2,218.6 966.5,218.7 965.8,220.1 965.1,218.6 963.4,218.4 964.6,217.3 
			964.3,215.7 965.8,216.5 		"/>
		<polygon class="st1" points="1105.5,229.9 1105.1,231.4 1106.3,232.6 1104.6,232.7 1103.9,234.1 1103.2,232.7 1101.5,232.4 
			1102.7,231.3 1102.5,229.7 1103.9,230.5 		"/>
		<polygon class="st1" points="952.6,130.2 952.4,131.7 953.6,132.9 951.9,133 951.2,134.4 950.4,132.9 948.8,132.7 950,131.6 
			949.7,130 951.2,130.8 		"/>
		<polygon class="st1" points="1037.7,64.2 1037.4,65.7 1038.5,66.8 1036.9,67 1036.2,68.4 1035.4,67 1033.8,66.6 1035,65.6 
			1034.7,64 1036.2,64.9 		"/>
		<polygon class="st1" points="1149,119.8 1148.8,121.4 1149.9,122.5 1148.3,122.6 1147.5,124 1146.8,122.5 1145.1,122.3 
			1146.3,121.2 1146,119.6 1147.6,120.4 		"/>
		<polygon class="st1" points="907.9,76.5 907.5,78 908.7,79.2 907.1,79.4 906.3,80.7 905.6,79.3 904,79 905.2,77.9 904.9,76.4 
			906.3,77.2 		"/>
		<polygon class="st1" points="1173.6,33.6 1173.4,35.2 1174.6,36.4 1172.9,36.5 1172.1,37.9 1171.3,36.4 1169.8,36.1 1171,35.1 
			1170.6,33.5 1172.2,34.3 		"/>
		<polygon class="st1" points="766.3,64.2 766,65.7 767.2,66.8 765.6,67 764.8,68.4 764.1,67 762.5,66.6 763.7,65.6 763.4,64 
			764.8,64.9 		"/>
	</g>
	<polygon class="st1" points="786.3,522.1 784.9,522.7 783.3,521.9 783.6,523.5 782.4,524.5 784.1,524.9 784.8,526.3 785.6,524.9 
		787.2,524.8 786,523.6 	"/>
	<g>
		<polygon class="st1" points="755.2,366.7 754.9,368.3 756.1,369.5 754.5,369.6 753.7,371 753,369.5 751.4,369.1 752.6,368.1 
			752.3,366.6 753.7,367.4 		"/>
		<polygon class="st1" points="859.5,286 859.1,287.5 860.3,288.7 858.6,288.9 857.9,290.2 857.2,288.8 855.5,288.5 856.7,287.4 
			856.5,285.9 857.9,286.7 		"/>
		<polygon class="st1" points="968.2,352.7 967.8,354.2 969,355.3 967.3,355.5 966.6,356.9 965.9,355.5 964.2,355.1 965.4,354.1 
			965.2,352.4 966.6,353.4 		"/>
		<polygon class="st1" points="1106.3,366.7 1106,368.3 1107.2,369.5 1105.5,369.6 1104.8,371 1104.1,369.5 1102.4,369.1 
			1103.6,368.1 1103.3,366.6 1104.8,367.4 		"/>
		<polygon class="st1" points="953.5,267 953.2,268.5 954.4,269.7 952.8,269.9 952,271.2 951.2,269.8 949.7,269.4 950.9,268.4 
			950.6,266.9 952,267.7 		"/>
		<polygon class="st1" points="1038.5,200.9 1038.2,202.5 1039.4,203.7 1037.7,203.8 1037,205.2 1036.3,203.7 1034.6,203.5 
			1035.8,202.4 1035.6,200.8 1037,201.6 		"/>
		<polygon class="st1" points="1149.9,256.6 1149.6,258.1 1150.7,259.3 1149.2,259.5 1148.3,260.8 1147.6,259.4 1145.9,259 
			1147.2,258 1146.9,256.5 1148.4,257.3 		"/>
		<polygon class="st1" points="908.7,213.4 908.4,214.9 909.6,216.1 907.9,216.2 907.2,217.6 906.5,216.1 904.8,215.8 906,214.8 
			905.8,213.2 907.2,214 		"/>
		<polygon class="st1" points="1174.4,170.4 1174.2,172 1175.4,173.1 1173.7,173.2 1172.9,174.6 1172.2,173.2 1170.6,172.9 
			1171.8,171.8 1171.5,170.3 1173,171.1 		"/>
		<polygon class="st1" points="767.1,200.9 766.9,202.5 768.1,203.7 766.4,203.8 765.7,205.2 765,203.7 763.3,203.5 764.5,202.4 
			764.2,200.8 765.7,201.6 		"/>
	</g>
</g>
</svg>
